<svg width="48" height="45" viewBox="0 0 150 147" fill="none" xmlns="http://www.w3.org/2000/svg">
<g clip-path="url(#clip0_2405_8)">
<path fill-rule="evenodd" clip-rule="evenodd" d="M74.7765 0C33.427 0 0 33.6735 0 75.3321C0 108.632 21.4179 136.82 51.1301 146.796C54.8449 147.546 56.2056 145.176 56.2056 143.181C56.2056 141.435 56.0832 135.448 56.0832 129.211C35.2821 133.702 30.9505 120.231 30.9505 120.231C27.6077 111.501 22.6546 109.257 22.6546 109.257C15.8464 104.642 23.1505 104.642 23.1505 104.642C30.7026 105.141 34.6653 112.374 34.6653 112.374C41.3495 123.848 52.1204 120.606 56.4536 118.61C57.0719 113.746 59.0541 110.379 61.1587 108.508C44.5684 106.762 27.1133 100.277 27.1133 71.3403C27.1133 63.1087 30.0827 56.374 34.7878 51.1362C34.0454 49.2658 31.4449 41.5316 35.5316 31.1801C35.5316 31.1801 41.8454 29.1842 56.0816 38.9128C62.1767 37.2638 68.4624 36.4249 74.7765 36.4179C81.0903 36.4179 87.5265 37.2918 93.4699 38.9128C107.708 29.1842 114.021 31.1801 114.021 31.1801C118.108 41.5316 115.506 49.2658 114.764 51.1362C119.593 56.374 122.44 63.1087 122.44 71.3403C122.44 100.277 104.985 106.636 88.2704 108.508C90.9949 110.878 93.3459 115.367 93.3459 122.477C93.3459 132.579 93.2235 140.686 93.2235 143.18C93.2235 145.176 94.5857 147.546 98.299 146.798C128.011 136.818 149.429 108.632 149.429 75.3321C149.552 33.6735 116.002 0 74.7765 0Z" fill="#C6ADFF" style="fill:white;fill-opacity:1;"/>
</g>
<defs>
<clipPath id="clip0_2405_8">
<rect width="150" height="146.939" fill="#C6ADFF" style="fill:white;fill-opacity:1;"/>
</clipPath>
</defs>
</svg>
