<svg width="48" height="48" viewBox="0 0 150 127" fill="none" xmlns="http://www.w3.org/2000/svg">
<g clip-path="url(#clip0_2405_4)">
<path d="M120.07 108.004H101.277V78.8635C101.277 71.9146 101.152 62.9692 91.5025 62.9692C81.7144 62.9692 80.2168 70.5403 80.2168 78.3576V108.002H61.4237V48.077H79.4651V56.2665H79.7176C81.5232 53.2098 84.1322 50.6953 87.2668 48.9906C90.4015 47.286 93.9444 46.4551 97.5182 46.5865C116.566 46.5865 120.078 58.9918 120.078 75.1303L120.07 108.004ZM40.2189 39.8856C38.0619 39.886 35.9532 39.2531 34.1596 38.0669C32.3659 36.8806 30.9679 35.1944 30.1421 33.2214C29.3163 31.2484 29.0999 29.0772 29.5203 26.9824C29.9407 24.8877 30.9791 22.9634 32.504 21.4529C34.029 19.9425 35.972 18.9137 38.0875 18.4966C40.2029 18.0796 42.3957 18.2931 44.3886 19.11C46.3816 19.927 48.0851 21.3107 49.2837 23.0863C50.4824 24.8619 51.1224 26.9495 51.1228 29.0853C51.1231 30.5033 50.8412 31.9076 50.2934 33.2178C49.7455 34.528 48.9425 35.7186 47.93 36.7215C46.9175 37.7244 45.7153 38.52 44.3922 39.0629C43.0692 39.6058 41.6511 39.8854 40.2189 39.8856ZM49.6154 108.004H30.8028V48.077H49.6154V108.004ZM129.439 1.00856H21.3594C18.9062 0.981145 16.5424 1.91917 14.7874 3.61652C13.0325 5.31386 12.0299 7.63164 12 10.0606V117.52C12.0289 119.95 13.0308 122.269 14.7857 123.968C16.5407 125.667 18.905 126.607 21.3594 126.581H129.439C131.898 126.612 134.269 125.675 136.031 123.976C137.793 122.277 138.801 119.955 138.835 117.52V10.0528C138.8 7.61907 137.791 5.29865 136.029 3.60135C134.267 1.90405 131.897 0.968702 129.439 1.0008" fill="#C6ADFF" style="fill:white;fill-opacity:1;"/>
</g>
<defs>
</defs>
</svg>
