<svg width="48" height="48" viewBox="0 0 150 150" fill="none" xmlns="http://www.w3.org/2000/svg">
<g clip-path="url(#clip0_2405_2)">
<path d="M43.938 0.52499C35.958 0.90149 30.5085 2.17499 25.7445 4.04699C20.814 5.96849 16.635 8.54699 12.477 12.72C8.319 16.893 5.7585 21.075 3.8505 26.013C2.004 30.7875 0.753 36.2415 0.4005 44.226C0.0479996 52.2105 -0.0300005 54.777 0.00899954 75.144C0.0479995 95.511 0.138 98.064 0.525 106.065C0.905999 114.043 2.175 119.491 4.047 124.257C5.9715 129.187 8.547 133.365 12.7215 137.524C16.896 141.684 21.075 144.238 26.025 146.149C30.795 147.993 36.2505 149.25 44.2335 149.599C52.2165 149.949 54.786 150.03 75.147 149.991C95.508 149.952 98.0715 149.862 106.071 149.482C114.07 149.103 119.49 147.825 124.257 145.962C129.187 144.033 133.368 141.462 137.524 137.286C141.681 133.11 144.24 128.925 146.146 123.984C147.994 119.214 149.25 113.758 149.596 105.781C149.946 97.776 150.028 95.22 149.989 74.856C149.95 54.492 149.859 51.939 149.479 43.941C149.1 35.943 147.829 30.5115 145.959 25.743C144.031 20.8125 141.459 16.638 137.286 12.4755C133.113 8.31299 128.925 5.75549 123.985 3.85349C119.212 2.00699 113.76 0.74849 105.777 0.40349C97.794 0.0584899 95.2245 -0.0300101 74.856 0.00898985C54.4875 0.0479899 51.9375 0.13499 43.938 0.52499ZM44.814 136.107C37.5015 135.789 33.531 134.574 30.885 133.557C27.381 132.207 24.885 130.575 22.248 127.963C19.611 125.352 17.991 122.847 16.623 119.35C15.5955 116.704 14.358 112.738 14.016 105.426C13.644 97.5225 13.566 95.1495 13.5225 75.126C13.479 55.1025 13.5555 52.7325 13.902 44.826C14.214 37.5195 15.4365 33.5445 16.452 30.9C17.802 27.3915 19.428 24.9 22.0455 22.2645C24.663 19.629 27.1605 18.006 30.66 16.638C33.303 15.606 37.269 14.379 44.5785 14.031C52.488 13.656 54.858 13.581 74.8785 13.5375C94.899 13.494 97.275 13.569 105.187 13.917C112.494 14.235 116.47 15.4455 119.112 16.467C122.617 17.817 125.112 19.4385 127.747 22.0605C130.383 24.6825 132.007 27.171 133.375 30.678C134.409 33.3135 135.636 37.278 135.981 44.592C136.357 52.5015 136.443 54.873 136.479 74.892C136.515 94.911 136.444 97.2885 136.098 105.192C135.778 112.504 134.566 116.476 133.548 119.125C132.198 122.628 130.57 125.125 127.951 127.759C125.332 130.393 122.838 132.016 119.337 133.384C116.697 134.415 112.726 135.645 105.423 135.993C97.5135 136.365 95.1435 136.443 75.1155 136.486C55.0875 136.53 52.725 136.449 44.8155 136.107M105.955 34.9155C105.958 36.6956 106.489 38.4349 107.481 39.9134C108.472 41.3919 109.88 42.5431 111.526 43.2214C113.172 43.8998 114.982 44.0748 116.727 43.7244C118.472 43.374 120.075 42.5138 121.331 41.2528C122.588 39.9917 123.442 38.3863 123.786 36.6397C124.13 34.8931 123.948 33.0837 123.264 31.4404C122.579 29.7971 121.423 28.3936 119.941 27.4075C118.459 26.4214 116.718 25.8969 114.937 25.9005C112.551 25.9053 110.264 26.8576 108.58 28.5482C106.895 30.2387 105.952 32.5291 105.955 34.9155ZM36.4905 75.075C36.5325 96.345 53.8065 113.548 75.072 113.508C96.3375 113.467 113.553 96.195 113.512 74.925C113.472 53.655 96.1935 36.447 74.925 36.489C53.6565 36.531 36.45 53.808 36.4905 75.075ZM49.9995 75.048C49.9897 70.1034 51.4464 65.2669 54.1854 61.1502C56.9243 57.0334 60.8225 53.8213 65.387 51.9201C69.9515 50.0188 74.9772 49.5138 79.8287 50.4688C84.6803 51.4239 89.1396 53.7961 92.6429 57.2856C96.1462 60.775 98.5361 65.2249 99.5104 70.0726C100.485 74.9203 99.9995 79.9481 98.1163 84.5201C96.2331 89.092 93.0365 93.0029 88.9306 95.7581C84.8248 98.5134 79.9941 99.9892 75.0495 99.999C71.7663 100.006 68.5139 99.366 65.478 98.1157C62.4421 96.8655 59.6823 95.0294 57.3561 92.7124C55.0299 90.3954 53.1829 87.6429 51.9207 84.612C50.6584 81.5811 50.0056 78.3312 49.9995 75.048Z" fill="#C6ADFF" style="fill:white;fill-opacity:1;"/>
</g>
<defs>
<clipPath id="clip0_2405_2">
<rect width="150" height="150" fill="#C6ADFF" style="fill:white;fill-opacity:1;"/>
</clipPath>
</defs>
</svg>
