<svg width="24" height="24" viewBox="0 0 24 24" fill="none" xmlns="http://www.w3.org/2000/svg">
<path fill-rule="evenodd" clip-rule="evenodd" d="M5.16534 13.9152C4.89712 14.8096 4.76387 15.2563 4.79654 15.6806C4.82749 16.0547 4.94956 16.4144 5.15158 16.7256C5.38026 17.0773 5.75335 17.3374 6.50126 17.8568L9.80153 20.1533C10.4678 20.6161 10.8013 20.8485 11.1615 20.9391C11.4796 21.0198 11.8123 21.0198 12.1312 20.9418C12.4923 20.8521 12.8276 20.6215 13.4964 20.1613L16.8328 17.8604C17.5875 17.3392 17.9658 17.08 18.1979 16.7247C18.4013 16.4122 18.5233 16.05 18.5521 15.6734C18.5856 15.2455 18.4472 14.7961 18.1738 13.8955L15.251 4.29709C15.1091 3.83062 15.0386 3.59829 14.9028 3.42516C14.7831 3.27307 14.6284 3.15516 14.4532 3.08249C14.2555 2.99996 14.0216 2.99996 13.5531 2.99996H9.74393C9.27369 2.99996 9.03728 2.99996 8.8387 3.08428C8.66284 3.15712 8.50777 3.27571 8.38823 3.42875C8.25241 3.60277 8.18277 3.8369 8.04351 4.30516L5.16534 13.9161V13.9152ZM13.7018 5.03715C13.8136 5.18247 13.8721 5.38072 13.9864 5.77272L16.4958 14.3736C15.5531 13.8636 14.5414 13.5067 13.4955 13.3151L11.8622 7.55336C11.8487 7.50791 11.8217 7.46815 11.785 7.4399C11.7484 7.41165 11.704 7.39641 11.6584 7.39641C11.6128 7.39641 11.5685 7.41165 11.5318 7.4399C11.4951 7.46815 11.4681 7.50791 11.4547 7.55336L9.84021 13.3106C8.78969 13.5018 7.77349 13.86 6.82708 14.3727L9.34934 5.77183C9.46368 5.37802 9.52128 5.18157 9.63389 5.03625C9.73362 4.90797 9.86343 4.8084 10.0096 4.7465C10.1763 4.67654 10.3732 4.67654 10.7669 4.67654H12.5679C12.9617 4.67654 13.1594 4.67654 13.3262 4.7465C13.4723 4.8084 13.6013 4.90797 13.7018 5.03715ZM11.7564 15.4043C12.7072 15.4043 13.5333 15.1531 13.9468 14.7835C14.0203 15.0249 14.0464 15.2793 14.0235 15.5315C14.0006 15.7837 13.9292 16.0284 13.8136 16.2511C13.5488 16.7624 13.1646 17.0163 12.8181 17.245C12.3831 17.533 12.0092 17.7815 12.0092 18.4471C12.0092 18.6669 12.0573 18.8768 12.1441 19.0624C11.8511 18.9354 11.6008 18.7206 11.4247 18.4452C11.2486 18.1698 11.1546 17.8461 11.1546 17.515V17.4738C11.1546 17.0145 11.1555 16.4485 10.534 16.4485C10.4476 16.4483 10.3621 16.466 10.2822 16.5004C10.2024 16.5347 10.1298 16.5852 10.0687 16.6488C10.0075 16.7125 9.959 16.788 9.92585 16.8713C9.8927 16.9545 9.87557 17.0437 9.87546 17.1338C9.17741 16.4045 9.23845 15.355 9.23845 15.355C9.23845 15.1406 9.25908 14.8069 9.35106 14.5153C9.61068 15.0248 10.589 15.4034 11.7564 15.4034V15.4043Z" fill="#EA580C"/>
</svg>
