<svg width="24" height="24" viewBox="0 0 24 24" fill="none" xmlns="http://www.w3.org/2000/svg">
<path d="M16.9196 9.9375H14.4309C14.3855 9.61553 14.2927 9.32955 14.1525 9.07955C14.0124 8.82576 13.8324 8.60985 13.6127 8.43182C13.393 8.25379 13.1393 8.11742 12.8514 8.02273C12.5673 7.92803 12.2586 7.88068 11.9252 7.88068C11.323 7.88068 10.7984 8.0303 10.3514 8.32955C9.90441 8.625 9.55782 9.05682 9.31161 9.625C9.0654 10.1894 8.94229 10.875 8.94229 11.6818C8.94229 12.5114 9.0654 13.2083 9.31161 13.7727C9.56161 14.3371 9.91009 14.7633 10.3571 15.0511C10.804 15.339 11.3211 15.483 11.9082 15.483C12.2377 15.483 12.5427 15.4394 12.823 15.3523C13.1071 15.2652 13.359 15.1383 13.5787 14.9716C13.7984 14.8011 13.9802 14.5947 14.1241 14.3523C14.2718 14.1098 14.3741 13.8333 14.4309 13.5227L16.9196 13.5341C16.8552 14.0682 16.6942 14.5833 16.4366 15.0795C16.1828 15.572 15.84 16.0133 15.4082 16.4034C14.9802 16.7898 14.4688 17.0966 13.8741 17.3239C13.2832 17.5473 12.6146 17.6591 11.8684 17.6591C10.8305 17.6591 9.90252 17.4242 9.08434 16.9545C8.26994 16.4848 7.626 15.8049 7.15252 14.9148C6.68282 14.0246 6.44797 12.947 6.44797 11.6818C6.44797 10.4129 6.68661 9.33333 7.16388 8.44318C7.64115 7.55303 8.28888 6.875 9.10706 6.40909C9.92524 5.93939 10.8457 5.70455 11.8684 5.70455C12.5427 5.70455 13.1677 5.79924 13.7434 5.98864C14.323 6.17803 14.8362 6.45455 15.2832 6.81818C15.7302 7.17803 16.0938 7.61932 16.3741 8.14205C16.6582 8.66477 16.84 9.26326 16.9196 9.9375Z" fill="#60A5FA"/>
</svg>
