<svg width="24" height="24" viewBox="0 0 24 24" fill="none" xmlns="http://www.w3.org/2000/svg">
<path d="M18.4505 5.24908C19.3753 5.24908 20.125 6.03137 20.125 6.99638V11.5499C20.125 15.5269 17.0353 18.7509 13.2241 18.7509C9.76377 18.7509 6.89833 16.0934 6.39991 12.6277C6.36661 8.5 6.36661 10.5 6.36661 6.59927C6.53888 5.82558 7.20378 5.24908 7.99765 5.24908H18.4505Z" stroke="#EA580C" stroke-width="2"/>
<mask id="mask0_20564_632" style="mask-type:alpha" maskUnits="userSpaceOnUse" x="0" y="5" width="4" height="8">
<rect x="-0.5" y="0.5" width="1.875" height="6" transform="matrix(-1 0 0 1 2.83331 5.5)" fill="#D9D9D9" stroke="#F87171"/>
</mask>
<g mask="url(#mask0_20564_632)">
<ellipse cx="1.91667" cy="2" rx="1.91667" ry="2" transform="matrix(-1 0 0 1 5.70599 7.5)" stroke="#EA580C" stroke-width="2"/>
</g>
</svg>
