<svg width="24" height="24" viewBox="0 0 24 24" fill="none" xmlns="http://www.w3.org/2000/svg">
<path d="M13.8197 10.4489H11.331C11.2856 10.1269 11.1928 9.84091 11.0526 9.59091C10.9125 9.33712 10.7326 9.12122 10.5129 8.94319C10.2932 8.76516 10.0394 8.62879 9.75149 8.53409C9.4674 8.4394 9.15869 8.39205 8.82536 8.39205C8.22308 8.39205 7.69846 8.54167 7.25149 8.84091C6.80452 9.13637 6.45793 9.56819 6.21172 10.1364C5.96551 10.7008 5.8424 11.3864 5.8424 12.1932C5.8424 13.0227 5.96551 13.7197 6.21172 14.2841C6.46172 14.8485 6.8102 15.2746 7.25717 15.5625C7.70414 15.8504 8.22119 15.9943 8.80831 15.9943C9.13786 15.9943 9.44278 15.9508 9.72308 15.8636C10.0072 15.7765 10.2591 15.6496 10.4788 15.483C10.6985 15.3125 10.8803 15.1061 11.0242 14.8636C11.1719 14.6212 11.2742 14.3447 11.331 14.0341L13.8197 14.0455C13.7553 14.5795 13.5943 15.0947 13.3367 15.5909C13.0829 16.0833 12.7401 16.5246 12.3083 16.9148C11.8803 17.3011 11.3689 17.608 10.7742 17.8352C10.1833 18.0587 9.51475 18.1705 8.76854 18.1705C7.73066 18.1705 6.80263 17.9356 5.98445 17.4659C5.17005 16.9962 4.52611 16.3163 4.05263 15.4261C3.58293 14.536 3.34808 13.4583 3.34808 12.1932C3.34808 10.9242 3.58672 9.8447 4.06399 8.95455C4.54127 8.0644 5.18899 7.38637 6.00717 6.92046C6.82536 6.45076 7.74581 6.21591 8.76854 6.21591C9.44278 6.21591 10.0678 6.31061 10.6435 6.5C11.2231 6.6894 11.7363 6.96591 12.1833 7.32955C12.6303 7.6894 12.9939 8.13069 13.2742 8.65341C13.5583 9.17614 13.7401 9.77463 13.8197 10.4489Z" fill="#60A5FA"/>
<path d="M20.2316 9.28409V11.1023H14.8452V9.28409H20.2316ZM16.0782 18.0114V8.65341C16.0782 8.02084 16.2013 7.49622 16.4475 7.07955C16.6975 6.66288 17.0384 6.35038 17.4702 6.14205C17.9021 5.93372 18.3926 5.82955 18.9418 5.82955C19.313 5.82955 19.6521 5.85796 19.9589 5.91478C20.2695 5.97159 20.5005 6.02273 20.6521 6.06819L20.2202 7.88637C20.1255 7.85606 20.0081 7.82766 19.868 7.80114C19.7316 7.77463 19.5915 7.76137 19.4475 7.76137C19.0915 7.76137 18.8433 7.8447 18.7032 8.01137C18.563 8.17425 18.493 8.40341 18.493 8.69887V18.0114H16.0782Z" fill="#60A5FA"/>
</svg>
