<svg width="24" height="24" viewBox="0 0 24 24" fill="none" xmlns="http://www.w3.org/2000/svg">
<path d="M15.6172 14.185V9.81495H16.676V14.185H15.6172ZM14.0526 12.5524V11.4476H18.2406V12.5524H14.0526Z" fill="#60A5FA"/>
<path d="M20.3766 14.185V9.81495H21.4354V14.185H20.3766ZM18.812 12.5524V11.4476H23V12.5524H18.812Z" fill="#60A5FA"/>
<path d="M13.8878 9.9375H11.3991C11.3537 9.61553 11.2609 9.32955 11.1207 9.07955C10.9806 8.82576 10.8006 8.60985 10.5809 8.43182C10.3612 8.25379 10.1075 8.11742 9.81958 8.02273C9.53549 7.92803 9.22678 7.88068 8.89345 7.88068C8.29117 7.88068 7.76655 8.0303 7.31958 8.32955C6.87261 8.625 6.52602 9.05682 6.27981 9.625C6.0336 10.1894 5.91049 10.875 5.91049 11.6818C5.91049 12.5114 6.0336 13.2083 6.27981 13.7727C6.52981 14.3371 6.87829 14.7633 7.32526 15.0511C7.77223 15.339 8.28928 15.483 8.8764 15.483C9.20595 15.483 9.51087 15.4394 9.79117 15.3523C10.0753 15.2652 10.3272 15.1383 10.5469 14.9716C10.7666 14.8011 10.9484 14.5947 11.0923 14.3523C11.24 14.1098 11.3423 13.8333 11.3991 13.5227L13.8878 13.5341C13.8234 14.0682 13.6624 14.5833 13.4048 15.0795C13.151 15.572 12.8082 16.0133 12.3764 16.4034C11.9484 16.7898 11.437 17.0966 10.8423 17.3239C10.2514 17.5473 9.58284 17.6591 8.83663 17.6591C7.79875 17.6591 6.87072 17.4242 6.05254 16.9545C5.23814 16.4848 4.5942 15.8049 4.12072 14.9148C3.65102 14.0246 3.41617 12.947 3.41617 11.6818C3.41617 10.4129 3.65481 9.33333 4.13208 8.44318C4.60935 7.55303 5.25708 6.875 6.07526 6.40909C6.89345 5.93939 7.8139 5.70455 8.83663 5.70455C9.51087 5.70455 10.1359 5.79924 10.7116 5.98864C11.2912 6.17803 11.8044 6.45455 12.2514 6.81818C12.6984 7.17803 13.062 7.61932 13.3423 8.14205C13.6264 8.66477 13.8082 9.26326 13.8878 9.9375Z" fill="#60A5FA"/>
</svg>
