<svg width="24" height="24" viewBox="0 0 24 24" fill="none" xmlns="http://www.w3.org/2000/svg">
<path d="M14.8461 9.9375H12.3574C12.312 9.61553 12.2192 9.32955 12.079 9.07955C11.9389 8.82576 11.759 8.60985 11.5393 8.43182C11.3196 8.25379 11.0658 8.11742 10.7779 8.02273C10.4938 7.92803 10.1851 7.88068 9.85176 7.88068C9.24949 7.88068 8.72486 8.0303 8.27789 8.32955C7.83093 8.625 7.48433 9.05682 7.23812 9.625C6.99191 10.1894 6.8688 10.875 6.8688 11.6818C6.8688 12.5114 6.99191 13.2083 7.23812 13.7727C7.48812 14.3371 7.83661 14.7633 8.28358 15.0511C8.73055 15.339 9.24759 15.483 9.83471 15.483C10.1643 15.483 10.4692 15.4394 10.7495 15.3523C11.0336 15.2652 11.2855 15.1383 11.5052 14.9716C11.7249 14.8011 11.9067 14.5947 12.0506 14.3523C12.1983 14.1098 12.3006 13.8333 12.3574 13.5227L14.8461 13.5341C14.7817 14.0682 14.6207 14.5833 14.3631 15.0795C14.1093 15.572 13.7665 16.0133 13.3347 16.4034C12.9067 16.7898 12.3953 17.0966 11.8006 17.3239C11.2097 17.5473 10.5412 17.6591 9.79494 17.6591C8.75706 17.6591 7.82903 17.4242 7.01085 16.9545C6.19646 16.4848 5.55252 15.8049 5.07903 14.9148C4.60933 14.0246 4.37449 12.947 4.37449 11.6818C4.37449 10.4129 4.61312 9.33333 5.09039 8.44318C5.56767 7.55303 6.21539 6.875 7.03358 6.40909C7.85176 5.93939 8.77221 5.70455 9.79494 5.70455C10.4692 5.70455 11.0942 5.79924 11.6699 5.98864C12.2495 6.17803 12.7627 6.45455 13.2097 6.81818C13.6567 7.17803 14.0203 7.61932 14.3006 8.14205C14.5847 8.66477 14.7665 9.26326 14.8461 9.9375Z" fill="#14B8A6"/>
<path d="M19.428 16.4693L20.8334 7.53065H22.1719L20.7665 16.4693H19.428ZM15.5924 14.2521L15.8141 12.8555H22.5065L22.2848 14.2521H15.5924ZM16.4164 16.4693L17.8218 7.53065H19.1603L17.7549 16.4693H16.4164ZM16.0818 11.1445L16.3077 9.74786H23L22.7742 11.1445H16.0818Z" fill="#14B8A6"/>
</svg>
