<svg width="24" height="24" viewBox="0 0 24 24" fill="none" xmlns="http://www.w3.org/2000/svg">
<path fill-rule="evenodd" clip-rule="evenodd" d="M11.9263 3.00003C9.95458 3.00265 8.05445 3.73907 6.59597 5.06586C5.13748 6.39266 4.22507 8.21482 4.03643 10.1775C3.84779 12.1401 4.39643 14.1027 5.5755 15.683C6.75456 17.2633 8.47964 18.3482 10.4147 18.7263V21C15.1664 20.283 19.3739 16.5115 19.6882 11.5585C19.7876 10.0821 19.4867 8.60627 18.8172 7.28664C18.1477 5.96701 17.1344 4.85253 15.8844 4.06076C15.5922 3.88416 15.2868 3.73049 14.9709 3.60111L14.8187 3.54021C14.6792 3.48816 14.5388 3.43119 14.3944 3.38798C13.5976 3.12819 12.7644 2.99723 11.9263 3.00003ZM13.5665 5.93962C13.4251 5.92401 13.2821 5.94344 13.15 5.9962C13.018 6.04896 12.9009 6.13342 12.8092 6.24212C12.6798 6.42287 12.568 6.6156 12.4753 6.81767C12.3324 7.1318 12.2794 7.47941 12.3223 7.82185C12.3651 8.16429 12.502 8.48815 12.7179 8.75742C13.0583 8.68945 13.3769 8.53941 13.6462 8.32032C13.9154 8.10124 14.1271 7.81973 14.2628 7.50026C14.359 7.30128 14.4109 7.08382 14.415 6.86284C14.4198 6.62916 14.3343 6.40264 14.1762 6.23047C14.0181 6.0583 13.7997 5.95475 13.5665 5.93962ZM10.0307 5.9848C9.80397 5.99974 9.59066 6.09759 9.43145 6.25971C9.27223 6.42182 9.17824 6.63686 9.16739 6.86383C9.17146 7.08449 9.22341 7.30164 9.31963 7.50026C9.46467 7.8219 9.68479 8.10403 9.96148 8.32296C10.2382 8.54188 10.5634 8.69121 10.9097 8.7584C11.1657 8.39022 11.2912 7.94708 11.2665 7.49937C11.2418 7.05166 11.0681 6.62505 10.7732 6.2873C10.6839 6.17994 10.5695 6.09619 10.4402 6.04344C10.3109 5.99068 10.1706 5.97055 10.0317 5.9848H10.0307ZM7.65586 8.31545C7.48329 8.3218 7.31695 8.38149 7.17973 8.48632C7.04251 8.59115 6.94118 8.73595 6.88968 8.90077C6.83819 9.06559 6.83907 9.24232 6.89221 9.40662C6.94535 9.57092 7.04813 9.7147 7.18639 9.81815C7.36702 9.95195 7.55969 10.0687 7.76193 10.1668C8.09284 10.3046 8.4526 10.3588 8.80941 10.3245C9.16623 10.2902 9.50911 10.1686 9.80776 9.97038C9.71895 9.63526 9.5536 9.32531 9.32472 9.0649C9.09584 8.8045 8.80968 8.60074 8.48872 8.46965C8.27462 8.37272 8.04307 8.32026 7.80809 8.31545C7.75744 8.31107 7.70651 8.31107 7.65586 8.31545ZM15.1261 11.2619C14.68 11.2541 14.2418 11.3811 13.869 11.6263C13.9578 11.9611 14.1231 12.2708 14.3518 12.531C14.5805 12.7913 14.8664 12.9949 15.187 13.126C15.4035 13.223 15.6374 13.2748 15.8745 13.2783C16.0602 13.3002 16.248 13.2604 16.4089 13.1651C16.5698 13.0698 16.6949 12.9242 16.7649 12.7508C16.8349 12.5774 16.846 12.3858 16.7963 12.2055C16.7467 12.0252 16.6392 11.8662 16.4903 11.753C16.3096 11.6236 16.1169 11.5117 15.9148 11.4191C15.6661 11.3132 15.3993 11.2565 15.1291 11.2521L15.1261 11.2619ZM8.50444 11.3071C8.23425 11.3119 7.9675 11.3686 7.71871 11.4741C7.50464 11.5495 7.30839 11.6682 7.14219 11.8227C7.0043 11.9436 6.90868 12.1054 6.86932 12.2845C6.82996 12.4636 6.84892 12.6506 6.92342 12.8181C6.99793 12.9857 7.12407 13.125 7.28342 13.2158C7.44276 13.3065 7.62696 13.3439 7.80907 13.3225C8.04438 13.3223 8.27665 13.2693 8.48872 13.1673C8.80712 13.0425 9.08912 12.8398 9.30892 12.5778C9.52872 12.3158 9.6793 12.0028 9.74686 11.6675C9.37946 11.4225 8.94601 11.2953 8.50444 11.3032V11.3071ZM10.9598 12.7921C10.6192 12.8601 10.3003 13.0103 10.0309 13.2295C9.76148 13.4488 9.54969 13.7305 9.41391 14.0503C9.31809 14.2434 9.2661 14.4554 9.26168 14.671C9.25744 14.8538 9.30883 15.0336 9.40906 15.1866C9.50929 15.3396 9.65362 15.4585 9.82294 15.5276C9.99226 15.5967 10.1786 15.6127 10.3572 15.5736C10.5359 15.5345 10.6984 15.442 10.8233 15.3084C10.9525 15.1272 11.0643 14.9341 11.1572 14.7319C11.2937 14.419 11.3473 14.0763 11.3129 13.7368C11.2785 13.3972 11.1572 13.0722 10.9608 12.7931L10.9598 12.7921ZM12.7631 12.8373C12.5075 13.2054 12.3822 13.6484 12.4069 14.0958C12.4317 14.5433 12.605 14.9697 12.8996 15.3074C13.0266 15.4324 13.1864 15.5191 13.3605 15.5573C13.5345 15.5956 13.7159 15.584 13.8836 15.5237C14.0514 15.4635 14.1988 15.3571 14.3087 15.2169C14.4187 15.0766 14.4869 14.9082 14.5054 14.7309C14.501 14.5103 14.4491 14.2932 14.3532 14.0945C14.208 13.7728 13.9878 13.4907 13.7109 13.2719C13.434 13.0531 13.1086 12.9041 12.7621 12.8373H12.7631Z" fill="#22C55E"/>
</svg>
