<svg width="24" height="24" viewBox="0 0 24 24" fill="none" xmlns="http://www.w3.org/2000/svg">
<path fill-rule="evenodd" clip-rule="evenodd" d="M13.5431 3.59156L16.4942 6.67096L5.82737 6.07943L11.2743 3.2369C11.5216 3.08207 11.9046 3.00003 12.2952 3.00003C12.7492 3.00003 13.2856 3.3216 13.5431 3.59156ZM5.82611 15.671C5.82611 16.6211 5.94025 16.854 6.39299 17.3291L6.847 17.8028L6.84701 17.8029L9.91096 21H17.0611L17.0611 17.8029L17.0611 17.8028L12.0682 11.8823L5.82611 6.07943V15.671Z" fill="#38BDF8"/>
<path fill-rule="evenodd" clip-rule="evenodd" d="M5.8261 6.07815H14.9051C15.5303 6.07815 15.9831 6.13638 16.4929 6.66968L20.125 10.4597V17.8016H17.061L5.8261 6.07815ZM3.44188 14.2497L6.39298 17.3291L5.82609 6.07943L3.10201 12C3.00436 12.2144 2.875 12.5889 2.875 12.8284C2.875 13.3459 3.09186 13.8752 3.44188 14.2497Z" fill="#075985"/>
</svg>
