<svg width="24" height="24" viewBox="0 0 24 24" fill="none" xmlns="http://www.w3.org/2000/svg">
<path d="M20.8943 10.5301C20.8423 10.4862 20.3571 10.0959 19.3337 10.0959C19.0635 10.0971 18.7938 10.1218 18.5273 10.1697C18.3293 8.72367 17.2069 8.01865 17.1565 7.98703L16.8817 7.81823L16.701 8.09602C16.4747 8.46919 16.3094 8.88055 16.2124 9.31263C16.0292 10.1381 16.1406 10.9134 16.5343 11.5762C16.0589 11.8584 15.2963 11.9278 15.142 11.934H2.51665C2.18688 11.9344 1.91929 12.2183 1.91749 12.5695C1.90277 13.7476 2.09016 14.9187 2.47044 16.0251C2.90536 17.2399 3.5524 18.1348 4.39421 18.6824C5.33752 19.2978 6.87009 19.6494 8.60733 19.6494C9.39214 19.652 10.1755 19.5764 10.9471 19.4235C12.0196 19.2137 13.0517 18.8144 14.0007 18.242C14.7825 17.7597 15.4862 17.1462 16.0845 16.425C17.0848 15.219 17.6807 13.8757 18.1238 12.682H18.3004C19.3956 12.682 20.0691 12.2152 20.4404 11.8241C20.6872 11.5746 20.8799 11.2707 21.0049 10.9336L21.0834 10.6892L20.8943 10.5301Z" fill="#60A5FA"/>
<path d="M3.68696 11.5401H5.37882C5.46042 11.5401 5.52654 11.4697 5.52654 11.3828V9.77764C5.52699 9.69072 5.46122 9.6199 5.37965 9.61941C5.37938 9.61941 5.37909 9.61941 5.37882 9.61941H3.68696C3.60537 9.61941 3.53925 9.68987 3.53925 9.77675V9.77764V11.3828C3.53925 11.4697 3.60537 11.5401 3.68696 11.5401Z" fill="#60A5FA"/>
<path d="M6.01839 11.5401H7.71024C7.79184 11.5401 7.85796 11.4697 7.85796 11.3828V9.77764C7.85842 9.69072 7.79265 9.6199 7.71105 9.61941C7.71078 9.61941 7.71048 9.61941 7.71022 9.61941H6.01836C5.93631 9.61941 5.86981 9.69024 5.86981 9.77764V11.3828C5.87029 11.4698 5.93666 11.5401 6.01839 11.5401Z" fill="#60A5FA"/>
<path d="M8.38529 11.5401H10.0771C10.1587 11.5401 10.2249 11.4697 10.2249 11.3828V9.77764C10.2253 9.69072 10.1596 9.6199 10.078 9.61941C10.0777 9.61941 10.0774 9.61941 10.0771 9.61941H8.38527C8.30367 9.61941 8.23755 9.68987 8.23755 9.77675V9.77764V11.3828C8.23758 11.4697 8.30372 11.5401 8.38529 11.5401Z" fill="#60A5FA"/>
<path d="M10.7242 11.5401H12.416C12.4978 11.5401 12.5641 11.4699 12.5646 11.3828V9.77764C12.5646 9.69024 12.4981 9.61941 12.416 9.61941H10.7242C10.6426 9.61941 10.5765 9.68987 10.5765 9.77675V9.77764V11.3828C10.5765 11.4697 10.6426 11.5401 10.7242 11.5401Z" fill="#60A5FA"/>
<path d="M6.01836 9.23085H7.71022C7.79192 9.23037 7.85793 9.15966 7.85793 9.07263V7.46749C7.85793 7.38057 7.79179 7.31015 7.71022 7.31015H6.01836C5.93666 7.31015 5.87027 7.38043 5.86981 7.46749V9.07263C5.87027 9.15983 5.9365 9.23037 6.01836 9.23085Z" fill="#60A5FA"/>
<path d="M8.38533 9.23085H10.0772C10.1589 9.23037 10.2249 9.15966 10.2249 9.07263V7.46749C10.2249 7.38057 10.1588 7.31015 10.0772 7.31015H8.38533C8.30373 7.31015 8.23761 7.3806 8.23761 7.46749V9.07263C8.23761 9.15966 8.30362 9.23037 8.38533 9.23085Z" fill="#60A5FA"/>
<path d="M10.7242 9.23085H12.416C12.4979 9.23037 12.5641 9.15983 12.5646 9.07263V7.46749C12.5641 7.38043 12.4978 7.31015 12.416 7.31015H10.7242C10.6426 7.31015 10.5765 7.3806 10.5765 7.46749V9.07263C10.5765 9.15966 10.6425 9.23037 10.7242 9.23085Z" fill="#60A5FA"/>
<path d="M10.7242 6.92074H12.416C12.4978 6.92074 12.5641 6.85042 12.5646 6.7634V5.15734C12.5641 5.07028 12.4978 5 12.416 5H10.7242C10.6426 5 10.5765 5.07043 10.5765 5.15734V6.76337C10.5765 6.85028 10.6426 6.92074 10.7242 6.92074Z" fill="#60A5FA"/>
<path d="M13.0838 11.5401H14.7756C14.8573 11.5401 14.9237 11.4699 14.9242 11.3828V9.77764C14.9242 9.69024 14.8577 9.61941 14.7756 9.61941H13.0838C13.0022 9.61941 12.936 9.68987 12.936 9.77675V9.77764V11.3828C12.936 11.4697 13.0022 11.5401 13.0838 11.5401Z" fill="#60A5FA"/>
</svg>
