<svg width="24" height="24" viewBox="0 0 24 24" fill="none" xmlns="http://www.w3.org/2000/svg">
<path d="M7.01479 11.416C7.2309 11.0388 7.09849 10.5613 6.71903 10.3493C6.33958 10.1374 5.85678 10.2713 5.64067 10.6484L3.10387 15.0751C2.88776 15.4522 3.02018 15.9297 3.39964 16.1417C3.77909 16.3536 4.26189 16.2197 4.478 15.8426L7.01479 11.416Z" fill="#22C55E"/>
<path d="M12.4827 8.02177C12.6988 7.64466 12.5664 7.16713 12.1869 6.95517C11.8075 6.74321 11.3247 6.87708 11.1086 7.25419L8.57179 11.6809C8.35568 12.058 8.48809 12.5355 8.86755 12.7475C9.247 12.9594 9.7298 12.8256 9.94591 12.4485L12.4827 8.02177Z" fill="#22C55E"/>
<path d="M20.8964 8.02194C21.1125 7.64483 20.9801 7.16729 20.6006 6.95533C20.2212 6.74337 19.7384 6.87725 19.5222 7.25435L16.9854 11.681C16.7693 12.0581 16.9018 12.5357 17.2812 12.7476C17.6607 12.9596 18.1435 12.8257 18.3596 12.4486L20.8964 8.02194Z" fill="#22C55E"/>
<path d="M15.4272 11.416C15.6433 11.0388 15.5108 10.5613 15.1314 10.3493C14.7519 10.1374 14.2691 10.2713 14.053 10.6484L11.5162 15.0751C11.3001 15.4522 11.4325 15.9297 11.812 16.1417C12.1914 16.3536 12.6742 16.2197 12.8904 15.8426L15.4272 11.416Z" fill="#22C55E"/>
</svg>
