<svg width="24" height="24" viewBox="0 0 24 24" fill="none" xmlns="http://www.w3.org/2000/svg">
<path fill-rule="evenodd" clip-rule="evenodd" d="M13.1995 6.90042C14.5437 8.42209 14.5747 10.0433 13.2931 11.8016C11.8957 13.7185 11.6935 14.0976 11.6935 14.7985C11.6935 15.6433 12.2018 16.3845 13.3259 17.1788L14.122 17.7413H17.358C19.6493 17.7413 20.6532 17.6824 20.797 17.5395C20.9427 17.3947 21.0001 16.2857 21.0001 13.6129V9.8881L20.0271 8.96783C18.3425 7.37435 16.5952 6.62764 13.9812 6.38429L12.6325 6.25866L13.1995 6.90042ZM10.9685 8.04504C9.60685 10.0119 7.14671 11.171 4.31482 11.1795C3.53375 11.1819 3.31411 11.245 3.17265 11.5076C2.94253 11.9352 2.94253 16.9885 3.17265 17.4161C3.33865 17.7242 3.56827 17.7413 7.52066 17.7413H11.6935L11.1717 17.1947C10.3196 16.3022 10.0583 15.6297 10.138 14.5342C10.2109 13.5323 10.2642 13.4302 11.8179 11.3233C12.766 10.0376 12.8775 9.061 12.1941 8.02906C11.9338 7.63603 11.6653 7.31431 11.5976 7.31431C11.5297 7.31431 11.2467 7.6431 10.9685 8.04504Z" fill="#EA580C"/>
</svg>
