<svg width="24" height="24" viewBox="0 0 24 24" fill="none" xmlns="http://www.w3.org/2000/svg">
<path d="M19.8005 11.1983L12.2682 3.33948C11.8348 2.88684 11.1313 2.88684 10.6974 3.33948L9.13338 4.97163L11.1173 7.04176C11.5785 6.87927 12.1071 6.98822 12.4745 7.37173C12.8439 7.75763 12.9476 8.31395 12.7879 8.79682L14.7001 10.7921C15.1626 10.6257 15.6964 10.7332 16.0658 11.1193C16.5822 11.658 16.5822 12.531 16.0658 13.0698C15.5493 13.6089 14.7127 13.6089 14.1959 13.0698C13.8076 12.6643 13.7116 12.069 13.9082 11.5697L12.125 9.70896L12.1248 14.6056C12.2507 14.6706 12.3696 14.7574 12.4745 14.8664C12.9907 15.4051 12.9907 16.2779 12.4745 16.8174C11.958 17.3561 11.1211 17.3561 10.6052 16.8174C10.0889 16.2779 10.0889 15.4051 10.6052 14.8664C10.7328 14.7335 10.8805 14.6329 11.038 14.5655V9.62334C10.8804 9.55619 10.7329 9.45633 10.6051 9.32235C10.214 8.91455 10.1198 8.31557 10.3204 7.8144L8.36469 5.77334L3.20044 11.162C2.76652 11.615 2.76652 12.349 3.20044 12.8017L10.7323 20.6605C11.1659 21.1132 11.8691 21.1132 12.3034 20.6605L19.8004 12.8388C20.2341 12.386 20.2341 11.6517 19.8004 11.1989" fill="#F87171"/>
</svg>
