<svg width="24" height="24" viewBox="0 0 24 24" fill="none" xmlns="http://www.w3.org/2000/svg">
<path fill-rule="evenodd" clip-rule="evenodd" d="M11.5 2.2467C6.20517 2.2467 1.91663 6.7217 1.91663 12.2467C1.91663 16.6717 4.65985 20.4092 8.46923 21.7342C8.9484 21.8217 9.12808 21.5217 9.12808 21.2592C9.12808 21.0217 9.11611 20.2342 9.11611 19.3967C6.70829 19.8592 6.08538 18.7842 5.89371 18.2217C5.7859 17.9342 5.31871 17.0467 4.91142 16.8092C4.576 16.6217 4.09683 16.1592 4.89944 16.1467C5.65413 16.1342 6.19319 16.8717 6.37288 17.1717C7.23538 18.6842 8.61298 18.2592 9.16402 17.9967C9.24788 17.3467 9.49944 16.9092 9.77496 16.6592C7.64267 16.4092 5.41454 15.5467 5.41454 11.7217C5.41454 10.6342 5.7859 9.7342 6.39683 9.0342C6.301 8.7842 5.96558 7.7592 6.49267 6.3842C6.49267 6.3842 7.29527 6.1217 9.12808 7.4092C9.89475 7.1842 10.7093 7.0717 11.5239 7.0717C12.3385 7.0717 13.1531 7.1842 13.9198 7.4092C15.7526 6.1092 16.5552 6.3842 16.5552 6.3842C17.0823 7.7592 16.7468 8.7842 16.651 9.0342C17.2619 9.7342 17.6333 10.6217 17.6333 11.7217C17.6333 15.5592 15.3932 16.4092 13.2609 16.6592C13.6083 16.9717 13.9078 17.5717 13.9078 18.5092C13.9078 19.8467 13.8958 20.9217 13.8958 21.2592C13.8958 21.5217 14.0755 21.8342 14.5546 21.7342C16.4571 21.064 18.1103 19.7882 19.2814 18.0862C20.4526 16.3843 21.0828 14.342 21.0833 12.2467C21.0833 6.7217 16.7948 2.2467 11.5 2.2467Z" fill="#71717A"/>
</svg>
