<svg width="24" height="24" viewBox="0 0 24 24" fill="none" xmlns="http://www.w3.org/2000/svg">
<path d="M11.0409 3.84171C11.4562 3.10583 12.5176 3.10583 12.933 3.84171L15.1095 7.69863C15.3788 8.17587 15.8426 8.5123 16.3799 8.62059L20.7252 9.49626C21.5548 9.66343 21.8816 10.6709 21.3098 11.2922L18.3098 14.5516C18.1264 14.7508 17.9881 14.9872 17.9043 15.2447C17.8206 15.5023 17.7933 15.7748 17.8244 16.0438L18.3333 20.4419C18.4303 21.28 17.5726 21.9039 16.8027 21.552L12.7719 19.7094C12.5255 19.5968 12.2578 19.5385 11.9869 19.5385C11.716 19.5385 11.4483 19.5968 11.202 19.7094L7.17125 21.552C6.40125 21.9038 5.54367 21.28 5.64057 20.4419L6.1495 16.0438C6.21249 15.4995 6.03525 14.9548 5.66409 14.5516L2.66401 11.2922C2.0922 10.671 2.41911 9.66344 3.24868 9.49626L7.59393 8.62059C8.13126 8.5123 8.59503 8.17587 8.86432 7.69863L11.0409 3.84171Z" fill="#F472B6"/>
<path d="M11.9868 2.90228C11.4792 2.90228 10.9715 3.14982 10.6921 3.64494L8.51553 7.50186C8.30333 7.87789 7.93836 8.14271 7.51474 8.22808L3.16949 9.10374C2.05447 9.32845 1.59987 10.7275 2.36929 11.5634L5.36938 14.8228C5.51385 14.9796 5.62279 15.1658 5.68875 15.3686C5.75472 15.5713 5.77616 15.786 5.75162 15.9978L5.24271 20.3959C5.11214 21.5242 6.30257 22.3892 7.3376 21.9162L7.33762 21.9161L11.3684 20.0736L11.3685 20.0736C11.5625 19.9848 11.7735 19.9388 11.9869 19.9388C12.2003 19.9388 12.4112 19.9848 12.6053 20.0736L12.6053 20.0736L16.6361 21.9161C17.6711 22.3893 18.8616 21.5243 18.7309 20.3959L18.7309 20.3959L18.2221 15.9978V15.9978C18.1975 15.7859 18.219 15.5713 18.2849 15.3685C18.3509 15.1658 18.4598 14.9796 18.6043 14.8228L18.6043 14.8227L21.6043 11.5633V11.5633C22.3737 10.7273 21.9192 9.32831 20.8041 9.10356L16.4589 8.2279C16.0353 8.14254 15.6703 7.87771 15.4581 7.50171L13.2815 3.64469C13.0021 3.14959 12.4944 2.90205 11.9867 2.90205M11.9867 3.67716C12.2174 3.67716 12.4482 3.79755 12.5841 4.03834L14.7606 7.89526C15.0871 8.47373 15.6497 8.88178 16.3006 9.01298L20.6459 9.88864C21.19 9.9983 21.3892 10.6143 21.015 11.0209L18.015 14.2803C17.5652 14.769 17.3501 15.43 17.4264 16.0897L17.9353 20.4878C17.9987 21.0355 17.4739 21.4185 16.969 21.1876H16.969L12.9382 19.3451C12.3342 19.0689 11.6393 19.0689 11.0352 19.3451L7.00449 21.1877C6.49948 21.4184 5.97477 21.0355 6.03809 20.4879L6.54702 16.0898C6.62338 15.4299 6.40827 14.769 5.95845 14.2803L2.95837 11.0209C2.58418 10.6144 2.78342 9.9984 3.32751 9.88868L7.67277 9.01299C8.3238 8.88179 8.88639 8.47375 9.21285 7.89527V7.89525L11.3894 4.03833C11.5253 3.79756 11.756 3.67717 11.9867 3.67717" fill="#151515"/>
<path d="M10.7665 14.5311L10.7665 14.5311C10.7513 14.4537 10.7514 14.3741 10.767 14.2968C10.7826 14.2195 10.8132 14.146 10.8572 14.0805C10.9012 14.0151 10.9576 13.9589 11.0233 13.9153C11.0889 13.8716 11.1626 13.8413 11.2399 13.8261L10.7665 14.5311ZM10.7665 14.5311C10.798 14.6914 10.8607 14.8439 10.9512 14.98L10.9512 14.98M10.7665 14.5311L10.9512 14.98M10.9512 14.98C11.0416 15.1161 11.1581 15.233 11.2938 15.3241M10.9512 14.98L11.2938 15.3241M12.1891 14.4266C12.2068 14.4002 12.2191 14.3706 12.2254 14.3395C12.2357 14.2879 12.2561 14.2389 12.2854 14.1952C12.3147 14.1516 12.3523 14.1141 12.3961 14.0849C12.4398 14.0558 12.4889 14.0355 12.5405 14.0254L12.1891 14.4266ZM12.1891 14.4266C12.1713 14.4531 12.1483 14.4761 12.1218 14.4937L12.1891 14.4266ZM12.0293 14.3001C12.0448 14.2228 12.0754 14.1493 12.1193 14.0838C12.1632 14.0184 12.2196 13.9622 12.2852 13.9185C12.3508 13.8747 12.4244 13.8444 12.5018 13.8291C12.5792 13.8139 12.6588 13.814 12.7361 13.8295L12.7361 13.8295C12.8922 13.8609 13.0295 13.9529 13.1178 14.0855C13.206 14.218 13.238 14.3802 13.2067 14.5363C13.1745 14.6967 13.111 14.849 13.0198 14.9848C13.0198 14.9848 13.0198 14.9848 13.0198 14.9848L12.8538 14.8733L12.0293 14.3001ZM12.0293 14.3001C12.0282 14.3054 12.0261 14.3105 12.0231 14.315L12.0229 14.3152C12.0197 14.3201 12.0154 14.3243 12.0111 14.3272C12.0064 14.3303 12.0012 14.3324 11.9958 14.3335L11.9956 14.3335C11.9898 14.3346 11.9838 14.3346 11.9784 14.3335L12.0293 14.3001ZM11.4052 15.158C11.519 15.2344 11.6467 15.2877 11.781 15.3147C11.9154 15.3417 12.054 15.342 12.1884 15.3156L11.1177 14.8693C11.1936 14.9834 11.2914 15.0816 11.4052 15.158ZM11.4052 15.158L11.2938 15.3241M11.4052 15.158L11.2937 15.324C11.2938 15.324 11.2938 15.324 11.2938 15.3241M11.2938 15.3241C11.4293 15.415 11.5815 15.4785 11.7415 15.5108L11.7417 15.5108C11.9017 15.5429 12.0668 15.5433 12.227 15.5119L11.2938 15.3241ZM11.9448 14.2996C11.9459 14.3051 11.9481 14.3105 11.9513 14.3152L11.7847 14.4259L11.9448 14.2996ZM11.9448 14.2996C11.9296 14.2222 11.8993 14.1486 11.8557 14.083M11.9448 14.2996L11.8557 14.083M11.8557 14.083C11.8121 14.0173 11.7559 13.9609 11.6905 13.9169M11.8557 14.083L11.6905 13.9169M11.6905 13.9169C11.625 13.8729 11.5515 13.8423 11.4742 13.8267M11.6905 13.9169L11.4742 13.8267M11.4742 13.8267C11.3969 13.8111 11.3173 13.8109 11.2399 13.8261L11.4742 13.8267ZM8.76899 13.958C9.31386 13.958 9.75556 13.5163 9.75556 12.9714C9.75556 12.4266 9.31386 11.9849 8.76899 11.9849C8.22412 11.9849 7.78242 12.4266 7.78242 12.9714C7.78242 13.5163 8.22412 13.958 8.76899 13.958ZM15.2043 13.958C15.7492 13.958 16.1909 13.5163 16.1909 12.9714C16.1909 12.4266 15.7492 11.9849 15.2043 11.9849C14.6595 11.9849 14.2178 12.4266 14.2178 12.9714C14.2178 13.5163 14.6595 13.958 15.2043 13.958Z" fill="#151515" stroke="black" stroke-width="0.4"/>
</svg>
