<svg width="24" height="24" viewBox="0 0 24 24" fill="none" xmlns="http://www.w3.org/2000/svg">
<path fill-rule="evenodd" clip-rule="evenodd" d="M11.5292 5.5637C11.6953 5.5637 11.8559 5.53894 12.0077 5.49277L17.1692 14.8215C16.9379 15.0525 16.7688 15.3507 16.6905 15.686H6.36681C6.28864 15.351 6.1197 15.053 5.88871 14.8221L11.0506 5.49277C11.2024 5.53894 11.363 5.5637 11.5292 5.5637ZM6.36679 16.532C6.36084 16.5575 6.35436 16.5828 6.34737 16.6079L10.2953 18.9863C10.6062 18.6474 11.044 18.4363 11.5292 18.4363C12.0143 18.4363 12.4521 18.6474 12.763 18.9863L16.7101 16.6084C16.703 16.5832 16.6965 16.5577 16.6905 16.532H6.36679ZM9.88953 19.7187L5.9418 17.3404C5.63091 17.6796 5.1929 17.8908 4.7076 17.8908C3.76452 17.8908 3 17.0931 3 16.109C3 15.2703 3.55531 14.5669 4.30319 14.3774V9.62248C3.55531 9.43296 3 8.7296 3 7.8909C3 6.90681 3.76452 6.10905 4.7076 6.10905C5.1929 6.10905 5.63092 6.3203 5.94181 6.65947L9.88951 4.28118C9.84527 4.12274 9.82155 3.95519 9.82155 3.78185C9.82155 2.79776 10.5861 2 11.5292 2C12.4722 2 13.2368 2.79776 13.2368 3.78185C13.2368 3.95519 13.213 4.12275 13.1688 4.28118L17.1159 6.6591C17.4267 6.32014 17.8646 6.10905 18.3497 6.10905C19.2928 6.10905 20.0573 6.90681 20.0573 7.8909C20.0573 8.72923 19.5025 9.43235 18.7551 9.62223V14.3777C19.5025 14.5675 20.0573 15.2707 20.0573 16.109C20.0573 17.0931 19.2928 17.8908 18.3497 17.8908C17.8646 17.8908 17.4267 17.6798 17.1159 17.3408L13.1688 19.7187C13.213 19.8772 13.2368 20.0448 13.2368 20.2182C13.2368 21.2022 12.4722 22 11.5292 22C10.5861 22 9.82155 21.2022 9.82155 20.2182C9.82155 20.0448 9.84528 19.8772 9.88953 19.7187ZM5.11396 9.62199C5.86086 9.43174 6.41521 8.72887 6.41521 7.8909C6.41521 7.71773 6.39154 7.55033 6.34738 7.39204L10.2953 5.01362C10.3127 5.0326 10.3305 5.05118 10.3487 5.06935L5.18699 14.3983C5.16287 14.391 5.13851 14.3842 5.11396 14.3779V9.62199ZM17.8712 14.3981C17.8953 14.3907 17.9197 14.3839 17.9443 14.3777V9.62223C17.1969 9.43235 16.6421 8.72923 16.6421 7.8909C16.6421 7.71755 16.6658 7.54998 16.7101 7.39153L12.763 5.01363C12.7456 5.03261 12.7278 5.05119 12.7096 5.06935L17.8712 14.3981Z" fill="#F472B6"/>
</svg>
