<svg width="24" height="24" viewBox="0 0 24 24" fill="none" xmlns="http://www.w3.org/2000/svg">
<path fill-rule="evenodd" clip-rule="evenodd" d="M11.3571 1.89456H11.371L11.3833 1.89472H11.4541L11.4665 1.89524H11.468L11.4804 1.89576H11.4817L11.4942 1.89629H11.4952L11.5077 1.89681H11.5092L11.5212 1.89733H11.5228L11.5348 1.89785H11.5358L11.5483 1.89838H11.5498L11.5623 1.89942H11.5638L11.5758 1.90046H11.5768L11.5888 1.90151H11.5903L11.6028 1.90255H11.6038L11.6159 1.9036H11.6174L11.6299 1.90464H11.6314L11.6439 1.90569H11.6454L11.6579 1.90673H11.6594L11.6714 1.90778H11.6729L11.6849 1.90882H11.6864L11.699 1.90987H11.7005L11.713 1.91143H11.7145L11.727 1.913H11.728L11.74 1.91457H11.7415L11.7535 1.91614H11.755L11.7675 1.9177H11.769L11.7816 1.91927H11.7826L11.7946 1.92084H11.7961L11.8086 1.9224H11.8101L11.8221 1.92449L11.8236 1.92502L11.8361 1.9271H11.8376L11.8496 1.92919H11.8506L11.8632 1.93128H11.8647L11.8767 1.93337H11.8782L11.8902 1.93546H11.8912L11.9037 1.93755H11.9052L11.9172 1.93964L11.9187 1.94016L11.9307 1.94225L11.9322 1.94278L11.9443 1.94539H11.9458L11.9578 1.94748H11.9593L11.9713 1.95009H11.9728L11.9853 1.9527H11.9863L11.9983 1.95531H11.9998L12.0118 1.95792H12.0128L12.0254 1.96054L12.0269 1.96106L12.0394 1.96367H12.0404L12.0524 1.9668L12.0539 1.96733L12.0659 1.97046H12.0674L12.0799 1.9736L12.0809 1.97412L12.0929 1.97673L12.0944 1.97725L12.1064 1.97986L12.1074 1.98039L12.1195 1.98352H12.121L12.133 1.98665L12.1345 1.98718L12.1465 1.99031L12.1475 1.99083L12.16 1.99397L12.161 1.99449L12.173 1.99762L12.1745 1.99815L12.1865 2.00128H12.1875L12.1996 2.00494H12.2011L12.2136 2.00807L12.2151 2.00859L12.2271 2.01173H12.2286L12.2406 2.01538L12.2421 2.01591L12.2541 2.01956L12.2556 2.02009L12.2676 2.02374L12.2691 2.02426L12.2812 2.02792L12.2822 2.02844L12.2942 2.0321L12.2957 2.03262L12.3077 2.03628L12.3092 2.0368L12.3212 2.04046L12.3227 2.04098L12.3347 2.04516L12.3357 2.04568L12.3477 2.04986H12.3492L12.3613 2.05404H12.3628L12.3748 2.05822L12.3763 2.05874L12.3883 2.06292L12.3898 2.06344L12.4018 2.06762L12.4028 2.06814L12.4148 2.07232L12.4163 2.07284L12.4283 2.07702L12.4293 2.07755L12.4413 2.08172L12.4423 2.08225L12.4539 2.08643L12.4554 2.08695L12.4669 2.09113L12.4684 2.09165L12.4799 2.09635L12.4814 2.09687L12.4934 2.10157L12.4949 2.1021L12.5064 2.1068L12.5074 2.10732L12.5194 2.1115L12.5204 2.11202L12.5325 2.11672L12.534 2.11724L12.546 2.12195L12.5475 2.12247L12.559 2.12717L12.5605 2.12769L12.572 2.13292L12.573 2.13344L12.585 2.13814L12.5865 2.13866L12.598 2.14388L12.5995 2.14441L12.6115 2.14963L12.6131 2.15015L12.6251 2.15538L12.6261 2.1559L12.6381 2.16112L12.6391 2.16165L12.6506 2.16687L12.6516 2.16739L12.6631 2.17261L12.6641 2.17314L12.6761 2.17836L12.6771 2.17888L12.6886 2.18411L12.6901 2.18463L12.7017 2.18985L12.7032 2.19038L12.7147 2.1956L12.7157 2.19612L12.7272 2.20187L12.7287 2.20239L12.7402 2.20814L12.7417 2.20866L12.7532 2.2144L12.7542 2.21493L12.7657 2.22067L12.7667 2.22119L12.7782 2.22694L12.7797 2.22746L12.7913 2.23321L12.7928 2.23373L12.8043 2.23948L12.8058 2.24L12.8173 2.24575L12.8183 2.24627L12.8298 2.25254L12.8308 2.25358L12.8423 2.25933L12.8433 2.25985L12.8543 2.26612L12.8558 2.26664L12.8674 2.27239L12.8684 2.27291L12.8799 2.27918L12.8814 2.2797L12.8924 2.28597L12.8939 2.28701L12.9054 2.29328L12.9069 2.2938L12.9184 2.30007L12.9194 2.30059L12.9304 2.30686L12.9319 2.30791L12.9434 2.31417L12.9444 2.31522L12.9555 2.32201L12.9565 2.32305L12.9675 2.32985L12.969 2.33037L12.98 2.33716L12.981 2.33768L12.992 2.34447L12.993 2.34552L13.004 2.35231L13.0055 2.35335L13.016 2.36014H13.017L18.6888 5.8375L18.6983 5.84325L18.6993 5.84429L18.7088 5.85004L18.7103 5.85056L18.7193 5.85683L18.7203 5.85787L18.7293 5.86362L18.7303 5.86466L18.7394 5.87041L18.7404 5.87093L18.7494 5.87668L18.7504 5.8772L18.7594 5.88295L18.7604 5.88347L18.7694 5.88922L18.7709 5.88974L18.7799 5.89601L18.7809 5.89653L18.7899 5.9028L18.7914 5.90332L18.8004 5.90907L18.8014 5.90959L18.8104 5.91586L18.8114 5.9169L18.8204 5.92317L18.8214 5.92421L18.83 5.92996L18.8315 5.93048L18.8405 5.93675L18.8415 5.93727L18.8505 5.94354L18.8515 5.94406L18.86 5.95033L18.861 5.95085L18.8695 5.95712L18.8705 5.95764L18.879 5.96391L18.88 5.96496L18.8885 5.97123L18.8895 5.97175L18.898 5.97854L18.8995 5.97958L18.9081 5.98585L18.9091 5.98637L18.9176 5.99264L18.9186 5.99317L18.9271 5.99943L18.9281 6.00048L18.9366 6.00675L18.9376 6.00727L18.9461 6.01354L18.9471 6.01458L18.9556 6.02085L18.9566 6.0219L18.9651 6.02869L18.9666 6.02973L18.9746 6.03652L18.9761 6.03757L18.9846 6.04436L18.9861 6.04488L18.9947 6.05167L18.9957 6.05271L19.0042 6.05951L19.0052 6.06055L19.0132 6.06734L19.0147 6.06839L19.0232 6.0757L19.0247 6.07727L19.0407 6.09085L19.0427 6.09241L19.0587 6.10652L19.0607 6.10808L19.0773 6.12219L19.0793 6.12376L19.0958 6.13786L19.0978 6.13943L19.1138 6.15353L19.1158 6.15562L19.1318 6.16972L19.1338 6.17129L19.1493 6.18592L19.1513 6.18748L19.1669 6.20211L19.1689 6.20368L19.1844 6.21883L19.1864 6.22039L19.2014 6.23502L19.2034 6.23659L19.2189 6.25173L19.2209 6.25382L19.2359 6.26897L19.2379 6.27106L19.253 6.28621L19.255 6.2883L19.2695 6.30345L19.2715 6.30554L19.286 6.32121L19.288 6.3233L19.3025 6.33897L19.304 6.34106L19.3185 6.35673L19.3205 6.35882L19.3346 6.37449L19.3366 6.37658L19.3506 6.39225L19.3526 6.39434L19.3666 6.41001L19.3686 6.4121L19.3826 6.42829L19.3846 6.43038L19.3981 6.4471L19.3996 6.44919L19.4137 6.46538L19.4157 6.46747L19.4292 6.48419L19.4312 6.48627L19.4447 6.50299L19.4462 6.50508L19.4597 6.5218L19.4617 6.52388L19.4747 6.5406L19.4762 6.54269L19.4892 6.55941L19.4912 6.56149L19.5043 6.57873L19.5058 6.58082L19.5183 6.59806L19.5198 6.60015L19.5323 6.61739L19.5338 6.61948L19.5463 6.63671L19.5478 6.63933L19.5603 6.65709L19.5618 6.65918L19.5743 6.67641L19.5758 6.67903L19.5879 6.69679L19.5894 6.69888L19.6014 6.71664L19.6029 6.71873L19.6149 6.73649L19.6164 6.7391L19.6279 6.75686L19.6294 6.75947L19.6409 6.77775L19.6424 6.78036L19.6534 6.79812L19.6549 6.80021L19.666 6.81797L19.6675 6.82006L19.679 6.83835L19.6805 6.84044L19.6915 6.85872L19.693 6.86133L19.7035 6.87961L19.705 6.88222L19.716 6.90051L19.7175 6.90312L19.728 6.9214L19.7295 6.92401L19.74 6.94282L19.7415 6.94491L19.7516 6.96371L19.7531 6.96632L19.7631 6.98513L19.7646 6.98774L19.7746 7.00655L19.7761 7.00916L19.7861 7.02796L19.7871 7.03058L19.7971 7.0499L19.7981 7.05251L19.8076 7.07184L19.8086 7.07445L19.8181 7.09378L19.8196 7.09587L19.8286 7.11572L19.8296 7.11833L19.8392 7.13766L19.8402 7.14027L19.8492 7.1596L19.8507 7.16221L19.8592 7.18206L19.8602 7.18467L19.8687 7.20452L19.8697 7.20713L19.8782 7.22698L19.8792 7.22959L19.8877 7.24944L19.8887 7.25206L19.8967 7.27191L19.8977 7.27452L19.9057 7.29437L19.9067 7.29698L19.9142 7.31735L19.9153 7.31996L19.9228 7.33981L19.9238 7.34242L19.9313 7.3628L19.9323 7.36541L19.9398 7.38578L19.9408 7.38839L19.9483 7.40876L19.9493 7.41138L19.9563 7.43175L19.9573 7.43436L19.9638 7.45473L19.9648 7.45734L19.9713 7.47772L19.9723 7.48033L19.9788 7.5007L19.9798 7.50331L19.9863 7.52421L19.9868 7.52682L19.9928 7.54719L19.9938 7.5498L19.9999 7.5707L20.0004 7.57331L20.0064 7.5942L20.0074 7.59681L20.0134 7.61771L20.0144 7.62032L20.0199 7.64122L20.0209 7.64383L20.0264 7.66472L20.0269 7.66733L20.0319 7.68823L20.0329 7.69136L20.0384 7.71278L20.0389 7.71539L20.0439 7.73681L20.0449 7.73942L20.0494 7.76084L20.0504 7.76345L20.0554 7.78487L20.0559 7.788L20.0604 7.80942L20.0609 7.81203L20.0654 7.83344L20.0659 7.83606L20.0699 7.85747L20.0704 7.86009L20.0744 7.8815L20.0749 7.88411L20.0789 7.90553L20.0794 7.90814L20.083 7.93008L20.0835 7.93269L20.087 7.95411L20.0875 7.95724L20.091 7.97918L20.0915 7.98232L20.0945 8.00426L20.095 8.00739L20.098 8.02881V8.0309L20.0995 8.04239V8.04343L20.1005 8.0544V8.05597L20.102 8.06694V8.06798L20.1035 8.07895V8.08052L20.105 8.09149L20.1055 8.09306L20.107 8.10403V8.10559L20.108 8.11656L20.1085 8.11761L20.1095 8.12858L20.11 8.13015L20.111 8.14112V8.14268L20.112 8.15365L20.1125 8.15522L20.1135 8.16619L20.114 8.16776L20.115 8.17873V8.18029L20.116 8.19126V8.19283L20.117 8.2038V8.20537L20.118 8.21634V8.2179L20.119 8.22887V8.23044L20.1195 8.24141V8.24298L20.12 8.25447V8.25603L20.121 8.26753V8.26857L20.1215 8.27954V8.28111L20.122 8.29208V8.29364L20.1225 8.30462V8.30618L20.123 8.31715V8.31872L20.1235 8.33021V8.33178L20.124 8.34275V8.34431L20.1245 8.35528V8.35633L20.125 8.3673V15.6595L20.1245 15.6715V15.6866L20.124 15.6986V15.7002L20.1235 15.7117V15.7127L20.123 15.7248V15.7263L20.1225 15.7378V15.7389L20.122 15.7504V15.7519L20.1215 15.7634L20.121 15.765L20.1205 15.7765V15.778L20.12 15.7895V15.7906L20.1195 15.8026V15.8042L20.1185 15.8162V15.8172L20.1175 15.8292V15.8308L20.1165 15.8423V15.8439L20.116 15.8553V15.8569L20.115 15.8684V15.87L20.114 15.8815V15.883L20.113 15.8945V15.8961L20.112 15.9076L20.1115 15.9086L20.1105 15.9206L20.11 15.9222L20.109 15.9337V15.9353L20.108 15.9468L20.1075 15.9483L20.106 15.9598V15.9614L20.1045 15.9729V15.9739L20.103 15.9854V15.987L20.1015 15.9985L20.101 16L20.0995 16.0121L20.099 16.0136L20.0975 16.0251L20.097 16.0267L20.0955 16.0382V16.0397L20.094 16.0512V16.0528L20.0925 16.0643L20.092 16.0659L20.0905 16.0774L20.09 16.0789L20.088 16.0904V16.0915L20.0865 16.1029V16.104L20.0845 16.1155L20.084 16.1171L20.0824 16.1285L20.0819 16.1301L20.0804 16.1416V16.1426L20.0784 16.1541V16.1552L20.0764 16.1667V16.1677L20.0744 16.1792V16.1808L20.0724 16.1917L20.0719 16.1933L20.0699 16.2043L20.0694 16.2059L20.0674 16.2173L20.0669 16.2189L20.0644 16.2304V16.2314L20.0619 16.2429V16.244L20.0599 16.255V16.2565L20.0574 16.268V16.2691L20.0554 16.2806L20.0549 16.2816L20.0524 16.2926V16.2936L20.0499 16.3046V16.3061L20.0474 16.3171L20.0469 16.3187L20.0444 16.3297L20.0439 16.3312L20.0414 16.3422L20.0409 16.3432L20.0384 16.3542L20.0379 16.3552L20.0354 16.3662L20.0349 16.3678L20.0319 16.3788L20.0314 16.3803L20.0289 16.3913L20.0284 16.3929L20.0254 16.4038V16.4054L20.0224 16.4169L20.0219 16.4185L20.0189 16.4294V16.431L20.0159 16.442L20.0154 16.4435L20.0124 16.4545L20.0119 16.4561L20.0089 16.4676L20.0084 16.4686L20.0054 16.4796L20.0049 16.4806L20.0019 16.4916L20.0014 16.4932L19.9978 16.5041L19.9973 16.5057L19.9943 16.5167L19.9938 16.5177L19.9908 16.5287L19.9903 16.5302L19.9873 16.5412L19.9868 16.5423L19.9833 16.5532L19.9828 16.5548L19.9793 16.5658L19.9788 16.5673L19.9753 16.5783L19.9748 16.5799L19.9713 16.5908L19.9708 16.5924L19.9673 16.6034L19.9668 16.6044L19.9633 16.6154L19.9628 16.617L19.9593 16.6279L19.9588 16.6295L19.9553 16.6405L19.9548 16.6415L19.9513 16.6525L19.9508 16.654L19.9473 16.665L19.9468 16.6666L19.9428 16.677L19.9423 16.6786L19.9388 16.689L19.9383 16.6906L19.9348 16.7011L19.9343 16.7026L19.9308 16.7136L19.9303 16.7152L19.9263 16.7261L19.9258 16.7277L19.9218 16.7381L19.9213 16.7397L19.9173 16.7502L19.9168 16.7517L19.9127 16.7622L19.9122 16.7637L19.9082 16.7742L19.9077 16.7757L19.9037 16.7862L19.9032 16.7878L19.8992 16.7982L19.8987 16.7993L19.8942 16.8097L19.8937 16.8113L19.8892 16.8222L19.8887 16.8238L19.8847 16.8343L19.8842 16.8358L19.8797 16.8463L19.8792 16.8478L19.8747 16.8583L19.8742 16.8598L19.8697 16.8703L19.8692 16.8713L19.8647 16.8818L19.8642 16.8834L19.8597 16.8938L19.8592 16.8948L19.8547 16.9053L19.8542 16.9063L19.8497 16.9168L19.8492 16.9178L19.8447 16.9283L19.8442 16.9293L19.8392 16.9398L19.8387 16.9408L19.8337 16.9507L19.8332 16.9523L19.8286 16.9628L19.8281 16.9638L19.8231 16.9737L19.8226 16.9753L19.8181 16.9857L19.8176 16.9868L19.8126 16.9972L19.8121 16.9988L19.8071 17.0092L19.8066 17.0103L19.8016 17.0202L19.8011 17.0213L19.7961 17.0317L19.7956 17.0333L19.7906 17.0437L19.7901 17.0453L19.7851 17.0557L19.7841 17.0573L19.7791 17.0672L19.7786 17.0683L19.7736 17.0787L19.7731 17.0803L19.7681 17.0907L19.7676 17.0923L19.7621 17.1022L19.7611 17.1033L19.7556 17.1132L19.7551 17.1142L19.7496 17.1242L19.7491 17.1252L19.7435 17.1351L19.743 17.1362L19.7375 17.1461L19.737 17.1471L19.7315 17.1571L19.731 17.1586L19.7255 17.1686L19.725 17.1696L19.7195 17.1795L19.719 17.1811L19.7135 17.191L19.7125 17.1921L19.707 17.202L19.706 17.203L19.7005 17.213L19.7 17.214L19.6945 17.2239L19.694 17.2255L19.688 17.2354L19.6875 17.2365L19.682 17.2459L19.6815 17.2474L19.676 17.2568L19.675 17.2579L19.669 17.2678L19.6685 17.2694L19.6624 17.2788L19.6614 17.2798L19.6554 17.2892L19.6549 17.2903L19.6489 17.3002L19.6479 17.3018L19.6419 17.3112L19.6409 17.3122L19.6349 17.3216L19.6344 17.3227L19.6284 17.3326L19.6279 17.3336L19.6219 17.343L19.6209 17.3441L19.6144 17.3535L19.6139 17.3545L19.6079 17.3639L19.6074 17.365L19.6009 17.3744L19.6004 17.3754L19.5944 17.3848L19.5934 17.3859L19.5874 17.3953L19.5864 17.3963L19.5799 17.4057L19.5788 17.4068L19.5728 17.4162L19.5723 17.4172L19.5658 17.4266L19.5648 17.4282L19.5588 17.4376L19.5578 17.4386L19.5513 17.448L19.5503 17.4491L19.5438 17.4585L19.5428 17.4595L19.5363 17.4689L19.5353 17.47L19.5288 17.4794L19.5283 17.4804L19.5218 17.4893L19.5208 17.4903L19.5143 17.4992L19.5138 17.5003L19.5068 17.5091L19.5058 17.5102L19.4993 17.5191L19.4988 17.5201L19.4922 17.5295L19.4912 17.5306L19.4842 17.54L19.4832 17.541L19.4762 17.5499L19.4752 17.5509L19.4682 17.5598L19.4677 17.5609L19.4607 17.5697L19.4597 17.5708L19.4527 17.5797L19.4517 17.5807L19.4447 17.5896L19.4437 17.5906L19.4367 17.5995L19.4357 17.6006L19.4287 17.6094L19.4282 17.6105L19.4212 17.6194L19.4202 17.6204L19.4127 17.6293L19.4117 17.6303L19.4046 17.6392L19.4036 17.6403L19.3966 17.6491L19.3956 17.6502L19.3886 17.6591L19.3876 17.6601L19.3806 17.669L19.3796 17.67L19.3726 17.6784L19.3716 17.6794L19.3641 17.6883L19.3631 17.6894L19.3561 17.6982L19.3551 17.6993L19.3476 17.7082L19.3466 17.7092L19.3396 17.7181L19.3386 17.7191L19.3311 17.7275L19.3301 17.7285L19.3225 17.7369L19.3215 17.7379L19.314 17.7463L19.313 17.7473L19.3055 17.7557L19.3045 17.7567L19.297 17.7651L19.296 17.7661L19.2885 17.7745L19.2875 17.7755L19.28 17.7839L19.279 17.785L19.2715 17.7933L19.2705 17.7944L19.2625 17.8027L19.2615 17.8038L19.254 17.8121L19.253 17.8132L19.2455 17.821L19.2445 17.822L19.2364 17.8304L19.2349 17.8314L19.2269 17.8398L19.2259 17.8408L19.2179 17.8487L19.2169 17.8497L19.2089 17.8581L19.2079 17.8591L19.1999 17.867L19.1989 17.868L19.1909 17.8758L19.1899 17.8769L19.1819 17.8847L19.1809 17.8858L19.1729 17.8936L19.1719 17.8946L19.1639 17.9025L19.1629 17.9035L19.1548 17.9114L19.1538 17.9124L19.1453 17.9202L19.1443 17.9208L19.1363 17.9286L19.1353 17.9296L19.1268 17.9375L19.1258 17.9385L19.1173 17.9464L19.1163 17.9469L19.1078 17.9547L19.1068 17.9558L19.0983 17.9631L19.0968 17.9641L19.0883 17.9714L19.0873 17.9725L19.0788 17.9803L19.0778 17.9814L19.0692 17.9892L19.0682 17.9902L19.0597 17.9981L19.0587 17.9991L19.0502 18.0064L19.0492 18.0075L19.0402 18.0148L19.0392 18.0153L19.0307 18.0226L19.0297 18.0237L19.0212 18.031L19.0197 18.032L19.0112 18.0393L19.0102 18.0404L19.0017 18.0477L19.0007 18.0487L18.9922 18.0561L18.9911 18.0571L18.9821 18.0644L18.9811 18.0655L18.9726 18.0723L18.9716 18.0733L18.9626 18.0806L18.9616 18.0817L18.9526 18.089L18.9516 18.09L18.9426 18.0973L18.9416 18.0984L18.9326 18.1057L18.9316 18.1062L18.9226 18.113L18.9216 18.1135L18.9126 18.1203L18.9116 18.1208L18.9025 18.1276L18.901 18.1281L18.892 18.1349L18.891 18.136L18.882 18.1428L18.881 18.1438L18.872 18.1506L18.871 18.1516L18.862 18.1584L18.8605 18.1595L18.8515 18.1663L18.8505 18.1668L18.841 18.1736L18.8395 18.1741L18.83 18.1809L18.829 18.1819L18.8194 18.1887L18.8184 18.1898L18.8089 18.196L18.8079 18.1971L18.7984 18.2039L18.7974 18.2049L18.7884 18.2117L18.7869 18.2128L18.7774 18.219L18.7764 18.2196L18.7669 18.2258L18.7654 18.2263L18.7559 18.2326L18.7549 18.2337L18.7454 18.2399L18.7444 18.241L18.7348 18.2472L18.7338 18.2478L18.7243 18.254L18.7228 18.2546L18.7133 18.2608L18.7123 18.2619L18.7028 18.2681L18.7013 18.2687L18.6918 18.2749L18.6903 18.276L18.6808 18.2822L18.6793 18.2833L18.6693 18.2896L18.6683 18.2906L18.6588 18.2963L18.6573 18.2969L18.6477 18.3026L18.6467 18.3037L18.6367 18.3099L18.6352 18.311L18.6252 18.3167L18.6242 18.3178L18.6147 18.3235L18.6132 18.324L18.6032 18.3298L18.6017 18.3303L18.5917 18.336L18.5907 18.3366L18.5812 18.3423L18.5807 18.3428L12.7772 21.7173H12.7767L12.7677 21.723L12.7662 21.7236L12.7567 21.7293L12.7552 21.7303L12.7457 21.7356L12.7442 21.7361L12.7347 21.7413L12.7337 21.7418L12.7242 21.7471L12.7227 21.7476L12.7132 21.7528L12.7117 21.7533L12.7022 21.7586L12.7007 21.7591L12.6911 21.7643L12.6901 21.7648L12.6806 21.77L12.6796 21.7706L12.6701 21.7753L12.6691 21.7758L12.6591 21.781L12.6581 21.7821L12.6486 21.7873L12.6476 21.7878L12.6381 21.7925L12.6371 21.793L12.6276 21.7977L12.6266 21.7983L12.6171 21.8035L12.6161 21.804L12.606 21.8087L12.605 21.8092L12.5955 21.8139L12.5945 21.8144L12.5845 21.8191L12.5835 21.8197L12.574 21.8244L12.573 21.8249L12.5635 21.8296L12.562 21.8306L12.552 21.8353L12.551 21.8359L12.541 21.84L12.54 21.8406L12.53 21.8453L12.529 21.8463L12.5189 21.851L12.5174 21.8515L12.5079 21.8557L12.5069 21.8562L12.4969 21.8609L12.4959 21.8615L12.4859 21.8656L12.4849 21.8662L12.4749 21.8703L12.4739 21.8709L12.4639 21.875L12.4624 21.8756L12.4524 21.8797L12.4509 21.8803L12.4408 21.8844L12.4393 21.885L12.4298 21.8891L12.4288 21.8897L12.4188 21.8933L12.4178 21.8938L12.4078 21.898L12.4063 21.8985L12.3963 21.9027L12.3948 21.9032L12.3848 21.9074L12.3833 21.9079L12.3733 21.9116L12.3718 21.9121L12.3618 21.9163L12.3602 21.9168L12.3502 21.9205L12.3492 21.921L12.3392 21.9247L12.3377 21.9252L12.3277 21.9288L12.3262 21.9294L12.3162 21.933L12.3147 21.9335L12.3047 21.9372L12.3037 21.9377L12.2937 21.9414L12.2837 21.945L12.2822 21.9456L12.2716 21.9487L12.2701 21.9492L12.2601 21.9524L12.2591 21.9529L12.2491 21.9565L12.2481 21.9571L12.2376 21.9602L12.2361 21.9607L12.2261 21.9638L12.2246 21.9644L12.2146 21.9675L12.2131 21.968L12.2026 21.9717L12.2006 21.9722L12.1805 21.9785L12.178 21.9795L12.1575 21.9858L12.155 21.9863L12.1345 21.9926L12.132 21.9931L12.1115 21.9988L12.109 21.9999L12.0884 22.0056L12.0859 22.0062L12.0654 22.0119L12.0624 22.0124L12.0419 22.0176L12.0394 22.0182L12.0188 22.0234L12.0158 22.0239L11.9953 22.0291L11.9928 22.0297L11.9723 22.0344L11.9698 22.0349L11.9488 22.0396L11.9458 22.0401L11.9247 22.0448L11.9222 22.0453L11.9012 22.0495L11.8987 22.05L11.8782 22.0537L11.8757 22.0542L11.8551 22.0584L11.8526 22.0589L11.8316 22.0626L11.8291 22.0631L11.8081 22.0667L11.8056 22.0673L11.7846 22.0704L11.7821 22.0709L11.761 22.0741L11.7585 22.0746L11.7375 22.0777L11.735 22.0782L11.714 22.0814L11.711 22.0819L11.69 22.0845L11.6874 22.085L11.6664 22.0876L11.6639 22.0882L11.6429 22.0908L11.6219 22.0929H11.6194L11.5983 22.0944L11.5958 22.095L11.5748 22.0965H11.5723L11.5513 22.0981H11.5488L11.5278 22.0997L11.5248 22.1002L11.5037 22.1017H11.5012L11.4802 22.1028H11.4777L11.4567 22.1038H11.4537L11.4326 22.1044H11.4301L11.4091 22.1049H11.4066L11.3856 22.1054H11.3115L11.2905 22.1049L11.2695 22.1044H11.2664L11.2454 22.1038H11.245L11.2239 22.1028L11.2214 22.1023L11.2004 22.1012H11.1979L11.1769 22.1002L11.1744 22.0997L11.1534 22.0986H11.1509L11.1298 22.097L11.1273 22.0965L11.1063 22.0944L11.1033 22.0939L11.0823 22.0918L11.0793 22.0913L11.0582 22.0892L11.0557 22.0887L11.0347 22.0866H11.0322L11.0112 22.0845L11.0087 22.084L10.9877 22.0814H10.9847L10.9636 22.0788L10.9606 22.0782L10.9396 22.0751L10.9371 22.0746L10.9161 22.0714L10.9136 22.0709L10.8926 22.0678L10.89 22.0673L10.869 22.0641L10.8665 22.0636L10.846 22.06H10.8445L10.8235 22.0558L10.8208 22.0553L10.8002 22.0511L10.7977 22.0506L10.7772 22.0464L10.7747 22.0459L10.7542 22.0417L10.7512 22.0412L10.7304 22.037L10.7279 22.0365L10.7073 22.0317L10.7043 22.0307L10.6838 22.026L10.6813 22.0255L10.6608 22.0203L10.658 22.0192L10.6374 22.014L10.6349 22.0129L10.6144 22.0072L10.6119 22.0067L10.5914 22.0009L10.5889 21.9999L10.5684 21.9941L10.5659 21.9931L10.5453 21.9873L10.5428 21.9863L10.5223 21.98L10.5193 21.979L10.4988 21.9727L10.4963 21.9717L10.4758 21.9654L10.4733 21.9644L10.4527 21.9581L10.4502 21.9576L10.4303 21.9508L10.4283 21.9503L10.4178 21.9466H10.4164L10.4064 21.9435L10.4049 21.9429L10.3949 21.9393L10.3934 21.9388L10.3834 21.9351L10.3819 21.9346L10.3719 21.9309L10.3704 21.9304L10.3604 21.9268L10.3589 21.9262L10.3489 21.9226L10.3479 21.9221L10.3378 21.9184L10.3368 21.9179L10.3268 21.9142L10.3258 21.9137L10.3158 21.9095L10.3143 21.909L10.3043 21.9048L10.3028 21.9043L10.2928 21.9001L10.2918 21.8996L10.2818 21.8954L10.2803 21.8949L10.2703 21.8907L10.2693 21.8902L10.2592 21.886L10.2577 21.8855L10.2477 21.8813L10.2467 21.8808L10.2367 21.8766L10.2357 21.8761L10.2257 21.8719L10.2242 21.8714L10.2142 21.8672L10.2127 21.8667L10.2027 21.8625L10.2012 21.862L10.1912 21.8578L10.1897 21.8573L10.1797 21.8531L10.1787 21.8526L10.1686 21.8479L10.1671 21.8474L10.1576 21.8427L10.1566 21.8421L10.1466 21.8374L10.1456 21.8369L10.1356 21.8322L10.1346 21.8317L10.1246 21.8275L10.1231 21.827L10.1136 21.8223L10.1121 21.8218L10.1021 21.8171L10.1006 21.8165L10.091 21.8118L10.09 21.8108L10.0805 21.8061L10.0795 21.8056L10.07 21.8009L10.069 21.8003L10.059 21.7956L10.058 21.7946L10.048 21.7894L10.047 21.7883L10.0375 21.7836L10.036 21.7831L10.026 21.7784L10.025 21.7774L10.0155 21.7721L10.014 21.7716L10.0039 21.7664L10.0029 21.7659L9.99343 21.7606L9.99193 21.7601L9.98242 21.7549L9.98142 21.7544L9.9719 21.7492L9.9704 21.7481L9.96089 21.7429L9.95989 21.7424L9.95038 21.7371L9.94938 21.7366L9.93987 21.7314L9.93836 21.7303L9.92885 21.7251L9.92785 21.7246L9.91834 21.7189L9.91684 21.7178L9.90733 21.7126L9.90583 21.7121L9.89631 21.7068L9.89481 21.7063L9.8853 21.7011L9.8838 21.7006L9.87429 21.6948L9.87279 21.6943L9.86378 21.6886L9.86227 21.688L9.85326 21.6823L9.85276 21.6818L4.60651 18.4865L4.60601 18.486L4.595 18.4792L4.594 18.4786L4.58298 18.4719L4.58148 18.4713L4.56997 18.4645L4.56847 18.464L4.55745 18.4567L4.55645 18.4562L4.54544 18.4489L4.54444 18.4478L4.53343 18.4405L4.53242 18.4395L4.52141 18.4322L4.51991 18.4316L4.5089 18.4248L4.50739 18.4238L4.49638 18.4165L4.49538 18.4154L4.48437 18.4081H4.48692L4.47591 18.4008L4.47441 18.3998L4.46339 18.3925L4.46239 18.3914L4.45138 18.3841L4.44998 18.3831L4.43896 18.3752L4.43746 18.3742L4.42645 18.3663L4.42545 18.3653L4.41443 18.358L4.41343 18.3569L4.40242 18.3491L4.40142 18.3481L4.39041 18.3402L4.3894 18.3392L4.37889 18.3313L4.37739 18.3303L4.36663 18.3225L4.36563 18.3214L4.35511 18.3136L4.35386 18.3125L4.34335 18.3047L4.342 18.3037L4.33149 18.2958L4.33048 18.2953L4.31997 18.2875L4.31897 18.2864L4.30861 18.2786L4.30761 18.2775L4.29729 18.2697L4.29579 18.2692L4.28528 18.2613L4.28428 18.2603L4.27377 18.2519L4.27277 18.2509L4.26225 18.2431L4.26095 18.242L4.25044 18.2337L4.24914 18.2326L4.23913 18.2243L4.23812 18.2232L4.22811 18.2149L4.22711 18.2143L4.2171 18.206L4.2161 18.2049L4.20609 18.1966L4.20508 18.1955L4.19507 18.1872L4.19407 18.1861L4.18406 18.1778L4.18306 18.1767L4.17305 18.1684L4.17205 18.1673L4.16203 18.159L4.16103 18.1579L4.15102 18.149L4.15002 18.1485L4.14001 18.1402L4.13901 18.1391L4.12929 18.1308L4.12829 18.1297L4.11828 18.1208L4.11728 18.1198L4.10727 18.1114L4.10627 18.1104L4.09625 18.1015L4.09525 18.101L4.08544 18.0926L4.08444 18.0916L4.07493 18.0832L4.07393 18.0822L4.06442 18.0733L4.06342 18.0723L4.0539 18.0634L4.0529 18.0623L4.04339 18.0534L4.04239 18.0524L4.03288 18.0435L4.03188 18.0425L4.02237 18.0336L4.02137 18.0326L4.01185 18.0231L4.01085 18.0226L4.00134 18.0137L3.99984 18.0127L3.99058 18.0033L3.98958 18.0023L3.98007 17.9934L3.97907 17.9923L3.96975 17.9829L3.96875 17.9819L3.95974 17.9725L3.95874 17.9714L3.94973 17.962L3.94873 17.961L3.93922 17.9516L3.93822 17.9505L3.92871 17.9411L3.9277 17.9406L3.91869 17.9312L3.91769 17.9302L3.90868 17.9208L3.90768 17.9197L3.89867 17.9103L3.89767 17.9093L3.88866 17.8999L3.88766 17.8988L3.87865 17.8894L3.87764 17.8884L3.86863 17.879L3.86763 17.8779L3.85912 17.8685L3.85812 17.8675L3.84911 17.8581L3.84811 17.857L3.8391 17.8471L3.8381 17.8461L3.82959 17.8361L3.82859 17.8351L3.82008 17.8252L3.81907 17.8241L3.81006 17.8142L3.80906 17.8132L3.80055 17.8032L3.79955 17.8022L3.79104 17.7923L3.79004 17.7912L3.78153 17.7813L3.78053 17.7803L3.77202 17.7703L3.77102 17.7693L3.76251 17.7594L3.76201 17.7583L3.754 17.7484L3.753 17.7473L3.74449 17.7374L3.74348 17.7364L3.73447 17.7259L3.73347 17.7249L3.72496 17.715L3.72396 17.7139L3.71545 17.7035L3.71445 17.7024L3.70644 17.6925L3.70594 17.6914L3.69793 17.6815L3.69693 17.6805L3.68892 17.67L3.68792 17.669L3.67941 17.6585L3.67841 17.6575L3.6704 17.6476L3.6694 17.6465L3.66089 17.6366L3.65988 17.6356L3.65188 17.6256L3.65087 17.6246L3.64286 17.6141L3.64186 17.6131L3.63385 17.6026L3.63285 17.6016L3.62484 17.5912L3.62384 17.5901L3.61583 17.5797L3.61483 17.5786L3.60682 17.5682L3.60632 17.5671L3.59881 17.5567L3.59781 17.5556L3.5903 17.5452L3.5898 17.5441L3.58229 17.5337L3.58129 17.5327L3.57378 17.5217L3.57278 17.5206L3.56527 17.5102L3.56427 17.5091L3.55676 17.4987L3.55626 17.4977L3.54875 17.4867L3.54825 17.4856L3.54074 17.4747L3.54024 17.4736L3.53273 17.4632L3.53223 17.4621L3.52472 17.4517L3.52372 17.4506L3.51621 17.4397L3.51521 17.4386L3.5077 17.4277L3.5067 17.4261L3.49969 17.4151L3.49869 17.4141L3.49168 17.4031L3.49068 17.4021L3.48368 17.3911L3.48267 17.39L3.47567 17.3791L3.47516 17.378L3.46816 17.3671L3.46716 17.3655L3.46015 17.3545L3.45915 17.3535L3.45214 17.3425L3.45114 17.3415L3.44413 17.3305L3.44313 17.3295L3.43612 17.3185L3.43512 17.3174L3.42861 17.3065L3.42811 17.3054L3.4216 17.2945L3.4206 17.2929L3.41359 17.2819L3.41259 17.2803L3.40558 17.2694L3.40508 17.2683L3.39807 17.2568L3.39757 17.2553L3.39106 17.2443L3.39006 17.2433L3.38356 17.2323L3.38255 17.2312L3.37605 17.2198L3.37505 17.2182L3.36854 17.2072L3.36804 17.2062L3.36153 17.1947L3.36103 17.1936L3.35452 17.1827L3.35352 17.1811L3.34701 17.1696L3.34601 17.168L3.3395 17.1566L3.3385 17.155L3.3325 17.1435L3.33149 17.1424L3.32499 17.131L3.32449 17.1299L3.31848 17.1184L3.31798 17.1174L3.31197 17.1059L3.31147 17.1043L3.30546 17.0928L3.30446 17.0913L3.29845 17.0798L3.29795 17.0782L3.29195 17.0662L3.29145 17.0651L3.28544 17.0536L3.28494 17.0521L3.27893 17.0406L3.27843 17.039L3.27242 17.0275L3.27192 17.026L3.26642 17.0139L3.26592 17.0129L3.25991 17.0009L3.25941 16.9993L3.2534 16.9873L3.2524 16.9863L3.24689 16.9742L3.24639 16.9732L3.24089 16.9617L3.24039 16.9601L3.23488 16.9481V16.9487L3.22937 16.9366L3.22837 16.9351L3.22286 16.9231L3.22236 16.9215L3.21686 16.91L3.21636 16.9084L3.21085 16.8964L3.21035 16.8954L3.20484 16.8834L3.20434 16.8823L3.19934 16.8703L3.19884 16.8693L3.19333 16.8572L3.19283 16.8562L3.18732 16.8442L3.18682 16.8431L3.18131 16.8311L3.18081 16.8296L3.17581 16.8175L3.17531 16.8165L3.1698 16.8045L3.1693 16.8029L3.16379 16.7909L3.16329 16.7899L3.15829 16.7778L3.15779 16.7768L3.15278 16.7648L3.15228 16.7632L3.14727 16.7512L3.14677 16.7502L3.14227 16.7381L3.14177 16.7371L3.13676 16.7251L3.13626 16.7235L3.13176 16.711L3.13126 16.7099L3.12625 16.6979L3.12575 16.6964L3.12124 16.6849L3.12074 16.6833L3.11574 16.6708L3.11524 16.6697L3.11073 16.6572L3.11023 16.6556L3.10572 16.6431L3.10522 16.642L3.10072 16.6295L3.10022 16.6279L3.09571 16.6154L3.09521 16.6143L3.09071 16.6018L3.09021 16.6008L3.0862 16.5882L3.0857 16.5867L3.0812 16.5741L3.0807 16.5731L3.07669 16.5605L3.07619 16.559L3.07218 16.5464L3.07168 16.5449L3.06718 16.5323L3.06668 16.5308L3.06267 16.5182L3.06217 16.5172L3.05817 16.5046L3.05767 16.5036L3.05366 16.4911L3.05316 16.4895L3.04916 16.477L3.04866 16.4754L3.04465 16.4629L3.04415 16.4613L3.04015 16.4488L3.03965 16.4472L3.03564 16.4346L3.03519 16.4331L3.03169 16.4206L3.03119 16.4196L3.02718 16.4065L3.02668 16.4049L3.02318 16.3919L3.02268 16.3903L3.01917 16.3778L3.01867 16.3762L3.01517 16.3637L3.01467 16.3621L3.01116 16.349L3.01066 16.3475L3.00716 16.3344L3.00666 16.3334L3.00315 16.3203L3.00265 16.3198L2.99915 16.3067L2.99865 16.3057L2.99564 16.2931L2.99514 16.2921L2.99214 16.2796V16.2785L2.98864 16.2655V16.2639L2.98563 16.2514L2.98513 16.2498L2.98213 16.2372L2.98163 16.2357L2.97862 16.2226H2.97912L2.97612 16.2096L2.97562 16.2085L2.97262 16.1955L2.97212 16.1944L2.96911 16.1814L2.96861 16.1803L2.96561 16.1673L2.96611 16.1667L2.9631 16.1537L2.9626 16.1521L2.9596 16.139L2.9591 16.1375L2.9566 16.1244L2.9561 16.1228L2.95309 16.1098L2.95259 16.1087L2.95009 16.0957L2.94959 16.0941L2.94709 16.0811L2.94659 16.0795L2.94408 16.0664L2.94158 16.0534V16.0518L2.93908 16.0382V16.0367L2.93657 16.0236L2.93607 16.022L2.93307 16.0095V16.0079L2.93057 15.9938L2.93007 15.9923L2.92756 15.9787L2.92706 15.9771L2.92506 15.9641L2.92456 15.9625L2.92256 15.9494V15.9479L2.92055 15.9348V15.9332L2.91855 15.9202L2.91805 15.9186L2.91605 15.9055V15.9061L2.91405 15.893V15.892L2.91204 15.8789V15.8773L2.91004 15.8643V15.8627L2.90804 15.8497V15.8486L2.90654 15.835V15.8335L2.90504 15.8204V15.8194L2.90303 15.8058L2.90253 15.8042L2.90103 15.7912V15.7896L2.89953 15.776L2.89903 15.7744L2.89753 15.7609V15.7593L2.89603 15.7457L2.89552 15.7441L2.89402 15.7306V15.729L2.89252 15.7154L2.89202 15.7144L2.89052 15.7008L2.88952 15.6872V15.6856L2.88802 15.6721L2.88751 15.6705L2.88601 15.6569V15.6553L2.88501 15.6418L2.88451 15.6402L2.88351 15.6266V15.625L2.88251 15.6115V15.6099L2.88151 15.5963L2.88051 15.5827V15.5812L2.87951 15.5676V15.566L2.8785 15.5524V15.5356L2.878 15.522V15.5204L2.8775 15.5068V15.5053L2.877 15.4917L2.8765 15.4901L2.876 15.4765V15.4619L2.8755 15.4483V15.4468L2.875 15.4332V8.82008L2.8755 8.80702V8.79031L2.876 8.77673V8.72867L2.8765 8.71509V8.71404L2.877 8.70046V8.69889L2.8775 8.68531V8.68374L2.878 8.67016V8.66912L2.8785 8.65554V8.65397L2.879 8.64039V8.63882L2.88001 8.62472V8.62315L2.88101 8.60957V8.60852L2.88151 8.59494V8.59338L2.88251 8.57979V8.57823L2.88301 8.56465V8.56308L2.88351 8.5495V8.54793L2.88451 8.53435V8.53278L2.88551 8.5192V8.51763L2.88701 8.50405V8.50249L2.88802 8.4889L2.88852 8.48786L2.88952 8.47428V8.47323L2.89102 8.45965V8.45861L2.89252 8.44502L2.89302 8.44346L2.89452 8.42988V8.42831L2.89603 8.41473V8.41368L2.89753 8.4001V8.39906L2.89903 8.38548L2.89953 8.38391L2.90103 8.37033V8.36876L2.90253 8.3557V8.35413L2.90403 8.34055V8.33899L2.90554 8.3254L2.90604 8.32384L2.90754 8.31078V8.30921L2.90954 8.29563V8.29406L2.91104 8.28048L2.91154 8.27891L2.91305 8.26586L2.91355 8.26429L2.91555 8.25071L2.91605 8.24966L2.91805 8.23608V8.23504L2.92005 8.22145V8.22041L2.92206 8.20735L2.92256 8.20578L2.92456 8.19272V8.19116L2.92806 8.17758L2.92856 8.17601L2.93057 8.16295V8.16138L2.93307 8.14832V8.14728L2.93557 8.13422V8.13318L2.93808 8.11959L2.93858 8.11855L2.94108 8.10549L2.94158 8.10445L2.94408 8.09139L2.94458 8.08982L2.94709 8.07676L2.94759 8.07519L2.95009 8.06213V8.06057L2.95259 8.04751V8.04646L2.9551 8.0334L2.9556 8.03236L2.9581 8.0193L2.9586 8.01826L2.9616 8.0052V8.00363L2.96461 7.99057L2.96511 7.989L2.96761 7.97594L2.96811 7.97438L2.97111 7.96132V7.95975L2.97412 7.94669L2.97462 7.94513L2.97762 7.93207V7.9305L2.98063 7.91744L2.98113 7.9164L2.98413 7.90334V7.90229L2.98713 7.88923L2.98763 7.88767L2.99114 7.87461V7.87356L2.99464 7.8605V7.85946L2.99815 7.8464L2.99865 7.84483L3.00215 7.83177V7.83021L3.00566 7.81715L3.00616 7.81558L3.00966 7.80304L3.01016 7.802L3.01367 7.78894L3.01417 7.78763L3.01767 7.77457L3.01817 7.77301L3.02167 7.76026L3.02218 7.75922L3.02618 7.74616L3.02668 7.74511L3.03018 7.73258L3.03069 7.73153L3.03419 7.71884L3.03469 7.71779L3.03819 7.70484L3.0387 7.70327L3.0427 7.69053L3.0432 7.68896L3.04721 7.67642V7.67538L3.05121 7.66284V7.66127L3.05521 7.64874L3.05572 7.64769L3.05972 7.63516L3.06022 7.63359L3.06423 7.62105L3.06473 7.61949L3.06873 7.60695L3.06923 7.60538L3.07324 7.59284L3.07374 7.5918L3.07824 7.57926L3.07874 7.57822L3.08275 7.56568L3.08325 7.56438L3.08725 7.55184L3.08775 7.5508L3.09226 7.53826L3.09276 7.53721L3.09726 7.52468V7.52363L3.10177 7.5111L3.10227 7.51005L3.10678 7.49751L3.10728 7.49595L3.11178 7.48341L3.11228 7.48237L3.11679 7.46983L3.11729 7.46826L3.12229 7.45625L3.1228 7.4552L3.1278 7.44267L3.1283 7.44162L3.13331 7.42908L3.13381 7.42752L3.13881 7.41498L3.13931 7.41341L3.14432 7.40088L3.14482 7.39931L3.14983 7.38677L3.15033 7.38521L3.15533 7.37267L3.15583 7.3711L3.16084 7.35857L3.16134 7.35726L3.16635 7.34525L3.16685 7.34368L3.17185 7.33166L3.17235 7.3301L3.17736 7.31756L3.17786 7.31652L3.18337 7.30398L3.18387 7.30293L3.18937 7.29092L3.18988 7.28988L3.19488 7.27786L3.19538 7.27629L3.20089 7.26428L3.20139 7.26324L3.2069 7.25122L3.2074 7.25018L3.2129 7.23816L3.2134 7.23712L3.21891 7.2251L3.21941 7.22354L3.22492 7.21152L3.22542 7.21048L3.23092 7.19846L3.23142 7.1969L3.23693 7.18488L3.23743 7.18384L3.24294 7.17182L3.24344 7.17078L3.24895 7.15876L3.24945 7.15772L3.25495 7.1457L3.25545 7.14466L3.26146 7.13317L3.26196 7.13212L3.26797 7.12011L3.26897 7.11854L3.27498 7.10653L3.27548 7.10548L3.28148 7.09347L3.28198 7.0919L3.28799 7.08041L3.28849 7.07936L3.2945 7.06787L3.295 7.06683L3.30101 7.05534L3.30151 7.05377L3.30752 7.04228L3.30852 7.04123L3.31452 7.02974L3.31502 7.02817L3.32103 7.01668L3.32203 7.01564L3.32804 7.00414L3.32854 7.0031L3.33455 6.99161L3.33555 6.99004L3.34206 6.97855L3.34256 6.9775L3.34856 6.96601L3.34906 6.96497L3.35557 6.95347L3.35607 6.95243L3.36258 6.94094L3.36308 6.93989L3.36959 6.9284L3.37059 6.92736L3.3771 6.91586L3.3776 6.91482L3.38411 6.90333L3.38511 6.90228L3.39162 6.89079L3.39212 6.88975L3.39862 6.87825L3.39962 6.87721L3.40613 6.86572L3.40663 6.86467L3.41364 6.85318L3.41464 6.85161L3.42165 6.84012L3.42215 6.83908L3.42866 6.82811L3.42966 6.82706L3.43667 6.81609L3.43767 6.81505L3.44418 6.80356L3.44468 6.80251L3.45169 6.79154L3.45219 6.7905L3.4592 6.77953L3.4602 6.77848L3.46721 6.76699L3.46821 6.76595L3.47522 6.75498L3.47572 6.75341L3.48272 6.74244L3.48322 6.7414L3.49023 6.73043L3.49073 6.72938L3.49824 6.71841L3.49924 6.71737L3.50625 6.7064L3.50725 6.70535L3.51476 6.69438L3.51526 6.69334L3.52277 6.68237L3.52327 6.68132L3.53078 6.67035L3.53128 6.66931L3.53879 6.65834L3.53979 6.6573L3.5473 6.64633L3.5478 6.64528L3.55531 6.63431L3.55631 6.63327L3.56382 6.62282L3.56432 6.62178L3.57183 6.61081L3.57283 6.60976L3.58034 6.59931L3.58134 6.59827L3.58885 6.58782L3.58985 6.58678L3.59736 6.57633L3.59836 6.57528L3.60587 6.56484L3.60637 6.56379L3.61388 6.55335L3.61488 6.5523L3.62289 6.54185L3.62389 6.54081L3.6319 6.53036L3.6329 6.52932L3.64091 6.51887L3.64191 6.51783L3.64992 6.50738L3.65092 6.50633L3.65893 6.49589L3.65994 6.49432L3.66794 6.48387L3.66845 6.48283L3.67645 6.47238L3.67746 6.47133L3.68547 6.46089L3.68647 6.45984L3.69448 6.44992L3.69548 6.44887L3.70349 6.43843L3.70449 6.43738L3.7125 6.42693L3.7135 6.42589L3.72201 6.41597L3.72301 6.41492L3.73102 6.40447L3.73202 6.40343L3.74003 6.3935L3.74103 6.39246L3.74904 6.38201L3.75004 6.38097L3.75855 6.37052L3.75905 6.36947L3.76756 6.35955L3.76856 6.35851L3.77707 6.34858L3.77808 6.34754L3.78659 6.33761L3.78759 6.33657L3.7961 6.32664L3.7966 6.3256L3.80511 6.31567L3.80611 6.31463L3.81462 6.3047L3.81562 6.30366L3.82413 6.29373L3.82463 6.29269L3.83314 6.28276L3.83414 6.28172L3.84315 6.27179L3.84365 6.27075L3.85266 6.26082L3.85367 6.25978L3.86318 6.25038L3.86418 6.24933L3.87319 6.23941L3.87419 6.23836L3.8832 6.22844L3.8842 6.22739L3.89321 6.21799L3.89421 6.21695L3.90322 6.20754L3.90423 6.2065L3.91324 6.1971L3.91424 6.19605L3.92375 6.18665L3.92475 6.1856L3.93376 6.1762L3.93476 6.17516L3.94377 6.16575L3.94477 6.16471L3.95379 6.15531L3.95479 6.15426L3.9638 6.14486L3.9648 6.14381L3.97381 6.13441L3.97481 6.13337L3.98382 6.12396L3.98482 6.12292L3.99383 6.11352L3.99483 6.11247L4.00435 6.10359L4.00535 6.10255L4.01486 6.09367L4.01586 6.09262L4.02537 6.08322L4.02637 6.08218L4.03588 6.07277L4.03688 6.07225L4.0464 6.06337L4.0474 6.06285L4.05691 6.05397L4.05791 6.05292L4.06742 6.04404L4.06842 6.043L4.07793 6.03412L4.07893 6.03307L4.08845 6.02419L4.08945 6.02367L4.09946 6.01479L4.10046 6.01375L4.11047 6.00487L4.11147 6.00382L4.12148 5.99494L4.12249 5.9939L4.1325 5.98554L4.1335 5.98449L4.14351 5.97614L4.14451 5.97509L4.15402 5.96673L4.15503 5.96569L4.16504 5.95733L4.16604 5.95629L4.17605 5.94793L4.17705 5.94741L4.18706 5.93905L4.18806 5.938L4.19808 5.92965L4.19908 5.9286L4.20909 5.92024L4.21009 5.9192L4.2206 5.91084L4.2216 5.9098L4.23162 5.90144L4.23262 5.90039L4.24313 5.89204L4.24413 5.89099L4.25464 5.88263L4.25564 5.88159L4.26566 5.87323L4.26666 5.87271L4.27717 5.86435L4.27817 5.86331L4.28818 5.85495L4.28918 5.8539L4.2997 5.84607L4.3007 5.84502L4.31121 5.83667L4.31221 5.83562L4.32272 5.82779L4.32373 5.82726L4.33424 5.81943L4.33574 5.81838L4.34625 5.81055L4.34725 5.81003L4.35777 5.80219L4.35877 5.80115L4.36928 5.79279L4.37028 5.79227L4.38129 5.78443L4.3823 5.78339L4.39281 5.77555L4.39431 5.77503L4.40482 5.76719L4.40582 5.76667L4.41634 5.75883L4.41734 5.75831L4.42835 5.75048L4.42935 5.74943L4.43986 5.7416L4.44087 5.74107L4.45188 5.73376L4.45288 5.73324L4.46339 5.7254L4.46489 5.72436L4.47591 5.71705L4.47691 5.716L4.48792 5.70817L4.48892 5.70712L4.49994 5.69981L4.50144 5.69929L4.51245 5.69197L4.51345 5.69093L4.52446 5.68361L4.52547 5.68309L4.53648 5.67578L4.53748 5.67526L4.54849 5.66794L4.54949 5.66742L4.56051 5.66011L4.56201 5.65959L4.57302 5.6528H4.57352L9.60502 2.41415L9.60552 2.41363L9.61603 2.40684L9.61703 2.40632L9.62804 2.39901L9.62955 2.39796L9.64056 2.39117L9.64206 2.39013L9.65307 2.38334L9.65458 2.38229L9.66559 2.3755L9.66709 2.37498L9.67861 2.36819L9.67961 2.36714L9.69062 2.36035L9.69212 2.35983L9.70313 2.35304L9.70414 2.35252L9.71565 2.34625L9.71665 2.3452L9.72816 2.33893L9.72917 2.33789L9.74018 2.33162L9.74168 2.3311L9.75319 2.32483L9.7542 2.32379L9.76521 2.31752L9.76671 2.31647L9.77772 2.3102L9.77922 2.30916L9.79024 2.30289L9.79124 2.30185L9.80275 2.29558L9.80375 2.29506L9.81477 2.28879L9.81627 2.28827L9.82728 2.282L9.82878 2.28147L9.8403 2.27521L9.8418 2.27468L9.85331 2.26842L9.85431 2.26789L9.86583 2.26215L9.86733 2.26163L9.87884 2.25588L9.88035 2.25536L9.89136 2.24961L9.89286 2.24909L9.90437 2.24334L9.90538 2.24282L9.91689 2.23707L9.91839 2.23655L9.9299 2.23081L9.93141 2.22976L9.94292 2.22402L9.94442 2.22349L9.95594 2.21775L9.95744 2.21722L9.96895 2.212L9.97045 2.21148L9.98197 2.20625L9.98297 2.20521L9.99448 2.19999L9.99548 2.19946L10.007 2.19424L10.0085 2.1932L10.02 2.18797L10.0215 2.18745L10.033 2.18223L10.0345 2.1817L10.046 2.17648L10.0475 2.17596L10.0591 2.17073L10.0606 2.17021L10.0721 2.16499L10.0736 2.16447L10.0851 2.15976L10.0866 2.15924L10.0981 2.15402L10.0996 2.1535L10.1116 2.14827L10.1131 2.14775L10.1251 2.14253L10.1266 2.14148L10.1382 2.13678L10.1392 2.13626L10.1512 2.13156L10.1527 2.13103L10.1642 2.12633L10.1652 2.12581L10.1772 2.12111L10.1787 2.12059L10.1907 2.11641L10.1922 2.11589L10.2042 2.11119L10.2057 2.11066L10.2177 2.10596L10.2192 2.10544L10.2313 2.10126L10.2328 2.10074L10.2448 2.09656L10.2463 2.09604L10.2578 2.09186L10.2593 2.09134L10.2713 2.08716L10.2728 2.08663L10.2843 2.08246L10.2858 2.08193L10.2978 2.07775L10.2988 2.07723L10.3109 2.07305L10.3124 2.07253L10.3244 2.06835L10.3259 2.06783L10.3379 2.06365L10.3394 2.06313L10.3514 2.05947L10.3524 2.05895L10.3644 2.05529L10.3659 2.05477L10.3779 2.05111H10.3794L10.3915 2.04746L10.393 2.04693L10.405 2.04328L10.406 2.04276L10.418 2.0391L10.419 2.03858L10.431 2.03492L10.4325 2.0344L10.4445 2.03074L10.446 2.03022L10.458 2.02656L10.4595 2.02604L10.4715 2.02291L10.4731 2.02238L10.4851 2.01925L10.4861 2.01873L10.4981 2.01507L10.4993 2.01455L10.5118 2.01141H10.5128L10.5248 2.00776H10.5263L10.5387 2.00462L10.5402 2.0041L10.5527 2.00097L10.5542 2.00044L10.5662 1.99731H10.5677L10.5802 1.99418H10.5817L10.5937 1.99104L10.5952 1.99052L10.6073 1.98791L10.6088 1.98739L10.6208 1.98425L10.6223 1.98373L10.6343 1.98112H10.6358L10.6478 1.97851L10.6493 1.97798L10.6613 1.97537H10.6623L10.6743 1.97276L10.6758 1.97224L10.6884 1.96963H10.6894L10.7019 1.96701L10.7029 1.96649L10.7154 1.96388L10.7169 1.96336L10.7294 1.96074L10.7309 1.96022L10.7434 1.95813H10.7449L10.7569 1.95604L10.7584 1.95552L10.771 1.95291L10.7725 1.95239L10.785 1.9503H10.7865L10.7985 1.94821L10.8 1.94769L10.8125 1.9456L10.814 1.94507L10.826 1.94298H10.827L10.839 1.9409H10.8405L10.8531 1.93881L10.8546 1.93828L10.8671 1.93619H10.8686L10.8811 1.9341H10.8826L10.8951 1.93202H10.8966L10.9091 1.93045H10.9106L10.9226 1.92888H10.9241L10.9367 1.92731L10.9382 1.92679L10.9507 1.92522L10.9517 1.9247L10.9642 1.92366H10.9657L10.9777 1.92209H10.9792L10.9912 1.92052H10.9927L11.0052 1.91896H11.0067L11.0193 1.91739H11.0208L11.0328 1.91634H11.0343L11.0468 1.91478L11.0483 1.91425L11.0608 1.91321L11.0623 1.91269L11.0748 1.91164H11.0763L11.0886 1.9106H11.0901L11.1027 1.90955H11.1042L11.1167 1.90903L11.1182 1.90851L11.1307 1.90746L11.1317 1.90694L11.1442 1.90642H11.1457L11.1582 1.90537H11.1592L11.1717 1.90485H11.1732L11.1858 1.90433H11.1873L11.1998 1.90381H11.2013L11.2138 1.90329L11.2153 1.90276L11.2278 1.90224H11.2293L11.2418 1.90172H11.2433L11.2558 1.9012H11.2573L11.2698 1.90067H11.2714L11.2839 1.90015H11.2849L11.2974 1.89963H11.3129L11.3254 1.89911H11.3545L11.3571 1.89456ZM11.3456 3.30494H11.3374L11.3292 3.30504H11.321L11.3125 3.30525L11.304 3.30546L11.2955 3.30572L11.287 3.30624L11.2785 3.30677L11.2699 3.30729L11.2619 3.30781L11.2534 3.30833L11.2454 3.30886L11.2374 3.30938L11.2294 3.3099L11.2209 3.31042L11.2129 3.31094L11.2044 3.31199L11.1959 3.31303L11.1879 3.31408L11.1793 3.31512L11.1708 3.31617L11.1623 3.31721L11.1543 3.31826L11.1458 3.3193L11.1378 3.32035L11.1298 3.32139L11.1213 3.32244L11.1133 3.32348L11.1053 3.32453L11.0972 3.32557L11.0892 3.32662L11.0807 3.32766L11.0727 3.32923L11.0647 3.33027L11.0562 3.33184L11.0482 3.33341L11.0402 3.33497L11.0322 3.33654L11.0242 3.33811L11.0161 3.33967L11.0081 3.34124L11.0001 3.34229L10.9916 3.34385L10.9836 3.34542L10.9751 3.34699L10.9671 3.34855L10.9591 3.35012L10.9511 3.35169L10.9431 3.35378L10.9351 3.35587L10.927 3.35796L10.919 3.35952L10.911 3.36109L10.903 3.36318L10.895 3.36527L10.887 3.36736L10.879 3.36945L10.871 3.37154L10.863 3.37363L10.855 3.37572L10.8469 3.37781L10.8389 3.3799L10.8309 3.38199L10.8229 3.3846L10.8149 3.38669L10.8069 3.3893L10.7994 3.39191L10.7914 3.39452L10.7834 3.39713L10.7754 3.39975L10.7674 3.40236L10.7593 3.40497L10.7518 3.40758L10.7438 3.41019L10.7358 3.41333L10.7278 3.41594L10.7198 3.41855L10.7118 3.42169L10.7038 3.4243L10.6958 3.42691L10.6883 3.42952L10.6802 3.43265L10.6722 3.43579L10.6642 3.43892L10.6567 3.44206L10.6487 3.44519L10.6412 3.44833L10.6337 3.45146L10.6257 3.45512L10.6177 3.45825L10.6097 3.46138L10.6017 3.46452L10.5941 3.46818L10.5866 3.47131L10.5786 3.47497L10.5711 3.47862L10.5636 3.48228L10.5561 3.48594L10.5481 3.48959L10.5406 3.49325L10.5326 3.49691L10.5251 3.50056L10.5176 3.50422L10.51 3.50787L10.502 3.51153L10.4945 3.51519L10.487 3.51884L10.4795 3.52302L10.472 3.5272L10.4645 3.53086L10.457 3.53504L10.4495 3.53869L10.442 3.54287L10.4345 3.54705L10.4269 3.55123L10.4194 3.55541L10.4119 3.55959L10.4044 3.56429L10.3974 3.56847L10.3899 3.57265L10.3829 3.57683L10.3754 3.58153L10.3679 3.58623L10.3604 3.59093L10.3534 3.59511L10.3458 3.59981L10.3388 3.60451L10.3313 3.60921L10.3238 3.61391L10.3158 3.61914L5.28983 6.85151L5.28132 6.85726L5.27331 6.86248L5.2658 6.8677L5.25829 6.87293L5.25078 6.87815L5.24327 6.88337L5.23576 6.8886L5.22825 6.89382L5.22074 6.89904L5.21324 6.90427L5.20573 6.90949L5.19822 6.91472L5.19071 6.92046L5.1837 6.92568L5.17669 6.93091L5.16918 6.93613L5.16217 6.94136L5.15517 6.94658L5.14816 6.9518L5.14115 6.95703L5.13414 6.96225L5.12713 6.96747L5.12012 6.97322L5.11312 6.97844L5.10611 6.98419L5.0991 6.98994L5.09209 6.99568L5.08508 7.00143L5.07807 7.00717L5.07107 7.01292L5.06456 7.01867L5.05755 7.02441L5.05054 7.03016L5.04403 7.0359L5.03703 7.04165L5.03002 7.0474L5.02351 7.05314L5.0165 7.05889L5.00999 7.06463L5.00349 7.07038L4.99698 7.07665L4.99047 7.08292L4.98396 7.08866L4.97745 7.09441L4.97095 7.10068L4.96444 7.10694L4.95793 7.11321L4.95142 7.11948L4.94492 7.12575L4.93841 7.13202L4.9319 7.13829L4.92539 7.14455L4.91888 7.15082L4.91238 7.15709L4.90587 7.16336L4.89986 7.16963L4.89335 7.1759L4.88735 7.18269L4.88084 7.18896L4.87483 7.19575L4.86883 7.20201L4.86282 7.20881L4.85681 7.21507L4.8508 7.22186L4.8448 7.22865L4.83829 7.23545L4.83228 7.24171L4.82627 7.2485L4.82027 7.2553L4.81426 7.26209L4.80875 7.26888L4.80275 7.27567L4.79674 7.28246L4.79073 7.28925L4.78473 7.29656L4.77872 7.30335L4.77321 7.31014L4.7677 7.31693L4.7617 7.32425L4.75619 7.33104L4.75018 7.33783L4.74468 7.34514L4.73917 7.35193L4.73366 7.35924L4.72816 7.36656L4.72265 7.37387L4.71714 7.38118L4.71164 7.3885L4.70613 7.39581L4.70113 7.40312L4.69562 7.41044L4.69011 7.41775L4.68461 7.42506L4.6791 7.43238L4.67409 7.43969L4.66909 7.447L4.66408 7.45431L4.65908 7.46215L4.65407 7.46946L4.64906 7.47678L4.64406 7.48461L4.63905 7.49192L4.63405 7.49924L4.62904 7.50655L4.62403 7.51386L4.61953 7.5217L4.61452 7.52953L4.60952 7.53685L4.60451 7.54468L4.6 7.55252L4.5955 7.55983L4.59099 7.56767L4.58649 7.5755L4.58198 7.58334L4.57748 7.59117L4.57247 7.59901L4.56747 7.60684L4.56296 7.61468L4.55846 7.62252L4.55395 7.63035L4.54944 7.63819L4.54494 7.64602L4.54043 7.65386L4.53593 7.66169L4.53142 7.66953L4.52692 7.67736L4.52241 7.6852L4.51791 7.69356L4.5134 7.70139L4.5089 7.70923L4.50439 7.71759L4.50039 7.72542L4.49638 7.73378L4.49238 7.74214L4.48837 7.75049L4.48437 7.75833L4.48036 7.76616L4.47636 7.77452L4.47235 7.78236L4.46835 7.79072L4.46484 7.79855L4.46084 7.80691L4.45683 7.81527L4.45283 7.82362L4.44882 7.83198L4.44482 7.84034L4.44132 7.8487L4.43781 7.85706L4.43431 7.86541L4.4308 7.87377L4.4273 7.88213L4.42379 7.89049L4.42029 7.89884L4.41679 7.9072L4.41328 7.91556L4.41028 7.92392L4.40677 7.93228L4.40327 7.94116L4.39977 7.94951L4.39626 7.95787L4.39276 7.96623L4.38975 7.97459L4.38625 7.98347L4.38275 7.99182L4.37974 8.00018L4.37674 8.00906L4.37374 8.01742L4.37073 8.0263L4.36773 8.03466L4.36472 8.04354L4.36172 8.05242L4.35872 8.0613L4.35621 8.07018L4.35321 8.07854L4.35021 8.08742L4.3477 8.0963L4.3452 8.10465L4.3427 8.11353L4.33969 8.12242L4.33719 8.13077L4.33469 8.13913L4.33219 8.14801L4.32918 8.15689L4.32668 8.16577L4.32418 8.17413L4.32167 8.18301L4.31917 8.19189L4.31667 8.20077L4.31416 8.20965L4.31166 8.21853L4.30966 8.22741L4.30766 8.23629L4.30515 8.24517L4.30315 8.25405L4.30065 8.26293L4.29865 8.27181L4.29664 8.28069L4.29464 8.29009L4.29264 8.29897L4.29064 8.30785L4.28863 8.31673L4.28663 8.32561L4.28463 8.33449L4.28263 8.34337L4.28113 8.35225L4.27912 8.36113L4.27762 8.37001L4.27612 8.37942L4.27462 8.38882L4.27312 8.39822L4.27161 8.40762L4.27011 8.4165L4.26861 8.42538L4.26711 8.43479L4.26561 8.44419L4.2641 8.45307L4.2626 8.46195L4.2611 8.47083L4.2596 8.48023L4.2586 8.48963L4.2576 8.49904L4.2566 8.50792L4.25509 8.51732L4.25359 8.5262L4.25259 8.5356L4.25159 8.54501L4.25059 8.55441L4.24959 8.56381L4.24859 8.57321L4.24759 8.58262L4.24658 8.5915L4.24558 8.6009L4.24458 8.6103L4.24408 8.6197L4.24308 8.62911L4.24208 8.63851L4.24158 8.64791L4.24108 8.65731L4.24058 8.66672L4.24008 8.67612L4.23958 8.68552L4.23908 8.69492L4.23857 8.70433L4.23807 8.71373L4.23757 8.72313L4.23707 8.73253V8.74194L4.23657 8.75134L4.23607 8.76074V8.77014L4.23557 8.77955V15.4031L4.23607 15.4125V15.4407L4.23657 15.4496L4.23707 15.459L4.23757 15.4684L4.23807 15.4778L4.23857 15.4872L4.23908 15.4966L4.23958 15.506L4.24008 15.5154L4.24058 15.5248L4.24158 15.5342L4.24208 15.5436L4.24258 15.553L4.24308 15.5624L4.24408 15.5713L4.24508 15.5807L4.24608 15.5896L4.24658 15.599L4.24759 15.6079L4.24859 15.6167L4.24959 15.6256L4.25059 15.6345L4.25159 15.6439L4.25259 15.6528L4.25359 15.6617L4.25459 15.6711L4.25559 15.6805L4.2566 15.6893L4.2576 15.6987L4.2591 15.7076L4.2606 15.7165L4.2621 15.7254L4.2636 15.7343L4.26511 15.7437L4.26661 15.7525L4.26811 15.7614L4.26961 15.7703L4.27111 15.7792L4.27312 15.7881L4.27462 15.7969L4.27612 15.8058L4.27762 15.8147L4.27962 15.8236L4.28163 15.8325L4.28313 15.8413L4.28513 15.8502L4.28713 15.8591L4.28913 15.868L4.29114 15.8769L4.29314 15.8857L4.29514 15.8946L4.29714 15.9035L4.29915 15.9119L4.30165 15.9202L4.30365 15.9291L4.30565 15.938L4.30766 15.9469L4.31016 15.9557L4.31216 15.9641L4.31416 15.973L4.31617 15.9813L4.31867 15.9902L4.32067 15.9986L4.32318 16.0075L4.32568 16.0163L4.32818 16.0247L4.33068 16.0336L4.33319 16.0425L4.33569 16.0508L4.33819 16.0597L4.3412 16.0681L4.3442 16.0764L4.3472 16.0848L4.35021 16.0931L4.35271 16.1015L4.35571 16.1104L4.35872 16.1187L4.36172 16.1271L4.36472 16.1354L4.36773 16.1438L4.37073 16.1522L4.37374 16.1605L4.37674 16.1689L4.37974 16.1772L4.38275 16.1856L4.38625 16.1939L4.38975 16.2023L4.39276 16.2107L4.39576 16.219L4.39877 16.2274L4.40177 16.2357L4.40477 16.2441L4.40828 16.2524L4.41178 16.2608L4.41528 16.2692L4.41879 16.2775L4.42229 16.2859L4.4258 16.2942L4.4293 16.3026L4.43281 16.311L4.43631 16.3193L4.43981 16.3277L4.44332 16.336L4.44682 16.3439L4.45083 16.3522L4.45483 16.3601L4.45884 16.3684L4.46284 16.3762L4.46685 16.3841L4.47085 16.3919L4.47486 16.3998L4.47886 16.4076L4.48287 16.4154L4.48737 16.4233L4.49138 16.4311L4.49538 16.4389L4.49939 16.4468L4.50389 16.4546L4.5084 16.4624L4.5124 16.4703L4.51641 16.4781L4.52041 16.4859L4.52492 16.4938L4.52892 16.5016L4.53343 16.5089L4.53793 16.5168L4.54244 16.5241L4.54694 16.5319L4.55145 16.5397L4.55595 16.5471L4.56046 16.5544L4.56496 16.5617L4.56947 16.569L4.57397 16.5768L4.57848 16.5847L4.58349 16.592L4.58799 16.5993L4.5925 16.6071L4.597 16.6144L4.60151 16.6218L4.60651 16.6291L4.61152 16.6364L4.61652 16.6442L4.62153 16.6515L4.62654 16.6588L4.63154 16.6662L4.63655 16.6735L4.64155 16.6808L4.64656 16.6881L4.65157 16.6954L4.65707 16.7027L4.66258 16.71L4.66759 16.7174L4.67259 16.7247L4.6776 16.732L4.6826 16.7393L4.68811 16.7461L4.69362 16.7529L4.69912 16.7602L4.70463 16.767L4.71014 16.7743L4.71564 16.7811L4.72115 16.7879L4.72666 16.7947L4.73216 16.8014L4.73767 16.8082L4.74318 16.815L4.74868 16.8218L4.75419 16.8286L4.7597 16.8354L4.7652 16.8422L4.77071 16.849L4.77672 16.8558L4.78272 16.8626L4.78823 16.8694L4.79424 16.8756L4.80024 16.8824L4.80625 16.8887L4.81226 16.8955L4.81776 16.9023L4.82377 16.9091L4.82978 16.9153L4.83579 16.9216L4.84179 16.9279L4.8478 16.9341L4.85381 16.9409L4.85981 16.9472L4.86582 16.9535L4.87183 16.9597L4.87784 16.966L4.88384 16.9723L4.89035 16.9785L4.89636 16.9848L4.90237 16.9911L4.90887 16.9973L4.91488 17.0036L4.92089 17.0099L4.9274 17.0161L4.9339 17.0219L4.94041 17.0276L4.94692 17.0339L4.95343 17.0402L4.95993 17.0459L4.96644 17.0517L4.97295 17.0579L4.97946 17.0642L4.98596 17.0699L4.99297 17.0757L4.99998 17.0814L5.00699 17.0872L5.0135 17.0929L5.02001 17.0987L5.02701 17.1044L5.03352 17.1102L5.04053 17.1154L5.04704 17.1211L5.05405 17.1269L5.06105 17.1326L5.06806 17.1384L5.07457 17.1436L5.08158 17.1493L5.08859 17.1546L5.0956 17.1603L5.1026 17.1661L5.10961 17.1713L5.11662 17.1765L5.12413 17.1817L5.13114 17.187L5.13815 17.1922L5.14515 17.1974L5.15216 17.2026L5.15917 17.2078L5.16618 17.2131L5.17369 17.2183L5.1812 17.223L5.18871 17.2282L5.19571 17.2334L5.20322 17.2387L5.21073 17.2439L5.21774 17.2486L5.22525 17.2533L5.23276 17.258L5.24027 17.2627L5.24778 17.2674L5.25529 17.2721L5.2633 17.2768L5.2708 17.2815L5.27831 17.2862L5.28682 17.2914L10.5271 20.4883L10.5336 20.4925L10.5391 20.4956L10.5451 20.4987L10.5511 20.5019L10.5571 20.505L10.5626 20.5086L10.5686 20.5118L10.5746 20.5149L10.5806 20.518L10.5866 20.5217L10.5926 20.5248L10.5987 20.528L10.6047 20.5311L10.6107 20.5342L10.6167 20.5374L10.6227 20.5405L10.6287 20.5436L10.6347 20.5468L10.6402 20.5499L10.6462 20.553L10.6522 20.5562L10.6582 20.5588L10.6642 20.5619L10.6702 20.5645L10.6762 20.5672L10.6823 20.5698L10.6883 20.5729L10.6943 20.576L10.7003 20.5786L10.7063 20.5818L10.7123 20.5844L10.7183 20.587L10.7243 20.5896L10.7303 20.5922L10.7363 20.5948L10.7423 20.5975L10.7483 20.6001L10.7543 20.6027L10.7603 20.6053L10.7664 20.6074L10.7729 20.61L10.7789 20.6126L10.7849 20.6152L10.7909 20.6178L10.7969 20.6204L10.8029 20.6225L10.8089 20.6251L10.8149 20.6272L10.8209 20.6293L10.8274 20.6314L10.8334 20.6335L10.8389 20.6356L10.852 20.6398L10.8645 20.6439L10.877 20.6476L10.8895 20.6513L10.902 20.6549L10.9145 20.6586L10.927 20.6622L10.9396 20.6659L10.9521 20.6695L10.9646 20.6727L10.9771 20.6758L10.9896 20.6789L11.0021 20.6815L11.0146 20.6847L11.0272 20.6873L11.0397 20.6899L11.0522 20.6925L11.0647 20.6946L11.0772 20.6972L11.0897 20.6993L11.1023 20.7014L11.1153 20.7035L11.1278 20.7056L11.1408 20.7071L11.1538 20.7087L11.1668 20.7103L11.1798 20.7113L11.1924 20.7124L11.2054 20.7134L11.2179 20.7145L11.2309 20.7155L11.2439 20.7165L11.2564 20.7176L11.2689 20.7181L11.2815 20.7186L11.2945 20.7192H11.3586L11.3716 20.7186H11.3846L11.3976 20.7181L11.4106 20.7176L11.4236 20.7165L11.4366 20.7155L11.4497 20.715L11.4627 20.7139L11.4757 20.7129L11.4887 20.7118L11.5012 20.7108L11.5142 20.7092L11.5273 20.7077L11.5398 20.7061L11.5528 20.7045L11.5653 20.7024L11.5783 20.7004L11.5908 20.6983L11.6038 20.6962L11.6164 20.6941L11.6289 20.6915L11.6414 20.6894L11.6544 20.6868L11.6669 20.6842L11.6794 20.681L11.692 20.6784L11.7045 20.6753L11.717 20.6721L11.7295 20.669L11.742 20.6659L11.7545 20.6622L11.767 20.6586L11.7796 20.6549L11.7921 20.6513L11.8051 20.6471L11.8111 20.645L11.8171 20.6429L11.8231 20.6408L11.8296 20.6387L11.8356 20.6366L11.8421 20.6345L11.8481 20.6324L11.8541 20.6304L11.8607 20.6283L11.8667 20.6262L11.8727 20.6241L11.8792 20.6215L11.8852 20.6194L11.8917 20.6173L11.8977 20.6147L11.9037 20.6126L11.9097 20.6105L11.9157 20.6084L11.9222 20.6058L11.9282 20.6037L11.9342 20.6011L11.9402 20.5985L11.9463 20.5959L11.9523 20.5933L11.9583 20.5907L11.9643 20.588L11.9703 20.5854L11.9763 20.5828L11.9823 20.5802L11.9883 20.5776L11.9943 20.5745L12.0003 20.5713L12.0063 20.5687L12.0123 20.5656L12.0183 20.5625L12.0243 20.5598L12.0304 20.5567L12.0364 20.5536L12.0424 20.5504L12.0479 20.5473L12.0539 20.5442L12.0599 20.541L12.0659 20.5379L12.0719 20.5348L12.0779 20.5316L12.0839 20.5285L12.0899 20.5254L12.0959 20.5222L12.1014 20.5191L12.1074 20.516L12.1135 20.5128L12.12 20.5092L17.9254 17.1331L17.9324 17.1295L17.9389 17.1258L17.9449 17.1222L17.9509 17.1185L17.9569 17.1149L17.9629 17.1107L17.9694 17.107L17.9754 17.1034L17.9814 17.0997L17.9875 17.0961L17.9935 17.0919L17.9995 17.0877L18.0055 17.084L18.0115 17.0804L18.0175 17.0767L18.0235 17.0726L18.0295 17.0684L18.0355 17.0647L18.0415 17.0605L18.0475 17.0569L18.053 17.0527L18.0585 17.0485L18.064 17.0443L18.0696 17.0402L18.0751 17.036L18.0811 17.0318L18.0866 17.0276L18.0926 17.0235L18.0981 17.0193L18.1036 17.0151L18.1091 17.0109L18.1146 17.0067L18.1201 17.0026L18.1261 16.9984L18.1316 16.9937L18.1371 16.9895L18.1426 16.9848L18.1481 16.9806L18.1537 16.9759L18.1592 16.9712L18.1647 16.9665L18.1702 16.9623L18.1757 16.9582L18.1812 16.9535L18.1862 16.9488L18.1917 16.9441L18.1972 16.9394L18.2022 16.9352L18.2077 16.9305L18.2132 16.9252L18.2182 16.9205L18.2237 16.9158L18.2287 16.9111L18.2337 16.9064L18.2388 16.9012L18.2443 16.8965L18.2493 16.8913L18.2543 16.8866L18.2593 16.8814L18.2643 16.8761L18.2693 16.8714L18.2743 16.8662L18.2793 16.8615L18.2843 16.8563L18.2893 16.8511L18.2943 16.8458L18.2993 16.8406L18.3038 16.8354L18.3088 16.8302L18.3133 16.825L18.3183 16.8197L18.3234 16.8145L18.3284 16.8093L18.3329 16.8041L18.3374 16.7988L18.3419 16.7936L18.3464 16.7884L18.3514 16.7832L18.3559 16.7779L18.3604 16.7727L18.3649 16.7675L18.3694 16.7623L18.3739 16.757L18.3784 16.7518L18.3829 16.7466L18.3874 16.7409L18.3919 16.7351L18.3964 16.7294L18.4009 16.7241L18.4055 16.7189L18.41 16.7137L18.4145 16.7079L18.419 16.7027L18.4235 16.697L18.4275 16.6918L18.4315 16.686L18.4355 16.6803L18.4395 16.675L18.444 16.6693L18.448 16.6635L18.452 16.6578L18.456 16.6521L18.46 16.6463L18.464 16.6406L18.468 16.6348L18.472 16.6291L18.476 16.6233L18.48 16.6176L18.484 16.6118L18.488 16.6061L18.4921 16.6003L18.4956 16.5946L18.4991 16.5883L18.5031 16.5821L18.5071 16.5763L18.5106 16.5706L18.5141 16.5648L18.5181 16.5586L18.5221 16.5528L18.5256 16.5471L18.5291 16.5408L18.5326 16.5345L18.5361 16.5283L18.5396 16.522L18.5431 16.5162L18.5466 16.51L18.5501 16.5037L18.5536 16.498L18.5571 16.4917L18.5606 16.4854L18.5641 16.4792L18.5671 16.4729L18.5701 16.4666L18.5737 16.4603L18.5772 16.4541L18.5802 16.4478L18.5837 16.4415L18.5872 16.4353L18.5902 16.429L18.5932 16.4227L18.5962 16.4159L18.5992 16.4097L18.6027 16.4034L18.6062 16.3971L18.6092 16.3909L18.6122 16.3846L18.6152 16.3783L18.6182 16.3715L18.6212 16.3653L18.6242 16.359L18.6272 16.3522L18.6302 16.346L18.6332 16.3397L18.6362 16.3329L18.6392 16.3261L18.6422 16.3193L18.6452 16.313L18.6477 16.3068L18.6502 16.3L18.6527 16.2932L18.6552 16.2864L18.6578 16.2801L18.6603 16.2733L18.6628 16.2666L18.6653 16.2598L18.6678 16.2535L18.6703 16.2467L18.6728 16.2399L18.6753 16.2331L18.6778 16.2263L18.6803 16.2195L18.6823 16.2127L18.6843 16.206L18.6863 16.1992L18.6883 16.1924L18.6908 16.1856L18.6933 16.1788L18.6958 16.172L18.6983 16.1652L18.7003 16.1584L18.7028 16.1516L18.7048 16.1448L18.7068 16.1381L18.7093 16.1313L18.7113 16.1245L18.7133 16.1177L18.7153 16.1109L18.7173 16.1041L18.7188 16.0973L18.7208 16.0905L18.7228 16.0837L18.7248 16.0769L18.7268 16.0701L18.7283 16.0634L18.7298 16.056L18.7318 16.0492L18.7333 16.0425L18.7348 16.0351L18.7368 16.0284L18.7383 16.0216L18.7399 16.0148L18.7414 16.008L18.7429 16.0007L18.7444 15.9939L18.7459 15.9871L18.7469 15.9798L18.7484 15.9725L18.7499 15.9657L18.7509 15.9584L18.7524 15.9516L18.7539 15.9443L18.7554 15.9369L18.7569 15.9302L18.7584 15.9228L18.7594 15.9155L18.7609 15.9082L18.7619 15.9014L18.7634 15.8946L18.7644 15.8873L18.7654 15.88L18.7664 15.8727L18.7674 15.8654L18.7684 15.8581L18.7694 15.8508L18.7704 15.8434L18.7709 15.8361L18.7719 15.8293L18.7724 15.822L18.7734 15.8147L18.7744 15.8079L18.7754 15.8006L18.7759 15.7933L18.7764 15.786L18.7769 15.7787L18.7774 15.7714L18.7784 15.764L18.7789 15.7567L18.7794 15.7494L18.7799 15.7421L18.7804 15.7348L18.7809 15.7275L18.7814 15.7202L18.7819 15.7128L18.7824 15.7055L18.7829 15.6982L18.7834 15.6909L18.7839 15.6836V15.669L18.7844 15.6617V8.43056L18.7839 8.42413L18.7834 8.41734V8.41055L18.7829 8.40376V8.39697L18.7824 8.39018V8.38339L18.7819 8.3766L18.7814 8.37033L18.7809 8.36354L18.7804 8.35675L18.7799 8.34996L18.7794 8.34369L18.7789 8.3369L18.7784 8.33063L18.7779 8.32384L18.7769 8.31705L18.7764 8.31078L18.7759 8.30451L18.7749 8.29824L18.7744 8.29197L18.7734 8.28518L18.7729 8.27891L18.7719 8.27265L18.7709 8.26586L18.7704 8.25906L18.7699 8.2528L18.7689 8.24705L18.7669 8.23331L18.7654 8.21999L18.7634 8.20641L18.7614 8.19335L18.7589 8.18029L18.7564 8.16723L18.7544 8.15417L18.7519 8.14112L18.7489 8.12806L18.7459 8.115L18.7429 8.10194L18.7399 8.08888L18.7368 8.07582L18.7338 8.06276L18.7308 8.0497L18.7273 8.03664L18.7238 8.02358L18.7203 8.01053L18.7163 7.99747L18.7128 7.98493L18.7088 7.97239L18.7048 7.95986L18.7008 7.94732L18.6968 7.93478L18.6923 7.92225L18.6878 7.90971L18.6833 7.8977L18.6788 7.88516L18.6743 7.87262L18.6698 7.86009L18.6648 7.84807L18.6603 7.83553L18.6552 7.82352L18.6502 7.81151L18.6452 7.79949L18.6397 7.78748L18.6347 7.77546L18.6292 7.76345L18.6237 7.75143L18.6182 7.73994L18.6122 7.72793L18.6067 7.71591L18.6007 7.7039L18.5947 7.69241L18.5887 7.68091L18.5827 7.66942L18.5767 7.65793L18.5706 7.64644L18.5641 7.63495L18.5576 7.62346L18.5511 7.61196L18.5441 7.60047L18.5376 7.5895L18.5311 7.57853L18.5241 7.56756L18.5171 7.55659L18.5101 7.54562L18.5031 7.53465L18.4961 7.52368L18.4891 7.51271L18.4815 7.50227L18.474 7.49182L18.4665 7.48137L18.459 7.47093L18.4515 7.46048L18.4435 7.45003L18.4355 7.43958L18.4275 7.42914L18.4195 7.41869L18.4115 7.40876L18.4029 7.39884L18.3949 7.38892L18.3864 7.37899L18.3779 7.36907L18.3694 7.35914L18.3609 7.34922L18.3524 7.33929L18.3434 7.32989L18.3344 7.32049L18.3254 7.31108L18.3163 7.30168L18.3073 7.29228L18.2978 7.28288L18.2883 7.27347L18.2788 7.26459L18.2693 7.25571L18.2598 7.24683L18.2503 7.23795L18.2408 7.22907L18.2307 7.22019L18.2207 7.21183L18.2107 7.20348L18.2012 7.19512L18.1907 7.18624L18.1862 7.18258L18.1812 7.1784L18.1762 7.17422L18.1712 7.17005L18.1662 7.16587L18.1612 7.16221L18.1562 7.15803L18.1511 7.15385L18.1456 7.14967L18.1401 7.14549L18.1351 7.14132L18.1301 7.13714L18.1251 7.13296L18.1201 7.1293L18.1151 7.12512L18.1096 7.12094L18.1046 7.11729L18.0996 7.11363L18.0941 7.10945L18.0886 7.1058L18.0831 7.10214L18.0781 7.09848L18.0726 7.09483L18.067 7.09117L18.0615 7.08751L18.056 7.08386L18.0505 7.0802L18.045 7.07654L18.0395 7.07289L18.034 7.06923L18.0285 7.06557L18.023 7.06244L18.0175 7.05931L18.011 7.05565L12.3463 3.58774L12.3383 3.58262L12.331 3.57845L12.3235 3.57374L12.316 3.56904L12.3086 3.56471L12.3011 3.56053L12.2939 3.55635L12.2864 3.55217L12.2789 3.54799L12.2713 3.54381L12.264 3.53963L12.2565 3.53546L12.249 3.53128L12.2415 3.5271L12.2339 3.52292L12.2264 3.51874L12.2189 3.51456L12.2113 3.5109L12.2038 3.50673L12.1963 3.50307L12.1887 3.49941L12.1812 3.49523L12.1735 3.49158L12.166 3.48792L12.1585 3.48426L12.1506 3.48061L12.1431 3.47695L12.1356 3.47382L12.1279 3.47016L12.1203 3.4665L12.1128 3.46285L12.105 3.45971L12.0975 3.45658L12.0895 3.45344L12.0818 3.44979L12.0739 3.44665L12.0658 3.443L12.0578 3.43986L12.0501 3.43673L12.0423 3.4336L12.0345 3.43046L12.0265 3.42733L12.0184 3.42419L12.0109 3.42106L12.0034 3.41845L11.9959 3.41583L11.9879 3.4127L11.9799 3.41009L11.9724 3.40748L11.9644 3.40487L11.9564 3.40225L11.9489 3.39964L11.9409 3.39703L11.9328 3.39442L11.9248 3.39181L11.9173 3.38919L11.9093 3.38658L11.9013 3.38397L11.8933 3.38136L11.8853 3.37927L11.8773 3.37666L11.8693 3.37457L11.8613 3.37196L11.8532 3.36987L11.8452 3.36778L11.8372 3.36569L11.8292 3.36308L11.8212 3.36099L11.8132 3.3589L11.8052 3.35733L11.7972 3.35524L11.7892 3.35315L11.7812 3.35106L11.7731 3.34949L11.7651 3.34741L11.7571 3.34584L11.7491 3.34427L11.7411 3.34218L11.7331 3.34061L11.7251 3.33905L11.7171 3.33748L11.7091 3.33591L11.7011 3.33435L11.6931 3.33278L11.6845 3.33121L11.6765 3.33017L11.6685 3.32912L11.6605 3.32808L11.6525 3.32703L11.6445 3.32547L11.6365 3.3239L11.6285 3.32285L11.62 3.32129L11.612 3.32024L11.6039 3.31868L11.5959 3.31763L11.5879 3.31659L11.5799 3.31554L11.5719 3.3145L11.5639 3.31345L11.5554 3.31241L11.5474 3.31188L11.5394 3.31084L11.5314 3.3098L11.5234 3.30927L11.5153 3.30875L11.5073 3.30823L11.4993 3.30771L11.4913 3.30718L11.4828 3.30666L11.4743 3.30614L11.4663 3.30562L11.4583 3.30509H11.4503L11.4423 3.30457L11.4342 3.30405H11.4257L11.4177 3.30353L11.4097 3.303L11.4022 3.30248L11.3942 3.30196H11.3777L11.3697 3.30144H11.3537L11.3456 3.30494Z" fill="#DB2777"/>
<path fill-rule="evenodd" clip-rule="evenodd" d="M19.4597 8.47268V14.8588L19.4587 14.8587V15.6078C19.4587 16.4926 18.9996 17.3081 18.2587 17.739C17.599 18.1225 16.7341 18.6251 15.8397 19.1449C14.6169 19.8555 13.339 20.5982 12.4548 21.1121C11.7495 21.522 10.8889 21.5128 10.1921 21.0876L4.94987 17.8901C4.08835 17.3646 3.55872 16.4014 3.55872 15.36V8.82146C3.55872 7.77151 4.08034 6.79678 4.93686 6.24569C6.29707 5.37031 8.37274 4.03479 9.78458 3.12637L9.96735 3.00878C10.7978 2.4744 11.8431 2.4628 12.6846 2.97848L18.3521 6.45323C19.0382 6.87394 19.4597 7.64222 19.4597 8.47268ZM7.53603 6.54465V17.369H9.70631V12.6361H13.3064V17.369H15.483V6.54465H13.3064V10.4874H9.70631V6.54465H7.53603Z" fill="#F472B6"/>
</svg>
