<svg width="24" height="24" viewBox="0 0 24 24" fill="none" xmlns="http://www.w3.org/2000/svg">
<path d="M12.7118 14.5118L10.6336 12.4582L10.6582 12.4337C12.0818 10.8464 13.0964 9.02184 13.6936 7.09093H16.0909V5.45457H10.3636V3.81821H8.72727V5.45457H3V7.09093H12.1391C11.5909 8.66184 10.7236 10.1591 9.54545 11.4682C8.78455 10.6255 8.15455 9.70093 7.65545 8.7273H6.01909C6.61636 10.0609 7.43455 11.3209 8.45727 12.4582L4.29273 16.5655L5.45455 17.7273L9.54545 13.6364L12.09 16.1809L12.7118 14.5118ZM17.3182 10.3637H15.6818L12 20.1818H13.6364L14.5527 17.7273H18.4391L19.3636 20.1818H21L17.3182 10.3637ZM15.1745 16.0909L16.5 12.5482L17.8255 16.0909H15.1745Z" fill="#C084FC"/>
</svg>
