<svg width="24" height="24" viewBox="0 0 24 24" fill="none" xmlns="http://www.w3.org/2000/svg">
<path d="M14.4203 7.45287L13.2518 9.91491C13.6357 10.286 13.9066 10.7749 14.0139 11.3285H14.8944C14.996 10.8043 15.2444 10.3331 15.6 9.96792L14.4203 7.45287Z" fill="#F472B6"/>
<path d="M12.2696 9.32001L14.4202 4.78467L16.5652 9.34946C16.6499 9.32001 16.7345 9.29645 16.8192 9.27289L18.8569 2.99998H9.97792L12.01 9.25522C12.0947 9.27289 12.185 9.29645 12.2696 9.32001ZM11.5302 13.3311C12.3148 13.3311 12.9526 12.6656 12.9526 11.8468C12.9526 11.5464 12.868 11.2696 12.7212 11.034C12.6761 10.9574 12.6196 10.8868 12.5632 10.822L12.5575 10.8161C12.5011 10.7513 12.4333 10.6924 12.3656 10.6453L12.36 10.6394C12.343 10.6276 12.3204 10.6099 12.2979 10.5982C12.2922 10.5982 12.2922 10.5923 12.2866 10.5923C12.264 10.5805 12.2414 10.5628 12.2188 10.551H12.2132C12.1906 10.5393 12.1624 10.5216 12.1398 10.5098H12.1342C12.1116 10.498 12.089 10.4862 12.0664 10.4804C12.0608 10.4804 12.0551 10.4745 12.0495 10.4745C12.0326 10.4686 12.01 10.4568 11.9931 10.4509C11.9874 10.4509 11.9818 10.445 11.9705 10.445C11.9479 10.4391 11.9253 10.4273 11.9027 10.4214H11.8971C11.8689 10.4156 11.8463 10.4097 11.8181 10.4038C11.8124 10.4038 11.8068 10.4038 11.7955 10.3979C11.7729 10.392 11.756 10.392 11.7334 10.3861C11.7221 10.3861 11.7165 10.3861 11.7052 10.3802C11.6882 10.3802 11.6657 10.3743 11.6487 10.3743H11.4286C11.406 10.3743 11.3891 10.3802 11.3665 10.3802H11.3439C11.3213 10.3861 11.2988 10.3861 11.2762 10.392H11.2593C11.231 10.3979 11.2085 10.4038 11.1802 10.4097C10.5593 10.5687 10.0965 11.1577 10.0965 11.8527C10.1077 12.6597 10.7456 13.3311 11.5302 13.3311ZM17.5135 10.3625H17.5022C17.4796 10.3625 17.4627 10.3567 17.4401 10.3567H17.3667C17.3385 10.3567 17.3103 10.3567 17.2764 10.3625H17.2482C17.2256 10.3625 17.2031 10.3684 17.1805 10.3684C17.1748 10.3684 17.1635 10.3684 17.1579 10.3743L17.0732 10.392H17.0676C17.0394 10.3979 17.0168 10.4038 16.9886 10.4097C16.9829 10.4097 16.9716 10.4156 16.966 10.4156C16.9434 10.4214 16.9208 10.4273 16.8982 10.4391C16.8926 10.4391 16.887 10.445 16.8813 10.445C16.8531 10.4568 16.8249 10.4686 16.8023 10.4804C16.7741 10.4921 16.7515 10.5039 16.7233 10.5157C16.7176 10.5157 16.712 10.5216 16.7063 10.5216C16.6837 10.5334 16.6612 10.5451 16.6386 10.5628C16.6386 10.5628 16.6329 10.5628 16.6329 10.5687C16.5821 10.5982 16.5313 10.6335 16.4862 10.6747L16.4805 10.6806C16.4072 10.7395 16.3451 10.8043 16.283 10.875C16.2209 10.9457 16.1701 11.0281 16.1249 11.1106C16.0064 11.3285 15.9387 11.5818 15.9387 11.8468C15.9387 12.6656 16.5765 13.3311 17.3611 13.3311C18.1457 13.3311 18.7835 12.6656 18.7835 11.8468C18.7835 11.1283 18.2868 10.5216 17.6377 10.3861C17.6038 10.3743 17.5587 10.3684 17.5135 10.3625ZM5.63155 13.3311C6.41616 13.3311 7.054 12.6656 7.054 11.8468C7.054 11.0281 6.41616 10.3625 5.63155 10.3625C4.84695 10.3625 4.20911 11.0281 4.20911 11.8468C4.20911 12.6656 4.84695 13.3311 5.63155 13.3311Z" fill="#F472B6"/>
<path d="M17.3724 14.4797C16.1983 14.4797 15.2105 13.6374 14.9283 12.5065H13.98C13.6977 13.6374 12.7099 14.4797 11.5358 14.4797C11.4004 14.4797 11.2705 14.4679 11.1464 14.4502C10.819 14.9745 10.4295 15.4574 9.97227 15.9051C9.16509 16.7002 8.25066 17.2893 7.26285 17.6603L7.03142 17.7487L6.81692 17.6309C5.63155 16.9948 5.02193 15.7048 5.23643 14.4561C5.10096 14.4326 4.97113 14.3972 4.84695 14.3501C4.82437 14.3913 4.80743 14.4385 4.78486 14.4856C4.4236 15.2631 4.04541 16.0641 3.90994 16.9241C3.76318 17.8429 3.70109 19.5216 4.94291 20.4169C5.48479 20.8056 6.0549 21 6.69274 21C7.91763 21 9.23847 20.3167 10.6383 19.5923C11.7334 19.0268 12.8623 18.4378 14.0364 18.1374C14.4823 18.0255 14.9339 17.9548 15.3685 17.89C16.1644 17.7722 16.9208 17.6544 17.5361 17.2834C18.1909 16.8887 18.6368 16.229 18.761 15.4751C18.84 15.0157 18.7948 14.5504 18.6481 14.1204C18.2755 14.3442 17.8409 14.4797 17.3724 14.4797Z" fill="#F472B6"/>
</svg>
