<svg width="24" height="24" viewBox="0 0 24 24" fill="none" xmlns="http://www.w3.org/2000/svg">
<path d="M9.8808 16.1769C9.8808 17.9721 8.4967 19.3539 6.8779 19.3539C5.2591 19.3539 3.875 17.9721 3.875 16.1769C3.875 14.3818 5.2591 13 6.8779 13C8.4967 13 9.8808 14.3818 9.8808 16.1769Z" stroke="#F87171" stroke-width="2"/>
<path d="M14.5029 7.82306C14.5029 9.6182 13.1188 11 11.5 11C9.88123 11 8.49713 9.6182 8.49713 7.82306C8.49713 6.02792 9.88123 4.64612 11.5 4.64612C13.1188 4.64612 14.5029 6.02792 14.5029 7.82306Z" stroke="#4ADE80" stroke-width="2"/>
<path d="M19.125 16.1769C19.125 17.9721 17.7409 19.3539 16.1221 19.3539C14.5033 19.3539 13.1192 17.9721 13.1192 16.1769C13.1192 14.3818 14.5033 13 16.1221 13C17.7409 13 19.125 14.3818 19.125 16.1769Z" stroke="#C084FC" stroke-width="2"/>
</svg>
