<svg width="24" height="24" viewBox="0 0 24 24" fill="none" xmlns="http://www.w3.org/2000/svg">
<path fill-rule="evenodd" clip-rule="evenodd" d="M10.3985 5.29991C14.551 5.29991 17.922 8.8175 17.922 13.1505C17.922 17.4835 14.551 21.0011 10.3985 21.0011C6.24603 21.0011 2.875 17.4835 2.875 13.1505C2.875 8.8175 6.24603 5.29991 10.3985 5.29991ZM13.516 7.59865C14.7318 7.59865 15.719 8.62878 15.719 9.89745C15.719 11.1661 14.7318 12.1962 13.516 12.1962C12.3002 12.1962 11.313 11.1661 11.313 9.89745C11.313 8.62878 12.3002 7.59865 13.516 7.59865Z" fill="#2563EB"/>
<path d="M20.125 5.2977C20.125 4.02902 19.1378 2.9989 17.922 2.9989C16.7062 2.9989 15.719 4.02902 15.719 5.2977C15.719 6.56637 16.7062 7.59649 17.922 7.59649C19.1378 7.59649 20.125 6.56854 20.125 5.2977Z" fill="#2563EB"/>
</svg>
