<svg width="24" height="24" viewBox="0 0 24 24" fill="none" xmlns="http://www.w3.org/2000/svg">
<path fill-rule="evenodd" clip-rule="evenodd" d="M18.7603 21.7751L16.6486 18.435L11.3602 10.07C9.61601 7.31667 8.15699 5.03001 8.11786 4.98334C7.9781 4.82584 7.88866 4.80251 7.35758 4.80251C6.90476 4.80251 6.86005 4.80834 6.75383 4.86084C6.69234 4.90167 6.60289 4.97167 6.55817 5.03001C6.50724 5.10214 6.47981 5.18822 6.47963 5.27652L6.46872 10.6242L6.46327 15.9899C6.46318 16.075 6.48224 16.159 6.51903 16.2358C6.55893 16.3168 6.61874 16.3853 6.69234 16.4342C6.77234 16.4911 6.86808 16.5217 6.96626 16.5217H7.26813C7.66505 16.5217 7.73772 16.51 7.82157 16.4633C7.92552 16.4138 8.00888 16.3268 8.05636 16.2183C8.10063 16.126 8.10108 15.965 8.11193 12.139L8.11226 12.0183C8.11604 10.4999 8.12235 9.16716 8.12949 8.46019C8.13288 8.12427 8.25166 8.09196 8.43638 8.37255C9.24614 9.60259 10.0493 10.8373 10.8459 12.0767L13.5348 16.2242L15.6815 19.2517C16.7926 20.8195 17.7384 22.1419 17.8508 22.2939C17.8583 22.3041 17.8717 22.3112 17.8711 22.3239M16.2768 4.60829C16.2308 4.55323 16.1747 4.50821 16.112 4.47584C16.0281 4.42334 15.961 4.42334 15.5697 4.42334C15.156 4.42334 15.1225 4.42334 15.0107 4.48167C14.9479 4.51816 14.8928 4.56742 14.8486 4.62654C14.8044 4.68566 14.7721 4.75343 14.7535 4.82584C14.7368 4.89001 14.7256 6.19084 14.7256 8.50084V11.7952C14.7256 11.9829 14.7784 12.1669 14.8781 12.326L15.5585 13.4125C15.8015 13.7978 16.3971 13.6257 16.3971 13.1702V9.81917C16.4026 6.38917 16.3971 4.86667 16.3803 4.79667C16.3581 4.72737 16.3229 4.66335 16.2768 4.60829Z" fill="#64748B"/>
</svg>
