<svg width="24" height="24" viewBox="0 0 24 24" fill="none" xmlns="http://www.w3.org/2000/svg">
<path d="M11.9894 1.6496C11.8195 1.6496 11.6494 1.6936 11.4971 1.78144L3.35192 6.48664C3.20237 6.57304 3.07818 6.69726 2.99182 6.84684C2.90546 6.99642 2.85997 7.16608 2.85992 7.3388V16.7494C2.85995 16.9221 2.90544 17.0917 2.99184 17.2413C3.07824 17.3908 3.20248 17.5149 3.35208 17.6011L11.4973 22.3024H11.4974C11.6468 22.3888 11.8164 22.4342 11.989 22.4342C12.1616 22.4342 12.3312 22.3888 12.4806 22.3024L20.6278 17.6011C20.7775 17.5148 20.9018 17.3907 20.9883 17.2411C21.0747 17.0915 21.1201 16.9217 21.1201 16.749V7.33904C21.12 7.16636 21.0746 6.99673 20.9883 6.84716C20.902 6.69759 20.7779 6.57334 20.6284 6.48688L12.4812 1.7816C12.3315 1.6952 12.1618 1.64973 11.989 1.64976L11.9894 1.6496ZM6.66424 5.6744C6.66424 5.6744 7.60736 8.31688 9.5024 8.22912L11.7216 6.95224C11.8048 6.90388 11.8986 6.87669 11.9947 6.87304H12.046C12.1419 6.87644 12.2355 6.90366 12.3183 6.95224L14.5374 8.22912C16.4326 8.31664 17.3754 5.6744 17.3754 5.6744C17.794 7.52672 17.4602 8.76568 16.9014 9.58976L17.2647 9.79888H17.2649C17.4506 9.90504 17.5636 10.1025 17.5638 10.3181L17.5542 17.983C17.5543 18.0352 17.5407 18.0866 17.5146 18.1319C17.4886 18.1772 17.4511 18.2149 17.4058 18.2411C17.3607 18.2682 17.3091 18.2826 17.2564 18.2826C17.2038 18.2826 17.1522 18.2682 17.107 18.2411L14.168 16.5577C13.9831 16.4486 13.8686 16.2522 13.8686 16.0393V12.4582C13.8688 12.3533 13.8413 12.2502 13.7887 12.1594C13.7362 12.0686 13.6607 11.9933 13.5697 11.941L12.3183 11.2202C12.2283 11.1671 12.1256 11.1392 12.0211 11.1394C11.9159 11.1392 11.8126 11.1671 11.7218 11.2202L10.4699 11.941C10.2846 12.0469 10.1716 12.2449 10.1716 12.4584V16.0394C10.1716 16.2524 10.0586 16.4474 9.87256 16.5578L6.93272 18.241C6.888 18.2682 6.83666 18.2826 6.78432 18.2826C6.73198 18.2826 6.68065 18.2682 6.63592 18.241C6.54208 18.189 6.4868 18.0901 6.4868 17.9831L6.47584 10.3182C6.4757 10.213 6.50328 10.1096 6.5558 10.0184C6.60833 9.92728 6.68395 9.85158 6.77504 9.79896L7.13832 9.58976C6.57976 8.7656 6.24552 7.52656 6.66432 5.6744H6.66424Z" fill="#14B8A6"/>
</svg>
