<svg width="24" height="24" viewBox="0 0 24 24" fill="none" xmlns="http://www.w3.org/2000/svg">
<path fill-rule="evenodd" clip-rule="evenodd" d="M20.125 4C20.125 3.44772 19.6773 3 19.125 3H3.875C3.32272 3 2.875 3.44772 2.875 4V20.1C2.875 20.6523 3.32272 21.1 3.875 21.1H19.125C19.6773 21.1 20.125 20.6523 20.125 20.1V4ZM11.5 17C11.5 17.5523 11.0523 18 10.5 18H6.75001C6.19772 18 5.75001 17.5523 5.75001 17V7.00004C5.75001 6.44775 6.19772 6.00004 6.75001 6.00004H16.25C16.8023 6.00004 17.25 6.44775 17.25 7.00004V17C17.25 17.5523 16.8023 18 16.25 18H15.375C14.8227 18 14.375 17.5523 14.375 17V10C14.375 9.44775 13.9273 9.00004 13.375 9.00004H12.5C11.9477 9.00004 11.5 9.44775 11.5 10V17Z" fill="#F87171"/>
</svg>
