<svg width="24" height="24" viewBox="0 0 24 24" fill="none" xmlns="http://www.w3.org/2000/svg">
<path d="M5.26836 4.15668C4.97051 4.15656 4.67556 4.21512 4.40034 4.32902C4.12513 4.44293 3.87505 4.60993 3.6644 4.8205C3.45375 5.03108 3.28664 5.28109 3.17263 5.55626C3.05862 5.83142 2.99994 6.12636 2.99994 6.42421V11.3709C3.32438 11.2541 3.79083 10.5638 3.93733 10.3958C4.19347 10.1019 4.2402 9.72799 4.36693 9.49162C4.65722 8.95507 4.70755 8.58479 5.36722 8.58479C5.67459 8.58479 5.79682 8.65669 6.00533 8.9353C6.14913 9.12943 6.39898 9.48803 6.51582 9.72799C6.65063 10.0039 6.87172 10.3787 6.96788 10.4542C7.03978 10.5099 7.11168 10.553 7.17729 10.5773C7.28424 10.6169 7.37322 10.5441 7.44422 10.4874C7.53589 10.4137 7.57453 10.2654 7.65991 10.0677C7.78125 9.78282 7.91426 9.4413 7.98975 9.32176C8.12097 9.11505 8.16501 8.87149 8.30611 8.75286C8.51462 8.5776 8.78694 8.56592 8.86153 8.55064C9.28035 8.46795 9.46998 8.75286 9.67669 8.9371C9.8115 9.05663 9.99574 9.29929 10.1261 9.62464C10.2285 9.87898 10.3597 10.1136 10.4137 10.2601C10.4667 10.4021 10.5961 10.6285 10.6734 10.9009C10.7426 11.148 10.9304 11.3376 11.0014 11.4545C11.0014 11.4545 11.1102 11.7601 11.7726 12.0387C11.9164 12.0989 12.2058 12.1968 12.3783 12.2598C12.6659 12.364 12.9445 12.3505 13.2995 12.3083C13.5521 12.3083 13.6896 11.9416 13.8046 11.6486C13.872 11.4752 13.9376 10.979 13.9817 10.8379C14.0248 10.7004 13.9241 10.5953 14.0095 10.474C14.1102 10.3337 14.1695 10.3266 14.227 10.1432C14.351 9.75136 15.0682 9.73159 15.4709 9.73159C15.807 9.73159 15.7648 10.0578 16.3337 9.94639C16.6608 9.88168 16.9754 9.98773 17.3223 10.0803C17.6135 10.1576 17.8885 10.2457 18.0521 10.438C18.159 10.5629 18.4223 11.1876 18.1536 11.2136C18.1797 11.2451 18.1986 11.3026 18.2471 11.3341C18.1869 11.5695 17.9262 11.4015 17.7815 11.3709C17.5865 11.3305 17.449 11.3772 17.2576 11.4617C16.9313 11.6073 16.4541 11.5902 16.1701 11.8275C15.9274 12.0279 15.9283 12.4755 15.816 12.7262C15.816 12.7262 15.5032 13.5306 14.822 14.0231C14.6476 14.1489 14.3061 14.4518 13.5637 14.5668C13.2364 14.6139 12.9051 14.6269 12.5751 14.6055C12.408 14.5974 12.2498 14.5893 12.0817 14.5875C11.9829 14.5857 11.6503 14.5758 11.6674 14.6073L11.6306 14.6998L11.6521 14.8239C11.6656 14.8985 11.6692 14.9578 11.6719 15.0261C11.6773 15.1672 11.6602 15.3137 11.6674 15.4557C11.6827 15.7505 11.7914 16.0192 11.8058 16.3167C11.8211 16.6474 11.9847 16.9979 12.1428 17.2685C12.2031 17.3709 12.2947 17.3835 12.3343 17.5102C12.381 17.6549 12.337 17.8095 12.3594 17.9641C12.4493 18.5644 12.6219 19.1918 12.8915 19.7346C12.8937 19.7389 12.8961 19.7431 12.8987 19.7472C13.2321 19.6915 13.5664 19.571 14.0005 19.5072C14.7959 19.3886 15.9014 19.4497 16.6123 19.3832C18.4098 19.2142 19.3849 20.1202 20.9999 19.749V6.42421C20.9999 5.82282 20.761 5.24607 20.3358 4.82082C19.9106 4.39558 19.3338 4.15668 18.7324 4.15668H5.26836ZM4.4532 14.1723C4.43972 14.1723 4.42624 14.1723 4.41186 14.175C4.26896 14.1974 4.13056 14.2469 4.04158 14.3907C3.96968 14.5075 3.94452 14.7097 3.89419 14.8445C3.83667 15.0018 3.73601 15.1483 3.64793 15.2984C3.48616 15.5725 3.19497 15.8206 3.06914 16.0884C3.04398 16.1423 3.02151 16.2052 3.00084 16.2682V19.3257C3.14733 19.3508 3.30012 19.3814 3.47178 19.4272C4.73631 19.7643 5.04458 19.793 6.28484 19.6519L6.40168 19.6358C6.49604 19.438 6.56974 18.7658 6.63086 18.5573C6.67939 18.3973 6.745 18.2697 6.77016 18.1079C6.79353 17.9524 6.76746 17.805 6.75488 17.6648C6.71893 17.3116 7.01102 17.1858 7.15033 16.8829C7.27615 16.6097 7.34805 16.2978 7.45231 16.0174C7.55117 15.7496 7.70755 15.3694 7.97268 15.2337C7.94032 15.1969 7.41815 15.1798 7.27885 15.1654C7.12811 15.1519 6.97813 15.1309 6.82948 15.1025C6.54727 15.045 6.2399 14.9892 5.96219 14.9227C5.67381 14.8385 5.38976 14.7402 5.11108 14.6279C4.84326 14.5039 4.65902 14.1813 4.4532 14.1723ZM9.60929 14.9182C8.94422 15.0522 8.73751 15.7055 8.42295 16.2223C8.25039 16.509 8.06705 16.7526 7.93044 17.0564C7.80461 17.3368 7.8154 17.6468 7.5997 17.8868C7.38509 18.1266 7.22341 18.409 7.12516 18.7154C7.10449 18.7757 7.04607 19.4129 6.98316 19.563L7.97268 19.4929C8.89479 19.5558 8.62876 19.9099 10.0685 19.8326L12.3415 19.7625C12.281 19.5834 12.2126 19.4071 12.1365 19.234C12.0736 19.1019 11.9927 18.844 11.9406 18.7307C11.8618 18.5654 11.7689 18.4073 11.6629 18.258C11.4975 18.0647 11.4589 18.0513 11.4113 17.8059C11.3259 17.3808 11.1021 16.6106 10.8388 16.0776C10.7031 15.8026 10.4766 15.5725 10.269 15.373C10.0892 15.1978 9.68029 14.9039 9.60929 14.9191V14.9182Z" fill="#EA580C"/>
</svg>
