<svg width="24" height="24" viewBox="0 0 24 24" fill="none" xmlns="http://www.w3.org/2000/svg">
<path d="M8.78965 3C8.53313 3.04484 8.31308 3.18545 8.07118 3.26926C7.56003 3.61204 7.14929 4.13838 7.04407 4.77219C6.72411 5.84454 5.78335 6.54947 5.45484 7.61281C5.18433 8.29471 4.70005 8.83196 4.24778 9.37954C3.93609 9.78562 3.97022 10.3302 3.83289 10.805C3.69564 10.9342 3.59819 11.2305 3.85482 11.2626C3.84786 11.504 3.68934 11.7727 3.85651 12.0035C3.98637 12.5077 4.21601 12.9905 4.44342 13.4572C4.48863 13.6271 4.76708 13.8244 4.8094 13.5504C4.84324 13.1596 5.00532 12.6949 4.74194 12.3502C4.57317 11.9082 4.712 11.4416 4.79085 11.0004C4.7527 10.7282 4.84579 10.4176 4.98649 10.2014C5.13176 10.283 5.08234 10.557 5.13991 10.704C5.27868 11.7616 5.32068 12.8612 5.06407 13.9042C4.96854 14.3128 5.12555 14.7452 5.03371 15.1466C4.70409 15.5204 4.95942 16.0569 4.98818 16.4912C5.14837 17.2969 5.06068 18.1337 4.82964 18.904C4.82451 19.1806 4.73183 19.4331 4.67617 19.6977C4.76851 20.0305 5.20695 20.1475 5.4992 20.069C5.68116 19.9409 6.02804 20.1851 6.11479 19.8807C6.1411 19.5503 5.8317 19.3031 5.85675 18.9673C5.66391 18.0461 5.51899 17.0865 5.70631 16.1471C5.80289 15.6014 5.76512 15.0178 5.9124 14.492C6.23748 14.0661 6.46016 13.5624 6.59883 13.0348C6.79208 12.5963 6.91172 12.0637 7.02889 11.6463C7.53343 12.4925 7.83665 13.5066 7.70473 14.5165C7.72177 14.9104 7.48567 15.3718 7.80287 15.6828C8.18745 16.3105 8.67278 16.9025 8.86723 17.6263C8.88263 17.9289 8.49179 17.9337 8.38825 18.1789C8.15861 18.5273 8.18294 18.9711 8.15719 19.3739C8.37396 19.4617 8.69222 19.6955 8.87566 19.4143C9.05477 19.2172 9.13116 18.8724 9.31753 18.7209C9.43241 18.9479 9.32525 19.3156 9.62111 19.4266C10.0455 19.5855 10.5351 19.6296 10.9754 19.5199C11.2016 19.3153 10.8923 19.0266 10.7005 18.948C10.3823 18.8496 10.1956 18.5908 10.0866 18.2775C9.98656 18.1044 9.91509 17.902 10.1102 17.7688C10.5693 17.1877 11.2009 16.803 11.6871 16.2589C11.9805 15.8336 11.9032 15.2412 11.7917 14.7612C11.6542 14.4812 11.5548 14.1874 11.6298 13.869C11.6809 13.5949 11.5008 13.3117 11.5117 13.0682C11.7691 13.0508 12.0698 13.0606 12.2993 13.1509C12.3616 13.5842 12.2693 14.0463 12.3887 14.4656C12.5835 14.6597 12.6758 14.9663 12.6889 15.2452C12.8709 15.4788 12.756 15.8224 12.8053 16.1075C12.6889 16.5721 12.8544 17.0304 12.9908 17.4714C13.2404 18.3105 13.1349 19.215 13.3484 20.0567C13.5106 20.2957 13.2385 20.6947 13.5558 20.8521C14.0466 21.0435 14.7041 21.0983 15.1226 20.7131C15.2502 20.4471 14.8737 20.2943 14.6926 20.2098C14.438 20.152 14.2448 19.9664 14.1907 19.6916C13.8034 18.8577 13.6143 17.9224 13.7497 16.9931C13.7693 16.5453 13.8282 16.1025 13.9387 15.6764C13.9905 15.2408 13.9971 14.7929 14.1191 14.3793C14.1909 13.7965 14.0691 13.1825 14.2254 12.6159C14.478 12.7834 14.749 12.9528 15.0484 12.9767C15.243 13.1307 15.4521 12.9771 15.5577 12.7919C15.7139 12.5681 15.9015 13.1659 16.0443 12.8628C16.2214 12.6532 16.4499 12.5037 16.6506 12.3396C16.7644 12.1461 16.998 12.1521 17.1617 12.0633C17.2753 11.9084 17.0884 11.6634 17.2983 11.5442C17.3699 11.3457 17.5523 11.6074 17.6356 11.4192C17.724 11.2146 17.7099 10.9327 17.9459 10.8438C18.3744 10.4886 18.2461 9.84102 18.3228 9.33923C18.3179 8.83879 18.4129 8.30849 18.2956 7.82621C18.1582 7.44447 17.9324 7.0564 17.8413 6.67637C18.259 6.32858 18.9975 6.61683 19.2816 6.04458C19.4048 5.62594 19.0175 5.26853 18.7622 5.00273C18.5139 4.75858 18.1222 4.87486 17.8186 4.75482C17.583 4.6714 17.2165 4.76375 17.1549 4.42902C17.0561 4.16435 16.7469 4.16648 16.5815 3.96617C16.3167 3.82389 16.0764 4.14904 15.8158 4.17559C15.5257 4.38691 15.1932 4.59303 15.0079 4.91474C14.9287 5.12455 14.9972 5.39856 14.7803 5.52894C14.4183 5.96321 14.5703 6.60743 14.5357 7.1357C14.5403 7.37706 14.5342 7.62145 14.6656 7.81853C14.6854 8.11471 14.9436 8.3091 14.8976 8.61398C14.8615 8.81418 15.0303 9.24168 14.7128 9.14899C14.6161 8.98064 14.6305 8.69426 14.5404 8.4967C14.2749 7.64467 13.8725 6.72125 13.0684 6.29448C12.5012 5.86099 12.0963 5.23097 11.8608 4.54693C11.6381 4.19989 11.2281 3.98608 11.053 3.61068C10.8228 3.50837 10.545 3.54378 10.316 3.41005C10.0316 3.27839 9.77441 3.04001 9.43395 3.0821C9.20943 3.09934 9.00243 3.01768 8.78965 3ZM9.20454 12.5579C9.40123 12.626 9.34058 12.9459 9.41198 13.1122C9.50409 13.3457 9.42628 13.7599 9.68689 13.8778C9.83395 14.1318 9.74272 14.4756 9.89096 14.7102C9.8567 14.8767 9.80456 15.1879 10.0529 15.1924C10.2755 15.1723 10.3365 15.432 10.4931 15.5479C10.6379 15.7592 10.7996 16.0587 10.5757 16.2818C10.3586 16.5566 10.21 16.9882 9.81001 16.9998C9.64522 17.0182 9.4176 17.2861 9.34283 17.0103C9.05785 16.5085 8.81541 15.9745 8.8706 15.3772C8.8749 14.4393 9.07967 13.5177 9.18261 12.5931C9.17765 12.5672 9.18621 12.5562 9.20454 12.5579Z" fill="#A855F7"/>
</svg>
