<svg width="24" height="24" viewBox="0 0 24 24" fill="none" xmlns="http://www.w3.org/2000/svg">
<path d="M19.1666 7.76818C19.1666 8.32047 18.7189 8.76818 18.1666 8.76818H15.5971C15.0448 8.76818 14.5971 8.32047 14.5971 7.76818V4.99997C14.5971 4.44768 15.0448 3.99997 15.5971 3.99997H18.1666C18.7189 3.99997 19.1666 4.44768 19.1666 4.99997V7.76818Z" fill="#F59E0B"/>
<path d="M13.7847 7.76818C13.7847 8.32047 13.337 8.76818 12.7847 8.76818H10.2152C9.66293 8.76818 9.21521 8.32047 9.21521 7.76818V4.99997C9.21521 4.44768 9.66293 3.99997 10.2152 3.99997H12.7847C13.337 3.99997 13.7847 4.44768 13.7847 4.99997V7.76818Z" fill="#F59E0B"/>
<path d="M8.40285 7.76818C8.40285 8.32047 7.95513 8.76818 7.40285 8.76818H4.83331C4.28103 8.76818 3.83331 8.32047 3.83331 7.76818V4.99997C3.83331 4.44768 4.28103 3.99997 4.83331 3.99997H7.40285C7.95513 3.99997 8.40285 4.44768 8.40285 4.99997V7.76818Z" fill="#F59E0B"/>
<path d="M19.1666 13.3841C19.1666 13.9363 18.7189 14.3841 18.1666 14.3841H15.5971C15.0448 14.3841 14.5971 13.9363 14.5971 13.3841V10.6158C14.5971 10.0636 15.0448 9.61584 15.5971 9.61584H18.1666C18.7189 9.61584 19.1666 10.0636 19.1666 10.6158V13.3841Z" fill="#F59E0B"/>
<path d="M13.7847 13.3841C13.7847 13.9363 13.337 14.3841 12.7847 14.3841H10.2152C9.66293 14.3841 9.21521 13.9363 9.21521 13.3841V10.6158C9.21521 10.0636 9.66293 9.61584 10.2152 9.61584H12.7847C13.337 9.61584 13.7847 10.0636 13.7847 10.6158V13.3841Z" fill="#71717A"/>
<path d="M13.7847 19C13.7847 19.5522 13.337 20 12.7847 20H10.2152C9.66293 20 9.21521 19.5522 9.21521 19V16.2317C9.21521 15.6795 9.66293 15.2318 10.2152 15.2318H12.7847C13.337 15.2318 13.7847 15.6795 13.7847 16.2318V19Z" fill="#71717A"/>
<path d="M19.1666 19C19.1666 19.5522 18.7189 20 18.1666 20H15.5971C15.0448 20 14.5971 19.5522 14.5971 19V16.2317C14.5971 15.6795 15.0448 15.2318 15.5971 15.2318H18.1666C18.7189 15.2318 19.1666 15.6795 19.1666 16.2318V19Z" fill="#71717A"/>
<path d="M8.40285 19C8.40285 19.5522 7.95513 20 7.40285 20H4.83331C4.28103 20 3.83331 19.5522 3.83331 19V16.2317C3.83331 15.6795 4.28103 15.2318 4.83331 15.2318H7.40285C7.95513 15.2318 8.40285 15.6795 8.40285 16.2318V19Z" fill="#71717A"/>
</svg>
