<svg width="24" height="24" viewBox="0 0 24 24" fill="none" xmlns="http://www.w3.org/2000/svg">
<path d="M9.1726 20.1429H4.24403C4.0172 20.1429 3.83331 20.3347 3.83331 20.5714C3.83331 20.8081 4.0172 21 4.24403 21H9.1726C9.39943 21 9.58331 20.8081 9.58331 20.5714C9.58331 20.3347 9.39943 20.1429 9.1726 20.1429Z" fill="#F87171"/>
<path d="M9.17259 18.4285H7.52973C7.3029 18.4285 7.11902 18.6204 7.11902 18.8571C7.11902 19.0938 7.3029 19.2856 7.52973 19.2856H9.17259C9.39942 19.2856 9.5833 19.0938 9.5833 18.8571C9.5833 18.6204 9.39942 18.4285 9.17259 18.4285Z" fill="#FBBF24"/>
<path d="M5.88688 18.4286H4.24403C4.0172 18.4286 3.83331 18.6204 3.83331 18.8571C3.83331 19.0938 4.0172 19.2857 4.24403 19.2857H5.88688C6.11372 19.2857 6.2976 19.0938 6.2976 18.8571C6.2976 18.6204 6.11372 18.4286 5.88688 18.4286Z" fill="#2DD4BF"/>
<path d="M9.1726 16.7142H4.24403C4.0172 16.7142 3.83331 16.9061 3.83331 17.1428C3.83331 17.3795 4.0172 17.5714 4.24403 17.5714H9.1726C9.39943 17.5714 9.58331 17.3795 9.58331 17.1428C9.58331 16.9061 9.39943 16.7142 9.1726 16.7142Z" fill="#C084FC"/>
<path d="M14.1012 15.0001H6.70832C6.48149 15.0001 6.29761 15.1919 6.29761 15.4286C6.29761 15.6653 6.48149 15.8572 6.70832 15.8572H14.1012C14.328 15.8572 14.5119 15.6653 14.5119 15.4286C14.5119 15.1919 14.328 15.0001 14.1012 15.0001Z" fill="#FBBF24"/>
<path d="M5.06546 15H4.24403C4.0172 15 3.83331 15.1919 3.83331 15.4286C3.83331 15.6653 4.0172 15.8572 4.24403 15.8572H5.06546C5.29229 15.8572 5.47617 15.6653 5.47617 15.4286C5.47617 15.1919 5.29229 15 5.06546 15Z" fill="#C084FC"/>
<path d="M16.5654 13.2857H14.1011C13.8743 13.2857 13.6904 13.4776 13.6904 13.7143C13.6904 13.951 13.8743 14.1428 14.1011 14.1428H16.5654C16.7923 14.1428 16.9761 13.951 16.9761 13.7143C16.9761 13.4776 16.7923 13.2857 16.5654 13.2857Z" fill="#C084FC"/>
<path d="M12.4583 13.2857H9.17262C8.94578 13.2857 8.7619 13.4776 8.7619 13.7143C8.7619 13.951 8.94578 14.1428 9.17262 14.1428H12.4583C12.6852 14.1428 12.869 13.951 12.869 13.7143C12.869 13.4776 12.6852 13.2857 12.4583 13.2857Z" fill="#F87171"/>
<path d="M7.52974 13.2857H4.24403C4.0172 13.2857 3.83331 13.4776 3.83331 13.7143C3.83331 13.951 4.0172 14.1429 4.24403 14.1429H7.52974C7.75657 14.1429 7.94046 13.951 7.94046 13.7143C7.94046 13.4776 7.75657 13.2857 7.52974 13.2857Z" fill="#2DD4BF"/>
<path d="M17.3869 11.5714H10.8154C10.5886 11.5714 10.4047 11.7633 10.4047 12C10.4047 12.2367 10.5886 12.4286 10.8154 12.4286H17.3869C17.6137 12.4286 17.7976 12.2367 17.7976 12C17.7976 11.7633 17.6137 11.5714 17.3869 11.5714Z" fill="#2DD4BF"/>
<path d="M9.17261 11.5714H6.70832C6.48149 11.5714 6.29761 11.7633 6.29761 12C6.29761 12.2367 6.48149 12.4286 6.70832 12.4286H9.17261C9.39944 12.4286 9.58332 12.2367 9.58332 12C9.58332 11.7633 9.39944 11.5714 9.17261 11.5714Z" fill="#FBBF24"/>
<path d="M5.06546 11.5714H4.24403C4.0172 11.5714 3.83331 11.7633 3.83331 12C3.83331 12.2367 4.0172 12.4286 4.24403 12.4286H5.06546C5.29229 12.4286 5.47617 12.2367 5.47617 12C5.47617 11.7633 5.29229 11.5714 5.06546 11.5714Z" fill="#F87171"/>
<path d="M18.2083 9.85706H14.1011C13.8743 9.85706 13.6904 10.0489 13.6904 10.2856C13.6904 10.5223 13.8743 10.7142 14.1011 10.7142H18.2083C18.4351 10.7142 18.619 10.5223 18.619 10.2856C18.619 10.0489 18.4351 9.85706 18.2083 9.85706Z" fill="#FBBF24"/>
<path d="M7.52974 9.85712H4.24403C4.0172 9.85712 3.83331 10.049 3.83331 10.2857C3.83331 10.5224 4.0172 10.7143 4.24403 10.7143H7.52974C7.75657 10.7143 7.94046 10.5224 7.94046 10.2857C7.94046 10.049 7.75657 9.85712 7.52974 9.85712Z" fill="#C084FC"/>
<path d="M18.2083 8.14279H14.1011C13.8743 8.14279 13.6904 8.33467 13.6904 8.57136C13.6904 8.80806 13.8743 8.99993 14.1011 8.99993H18.2083C18.4351 8.99993 18.619 8.80806 18.619 8.57136C18.619 8.33467 18.4351 8.14279 18.2083 8.14279Z" fill="#F87171"/>
<path d="M7.52974 8.14279H4.24403C4.0172 8.14279 3.83331 8.33467 3.83331 8.57136C3.83331 8.80806 4.0172 8.99993 4.24403 8.99993H7.52974C7.75657 8.99993 7.94046 8.80806 7.94046 8.57136C7.94046 8.33467 7.75657 8.14279 7.52974 8.14279Z" fill="#FBBF24"/>
<path d="M17.3869 6.42865H16.5654C16.3386 6.42865 16.1547 6.62053 16.1547 6.85722C16.1547 7.09391 16.3386 7.28579 16.5654 7.28579H17.3869C17.6137 7.28579 17.7976 7.09391 17.7976 6.85722C17.7976 6.62053 17.6137 6.42865 17.3869 6.42865Z" fill="#2DD4BF"/>
<path d="M14.9226 6.42865H11.6369C11.4101 6.42865 11.2262 6.62053 11.2262 6.85722C11.2262 7.09391 11.4101 7.28579 11.6369 7.28579H14.9226C15.1495 7.28579 15.3333 7.09391 15.3333 6.85722C15.3333 6.62053 15.1495 6.42865 14.9226 6.42865Z" fill="#C084FC"/>
<path d="M9.99403 6.42862H4.24403C4.0172 6.42862 3.83331 6.6205 3.83331 6.85719C3.83331 7.09388 4.0172 7.28576 4.24403 7.28576H9.99403C10.2209 7.28576 10.4047 7.09388 10.4047 6.85719C10.4047 6.6205 10.2209 6.42862 9.99403 6.42862Z" fill="#2DD4BF"/>
<path d="M16.5654 4.71426H8.35114C8.12431 4.71426 7.94043 4.90614 7.94043 5.14284C7.94043 5.37953 8.12431 5.57141 8.35114 5.57141H16.5654C16.7923 5.57141 16.9761 5.37953 16.9761 5.14284C16.9761 4.90614 16.7923 4.71426 16.5654 4.71426Z" fill="#FBBF24"/>
<path d="M6.70831 4.71432H4.24403C4.0172 4.71432 3.83331 4.9062 3.83331 5.1429C3.83331 5.37959 4.0172 5.57147 4.24403 5.57147H6.70831C6.93514 5.57147 7.11903 5.37959 7.11903 5.1429C7.11903 4.9062 6.93514 4.71432 6.70831 4.71432Z" fill="#F87171"/>
<path d="M14.1012 3H4.24403C4.0172 3 3.83331 3.19188 3.83331 3.42857C3.83331 3.66526 4.0172 3.85714 4.24403 3.85714H14.1012C14.328 3.85714 14.5119 3.66526 14.5119 3.42857C14.5119 3.19188 14.328 3 14.1012 3Z" fill="#2DD4BF"/>
</svg>
