<svg width="24" height="24" viewBox="0 0 24 24" fill="none" xmlns="http://www.w3.org/2000/svg">
<path fill-rule="evenodd" clip-rule="evenodd" d="M17.9471 9.21718C17.9475 9.36968 17.9479 9.52668 17.955 9.68799C17.9659 9.88706 18.0046 10.0923 18.0443 10.3031C18.1136 10.6707 18.1861 11.055 18.1195 11.4519C18.0621 11.841 18.022 12.2301 17.9825 12.6123C17.9396 13.0275 17.8976 13.4345 17.8353 13.8246C17.7905 14.1284 17.5819 14.4049 17.3747 14.6794C17.1667 14.9552 16.9602 15.2289 16.9227 15.5261C16.7283 17.1183 15.2024 17.852 11.6121 17.852V17.9768H11.5972V17.852C8.0069 17.852 6.4212 17.1183 6.21176 15.5261C6.17461 15.2392 5.95654 14.9676 5.73547 14.6924C5.51156 14.4136 5.28457 14.131 5.2394 13.8246C5.17709 13.4345 5.13505 13.0275 5.09218 12.6123C5.05271 12.2301 5.01253 11.841 4.95517 11.4519C4.88874 11.0558 4.96077 10.6786 5.02996 10.3162C5.06984 10.1073 5.10878 9.90337 5.11972 9.7036C5.12788 9.57878 5.13357 9.45704 5.13912 9.33822C5.1641 8.80322 5.18634 8.32714 5.41891 7.89286C6.13697 6.59724 8.02186 5.84796 11.6121 5.84796C15.2024 5.84796 16.9975 6.59724 17.7156 7.87725C17.9445 8.27139 17.9457 8.72037 17.9471 9.21718ZM11.9237 11.5697C11.9877 11.5525 12.0145 11.437 11.9836 11.3118C11.9526 11.1866 11.8757 11.099 11.8117 11.1162C11.7477 11.1335 11.7209 11.2489 11.7518 11.3741C11.7828 11.4994 11.8597 11.5869 11.9237 11.5697ZM11.8156 11.8523C11.6969 11.877 11.6121 11.8947 11.6121 11.9202C11.6205 11.9553 11.6242 12.01 11.6285 12.0734C11.6318 12.1229 11.6355 12.1777 11.642 12.2324C11.642 12.2995 11.6429 12.3901 11.6439 12.4934V12.4934V12.4934V12.4934V12.4935C11.6476 12.8685 11.6529 13.4113 11.6235 13.6066C12.2822 13.6305 13.2727 14.5424 13.2727 15.6822V15.7447C13.2577 14.6364 12.0011 13.731 11.5972 13.731C11.1933 13.731 9.9367 14.6364 9.92174 15.7447V15.6822C9.92174 14.5619 10.9049 13.6378 11.5636 13.6069C11.5224 13.3718 11.5224 12.577 11.5224 12.2324C11.5224 12.1664 11.5278 12.0832 11.5322 12.0175C11.535 11.9744 11.5373 11.9388 11.5373 11.9202C11.5373 11.8804 10.9309 11.7162 10.75 11.6681C10.9011 11.7072 11.346 11.8158 11.4326 11.7641C11.5224 11.7017 11.5672 11.5144 11.5672 11.5144C11.5672 11.5144 11.5972 11.7017 11.7168 11.7641C11.8365 11.8422 12.39 11.6549 12.39 11.6549C12.2307 11.7657 11.9876 11.8164 11.8156 11.8523ZM10.6996 11.6549C10.6996 11.6549 10.7184 11.66 10.75 11.6681L10.6996 11.6549ZM11.3356 11.3807C11.2989 11.5042 11.2179 11.5878 11.1548 11.5674C11.0917 11.5469 11.0703 11.4302 11.107 11.3067C11.1437 11.1832 11.2246 11.0997 11.2878 11.1201C11.3509 11.1405 11.3723 11.2572 11.3356 11.3807ZM10.1611 12.7475C10.1611 12.8165 10.1075 12.8724 10.0414 12.8724C9.97529 12.8724 9.92171 12.8165 9.92171 12.7475C9.92171 12.6785 9.97529 12.6226 10.0414 12.6226C10.1075 12.6226 10.1611 12.6785 10.1611 12.7475ZM9.47293 13.4968C9.47293 13.5658 9.41935 13.6217 9.35326 13.6217C9.28716 13.6217 9.23358 13.5658 9.23358 13.4968C9.23358 13.4279 9.28716 13.3719 9.35326 13.3719C9.41935 13.3719 9.47293 13.4279 9.47293 13.4968ZM9.12885 12.8724C9.19495 12.8724 9.24853 12.8165 9.24853 12.7476C9.24853 12.6786 9.19495 12.6227 9.12885 12.6227C9.06276 12.6227 9.00918 12.6786 9.00918 12.7476C9.00918 12.8165 9.06276 12.8724 9.12885 12.8724ZM13.0781 12.7476C13.0781 12.8165 13.0246 12.8724 12.9585 12.8724C12.8924 12.8724 12.8388 12.8165 12.8388 12.7476C12.8388 12.6786 12.8924 12.6227 12.9585 12.6227C13.0246 12.6227 13.0781 12.6786 13.0781 12.7476ZM13.6466 13.6217C13.7127 13.6217 13.7663 13.5658 13.7663 13.4968C13.7663 13.4279 13.7127 13.3719 13.6466 13.3719C13.5805 13.3719 13.5269 13.4279 13.5269 13.4968C13.5269 13.5658 13.5805 13.6217 13.6466 13.6217ZM13.9907 12.7475C13.9907 12.8165 13.9371 12.8724 13.871 12.8724C13.8049 12.8724 13.7513 12.8165 13.7513 12.7475C13.7513 12.6785 13.8049 12.6226 13.871 12.6226C13.9371 12.6226 13.9907 12.6785 13.9907 12.7475Z" fill="#FED7AA"/>
<path fill-rule="evenodd" clip-rule="evenodd" d="M17.0125 10.8119C17.0125 11.5706 16.4231 12.1856 15.6961 12.1856C14.969 12.1856 14.3796 11.5706 14.3796 10.8119C14.3796 10.0532 14.969 9.43823 15.6961 9.43823C16.4231 9.43823 17.0125 10.0532 17.0125 10.8119ZM15.6961 10.2031C15.6961 10.4014 15.542 10.5621 15.352 10.5621C15.162 10.5621 15.0079 10.4014 15.0079 10.2031C15.0079 10.0048 15.162 9.84406 15.352 9.84406C15.542 9.84406 15.6961 10.0048 15.6961 10.2031Z" fill="#18181B"/>
<path d="M13.6916 10.7495C13.6916 10.7495 14.8734 11.5924 15.5166 12.4197C16.1599 13.2471 16.1449 13.4032 16.1449 13.4032L15.6812 13.6217C15.6812 13.6217 15.023 12.3261 14.2151 11.8422C13.3924 11.3583 13.3026 10.9524 13.3026 10.9524L13.6916 10.7495Z" fill="#FED7AA"/>
<path fill-rule="evenodd" clip-rule="evenodd" d="M8.76983 10.8119C8.76983 11.5706 8.18044 12.1856 7.4534 12.1856C6.72635 12.1856 6.13696 11.5706 6.13696 10.8119C6.13696 10.0532 6.72635 9.43823 7.4534 9.43823C8.18044 9.43823 8.76983 10.0532 8.76983 10.8119ZM8.14155 10.2031C8.14155 10.4014 7.9875 10.5621 7.79748 10.5621C7.60746 10.5621 7.45341 10.4014 7.45341 10.2031C7.45341 10.0048 7.60746 9.84406 7.79748 9.84406C7.9875 9.84406 8.14155 10.0048 8.14155 10.2031Z" fill="#18181B"/>
<path d="M9.36818 10.7495C9.36818 10.7495 8.18638 11.5924 7.54312 12.4197C6.89987 13.2471 6.91482 13.4032 6.91482 13.4032L7.37857 13.6217C7.37857 13.6217 8.03679 12.3261 8.8446 11.8422C9.65241 11.3583 9.75712 10.9524 9.75712 10.9524L9.36818 10.7495Z" fill="#FED7AA"/>
<path d="M15.2623 6.2538C15.2623 6.2538 16.9976 7.76796 17.5062 9.51627C18.0148 11.2646 17.8054 13.3875 18.1943 13.6529C18.7478 14.0275 19.3761 11.7953 19.5856 11.5612C19.9147 11.1865 21.0067 10.2343 21.0815 10.0626C21.1563 9.8909 18.8675 7.28405 17.8652 6.76893C16.6535 6.17575 15.1576 6.12892 15.2623 6.2538Z" fill="#713F12"/>
<path d="M7.73765 6.2538C7.73765 6.2538 6.00235 7.76796 5.49373 9.51627C4.98511 11.2646 5.19454 13.3875 4.80559 13.6529C4.25209 14.0275 3.6238 11.7953 3.41436 11.5612C3.08525 11.1865 1.99321 10.2343 1.91842 10.0626C1.84362 9.8909 4.13242 7.28405 5.1347 6.76893C6.34642 6.17575 7.84237 6.12892 7.73765 6.2538Z" fill="#713F12"/>
<path fill-rule="evenodd" clip-rule="evenodd" d="M15.0678 12.888C14.5547 12.2299 13.8202 11.6038 12.8588 11.2999C12.758 10.9654 12.282 10.6089 11.6121 10.6089C10.9588 10.6209 10.4899 10.9628 10.3736 11.2835C9.38615 11.5809 8.63407 12.2179 8.11164 12.888C7.41717 13.7721 7.41907 14.1583 7.4229 14.9336C7.4232 14.9934 7.4235 15.0554 7.4235 15.1202C7.4235 17.6055 8.05979 17.6682 8.687 17.73C8.88708 17.7497 9.08624 17.7694 9.26352 17.8675C9.8649 18.1813 10.4856 18.1621 11.1179 18.1425H11.1179C11.272 18.1377 11.4269 18.1329 11.5822 18.1329H11.5972C11.7435 18.1329 11.8883 18.1365 12.0318 18.14C12.6808 18.1561 13.3034 18.1715 13.9159 17.8519C14.0937 17.7573 14.2935 17.7425 14.4941 17.7277C15.1208 17.6814 15.7559 17.6344 15.7559 15.1514L15.7581 15.0282C15.7733 14.2071 15.781 13.7959 15.0678 12.888ZM11.9237 11.5697C11.9877 11.5525 12.0145 11.437 11.9836 11.3118C11.9526 11.1866 11.8757 11.099 11.8117 11.1162C11.7477 11.1335 11.7209 11.2489 11.7518 11.3741C11.7828 11.4994 11.8597 11.5869 11.9237 11.5697ZM11.8156 11.8523C11.6969 11.877 11.6121 11.8947 11.6121 11.9202C11.6205 11.9553 11.6242 12.01 11.6285 12.0734V12.0734C11.6318 12.1229 11.6355 12.1777 11.6421 12.2324C11.6421 12.2995 11.6429 12.39 11.6439 12.4933L11.644 12.4934V12.4934V12.4934V12.4934C11.6476 12.8685 11.6529 13.4113 11.6235 13.6066C12.2822 13.6305 13.2727 14.5424 13.2727 15.6822V15.7447C13.2577 14.6364 12.0011 13.731 11.5972 13.731C11.1933 13.731 9.93672 14.6364 9.92176 15.7447V15.6822C9.92176 14.5619 10.9049 13.6378 11.5636 13.6069C11.5224 13.3718 11.5224 12.577 11.5224 12.2324C11.5224 12.1664 11.5278 12.0832 11.5322 12.0175C11.535 11.9744 11.5373 11.9388 11.5373 11.9202C11.5373 11.8804 10.9309 11.7162 10.75 11.6681C10.9012 11.7072 11.346 11.8158 11.4326 11.7641C11.5224 11.7017 11.5673 11.5144 11.5673 11.5144C11.5673 11.5144 11.5972 11.7017 11.7169 11.7641C11.8365 11.8422 12.39 11.6549 12.39 11.6549C12.2307 11.7657 11.9876 11.8164 11.8156 11.8523ZM10.6996 11.6549C10.6996 11.6549 10.7184 11.66 10.75 11.6681L10.6996 11.6549ZM11.3356 11.3807C11.2989 11.5042 11.2179 11.5878 11.1548 11.5674C11.0917 11.5469 11.0703 11.4302 11.107 11.3067C11.1437 11.1832 11.2247 11.0997 11.2878 11.1201C11.3509 11.1405 11.3723 11.2572 11.3356 11.3807ZM10.1611 12.7475C10.1611 12.8165 10.1075 12.8724 10.0414 12.8724C9.97531 12.8724 9.92173 12.8165 9.92173 12.7475C9.92173 12.6785 9.97531 12.6226 10.0414 12.6226C10.1075 12.6226 10.1611 12.6785 10.1611 12.7475ZM9.47295 13.4968C9.47295 13.5658 9.41937 13.6217 9.35327 13.6217C9.28718 13.6217 9.2336 13.5658 9.2336 13.4968C9.2336 13.4279 9.28718 13.3719 9.35327 13.3719C9.41937 13.3719 9.47295 13.4279 9.47295 13.4968ZM9.12887 12.8724C9.19496 12.8724 9.24855 12.8165 9.24855 12.7476C9.24855 12.6786 9.19496 12.6227 9.12887 12.6227C9.06277 12.6227 9.00919 12.6786 9.00919 12.7476C9.00919 12.8165 9.06277 12.8724 9.12887 12.8724ZM13.0782 12.7476C13.0782 12.8165 13.0246 12.8724 12.9585 12.8724C12.8924 12.8724 12.8388 12.8165 12.8388 12.7476C12.8388 12.6786 12.8924 12.6227 12.9585 12.6227C13.0246 12.6227 13.0782 12.6786 13.0782 12.7476ZM13.6466 13.6217C13.7127 13.6217 13.7663 13.5658 13.7663 13.4968C13.7663 13.4279 13.7127 13.3719 13.6466 13.3719C13.5805 13.3719 13.5269 13.4279 13.5269 13.4968C13.5269 13.5658 13.5805 13.6217 13.6466 13.6217ZM13.9907 12.7475C13.9907 12.8165 13.9371 12.8724 13.871 12.8724C13.8049 12.8724 13.7513 12.8165 13.7513 12.7475C13.7513 12.6785 13.8049 12.6226 13.871 12.6226C13.9371 12.6226 13.9907 12.6785 13.9907 12.7475Z" fill="#713F12"/>
<path d="M15.3521 10.5621C15.5421 10.5621 15.6962 10.4014 15.6962 10.2031C15.6962 10.0048 15.5421 9.84406 15.3521 9.84406C15.1621 9.84406 15.0081 10.0048 15.0081 10.2031C15.0081 10.4014 15.1621 10.5621 15.3521 10.5621Z" fill="white"/>
<path d="M7.79756 10.5621C7.98758 10.5621 8.14163 10.4014 8.14163 10.2031C8.14163 10.0048 7.98758 9.84406 7.79756 9.84406C7.60754 9.84406 7.45349 10.0048 7.45349 10.2031C7.45349 10.4014 7.60754 10.5621 7.79756 10.5621Z" fill="white"/>
</svg>
