<svg width="24" height="24" viewBox="0 0 24 24" fill="none" xmlns="http://www.w3.org/2000/svg">
<path fill-rule="evenodd" clip-rule="evenodd" d="M5.82 12.5966C6.49468 12.1901 6.4958 10.8742 5.8225 9.6573C5.14919 8.44045 4.05643 7.7835 3.38175 8.18998C2.70706 8.59645 2.70594 9.91244 3.37924 11.1293C4.05255 12.3462 5.14531 13.0031 5.82 12.5966ZM5.82403 15.2022C6.49734 16.4191 6.49622 17.7351 5.82153 18.1416C5.14683 18.548 4.05408 17.8911 3.38078 16.6742C2.70747 15.4574 2.70859 14.1414 3.38328 13.7349C4.05797 13.3284 5.15073 13.9854 5.82403 15.2022ZM10.4218 17.976C11.0951 19.1929 11.094 20.5088 10.4193 20.9154C9.74462 21.3218 8.65185 20.6648 7.97855 19.448C7.30526 18.2311 7.30638 16.9152 7.98107 16.5087C8.65575 16.1022 9.74851 16.7591 10.4218 17.976ZM10.4203 12.4311C11.0936 13.648 11.0925 14.964 10.4178 15.3705C9.74312 15.7769 8.65037 15.12 7.97706 13.9031C7.30376 12.6863 7.30488 11.3703 7.97956 10.9638C8.65425 10.5573 9.74702 11.2143 10.4203 12.4311Z" fill="#F87171"/>
<path fill-rule="evenodd" clip-rule="evenodd" d="M19.618 11.1323C20.2913 9.9154 20.2902 8.59941 19.6155 8.19294C18.9409 7.78646 17.8481 8.44341 17.1748 9.66028C16.5015 10.8771 16.5026 12.1931 17.1773 12.5996C17.852 13.0061 18.9448 12.3491 19.618 11.1323ZM19.6182 13.7366C20.2928 14.143 20.294 15.459 19.6207 16.6759C18.9474 17.8927 17.8546 18.5497 17.1799 18.1432C16.5053 17.7367 16.5041 16.4207 17.1774 15.2039C17.8507 13.987 18.9435 13.3301 19.6182 13.7366ZM15.0213 16.5058C15.696 16.9122 15.6971 18.2282 15.0238 19.4451C14.3505 20.6619 13.2578 21.3189 12.5831 20.9124C11.9084 20.506 11.9073 19.19 12.5806 17.9731C13.2539 16.7562 14.3466 16.0993 15.0213 16.5058ZM15.0187 10.9621C15.6934 11.3686 15.6945 12.6846 15.0212 13.9014C14.3479 15.1183 13.2552 15.7753 12.5805 15.3688C11.9058 14.9623 11.9047 13.6463 12.578 12.4295C13.2513 11.2126 14.344 10.5556 15.0187 10.9621Z" fill="#A855F7"/>
<path fill-rule="evenodd" clip-rule="evenodd" d="M13.9361 3.47199C13.9361 4.28494 12.8444 4.94398 11.4978 4.94398C10.1512 4.94398 9.0596 4.28494 9.0596 3.47199C9.0596 2.65903 10.1512 2 11.4978 2C12.8444 2 13.9361 2.65903 13.9361 3.47199ZM9.33925 6.23836C9.33925 7.05132 8.24762 7.71035 6.90101 7.71035C5.55441 7.71035 4.46277 7.05132 4.46277 6.23836C4.46277 5.42541 5.55441 4.76637 6.90101 4.76637C8.24762 4.76637 9.33925 5.42541 9.33925 6.23836ZM16.1007 7.71035C17.4473 7.71035 18.5389 7.05132 18.5389 6.23836C18.5389 5.42541 17.4473 4.76637 16.1007 4.76637C14.7541 4.76637 13.6624 5.42541 13.6624 6.23836C13.6624 7.05132 14.7541 7.71035 16.1007 7.71035ZM13.9361 9.01095C13.9361 9.8239 12.8444 10.4829 11.4978 10.4829C10.1512 10.4829 9.0596 9.8239 9.0596 9.01095C9.0596 8.19799 10.1512 7.53896 11.4978 7.53896C12.8444 7.53896 13.9361 8.19799 13.9361 9.01095Z" fill="#F59E0B"/>
</svg>
