<svg width="24" height="24" viewBox="0 0 24 24" fill="none" xmlns="http://www.w3.org/2000/svg">
<path fill-rule="evenodd" clip-rule="evenodd" d="M14.6218 21.3218C14.0213 21.4327 13.3385 21.4964 12.6234 21.4998C11.9081 21.5033 11.1628 21.4472 10.4442 21.3224C9.30856 21.1238 8.35228 20.236 8.35228 19.0532V14.8974C8.35228 13.6794 9.28126 12.6803 10.4442 12.6803H14.6219C16.0404 12.6803 17.2349 11.409 17.2349 9.96833V7.97424H18.6731C19.8886 7.97424 20.5987 8.89429 20.8961 10.1865C21.2972 11.9217 21.2801 12.9603 20.8961 14.6223C20.5638 16.072 19.4986 16.8345 18.2831 16.8345H16.7137H12.5314V17.3889H16.7137V19.0526C16.7137 20.3125 16.3924 20.9954 14.6218 21.3218ZM14.4461 18.4845C13.914 18.4845 13.4826 18.9346 13.4826 19.4899C13.4826 20.0451 13.914 20.4953 14.4461 20.4953C14.9783 20.4953 15.4096 20.0451 15.4096 19.4899C15.4096 18.9346 14.9783 18.4845 14.4461 18.4845Z" fill="#14B8A6"/>
<path fill-rule="evenodd" clip-rule="evenodd" d="M9.37835 2.67823C9.9788 2.56725 10.6616 2.50361 11.3767 2.50015C12.092 2.49673 12.8373 2.55277 13.5559 2.67758C14.6916 2.87617 15.6478 3.76399 15.6478 4.94677V9.10261C15.6478 10.3205 14.7189 11.3197 13.5559 11.3197H9.3782C7.95969 11.3197 6.7652 12.591 6.7652 14.0317V16.0257H5.32703C4.11148 16.0257 3.40137 15.1057 3.10404 13.8135C2.70296 12.0783 2.71996 11.0397 3.10404 9.37771C3.43632 7.92797 4.50148 7.16549 5.71703 7.16549H7.28639H11.4688V6.61106H7.28639V4.94742C7.28639 3.68748 7.60775 3.00461 9.37835 2.67823ZM9.55398 5.51616C10.0861 5.51616 10.5175 5.06603 10.5175 4.51077C10.5175 3.95551 10.0861 3.50539 9.55398 3.50539C9.02186 3.50539 8.59049 3.95551 8.59049 4.51077C8.59049 5.06603 9.02186 5.51616 9.55398 5.51616Z" fill="#14B8A6"/>
</svg>
