<svg width="24" height="24" viewBox="0 0 24 24" fill="none" xmlns="http://www.w3.org/2000/svg">
<path fill-rule="evenodd" clip-rule="evenodd" d="M19.0284 14.0308C19.7268 13.1603 20.125 12.1563 20.125 11.0873C20.125 7.75838 16.2635 5.05975 11.5 5.05975C6.73656 5.05975 2.875 7.75838 2.875 11.0873C2.875 13.8191 5.47535 16.1263 9.04057 16.8663V14.9043C7.36108 14.1582 6.26446 12.9281 6.26446 11.537C6.26446 9.26122 9.19957 7.41632 12.8202 7.41632C16.4408 7.41632 19.1128 8.67853 19.1128 11.537C19.1128 11.8337 19.084 12.1132 19.0284 12.3759V14.0308Z" fill="#71717A"/>
<path fill-rule="evenodd" clip-rule="evenodd" d="M16.0104 14.3956C16.0104 14.3956 16.5324 14.5599 16.8357 14.7201C16.9409 14.7756 17.123 14.8865 17.2543 15.0321C17.383 15.1747 17.4457 15.3192 17.4457 15.3192L19.503 18.9387L16.1778 18.9402L14.6229 15.8933C14.6229 15.8933 14.3045 15.3224 14.1086 15.1569C13.9452 15.0189 13.8755 14.9697 13.7139 14.9697C13.6014 14.9697 12.9238 14.9697 12.9238 14.9697L12.9245 18.938L9.98206 18.9393V8.80252H15.8908C15.8908 8.80252 18.582 8.85317 18.582 11.5249C18.582 14.1967 16.0104 14.3956 16.0104 14.3956ZM14.7306 11.0013L12.9493 11.0001L12.9484 12.7238L14.7306 12.7232C14.7306 12.7232 15.5559 12.7205 15.5559 11.8464C15.5559 10.9547 14.7306 11.0013 14.7306 11.0013Z" fill="#2563EB"/>
</svg>
