<svg width="24" height="24" viewBox="0 0 24 24" fill="none" xmlns="http://www.w3.org/2000/svg">
<path fill-rule="evenodd" clip-rule="evenodd" d="M11.7339 2.13594C11.6838 2.05142 11.5953 2 11.5 2C11.4048 2 11.3163 2.05142 11.2661 2.13594L10.7619 2.98558C10.6873 2.99217 10.613 2.99976 10.5389 3.00833L9.88521 2.2786C9.8202 2.20603 9.72386 2.17368 9.63049 2.19309C9.53712 2.2125 9.46 2.28089 9.4266 2.37392L9.09099 3.30862C9.01928 3.33031 8.94796 3.35294 8.87703 3.3765L8.09872 2.79273C8.02138 2.73472 7.92079 2.72258 7.8328 2.76063C7.74481 2.79869 7.68195 2.88152 7.66661 2.97961L7.5119 3.969C7.44637 4.0046 7.38133 4.04104 7.31679 4.07831L6.44187 3.66222C6.35513 3.62097 6.25411 3.6295 6.17487 3.68478C6.09563 3.74006 6.04945 3.8342 6.05282 3.9336L6.08694 4.939C6.03059 4.98614 5.97482 5.034 5.91964 5.08256L4.98041 4.85167C4.88765 4.82886 4.79018 4.85778 4.72279 4.9281C4.65539 4.99843 4.62768 5.10013 4.64954 5.19693L4.87082 6.17703C4.82429 6.2346 4.77845 6.29279 4.73329 6.35157L3.76972 6.31597C3.67446 6.31245 3.58425 6.36063 3.53127 6.44332C3.47829 6.52601 3.47011 6.63142 3.50964 6.72193L3.90845 7.635C3.87275 7.7023 3.83785 7.77013 3.80377 7.83846L2.85548 7.99992C2.76148 8.01592 2.68209 8.08152 2.64563 8.17334C2.60916 8.26515 2.62079 8.37011 2.67638 8.45081L3.2359 9.26307C3.21334 9.33703 3.19166 9.41141 3.17089 9.48618L2.27502 9.83643C2.18587 9.87129 2.12033 9.95176 2.10173 10.0492C2.08314 10.1466 2.11413 10.2471 2.18368 10.315L2.88307 10.9972C2.87486 11.0744 2.86759 11.1519 2.86127 11.2297L2.04696 11.7559C1.96597 11.8083 1.91669 11.9006 1.91669 12C1.91669 12.0994 1.96597 12.1917 2.04696 12.2441L2.86129 12.7703C2.86762 12.8481 2.87489 12.9256 2.8831 13.0028L2.18368 13.685C2.11413 13.7529 2.08314 13.8534 2.10173 13.9508C2.12033 14.0482 2.18587 14.1287 2.27502 14.1636L3.17108 14.5139C3.19183 14.5886 3.21349 14.6629 3.23604 14.7367L2.67638 15.5492C2.62079 15.6299 2.60916 15.7349 2.64563 15.8267C2.68209 15.9185 2.76148 15.9841 2.85548 16.0001L3.8042 16.1616C3.83821 16.2298 3.87303 16.2974 3.90864 16.3646L3.50964 17.2781C3.47011 17.3686 3.47829 17.474 3.53127 17.5567C3.58424 17.6394 3.67446 17.6875 3.76972 17.684L4.73392 17.6484C4.77893 17.707 4.82461 17.7649 4.87097 17.8223L4.64954 18.8031C4.62768 18.8999 4.65539 19.0016 4.72279 19.0719C4.79018 19.1422 4.88765 19.1711 4.98041 19.1483L5.92031 18.9173C5.97529 18.9656 6.03084 19.0133 6.08697 19.0603L6.05282 20.0664C6.04945 20.1658 6.09563 20.2599 6.17487 20.3152C6.25411 20.3705 6.35513 20.379 6.44187 20.3378L7.31734 19.9214C7.38167 19.9586 7.4465 19.9949 7.51181 20.0304L7.66661 21.0204C7.68195 21.1185 7.74481 21.2013 7.8328 21.2394C7.92079 21.2774 8.02138 21.2653 8.09872 21.2073L8.87733 20.6233C8.94812 20.6468 9.01931 20.6694 9.09087 20.691L9.4266 21.6261C9.46 21.7191 9.53712 21.7875 9.63049 21.8069C9.72386 21.8263 9.8202 21.794 9.88521 21.7214L10.539 20.9915C10.613 21.0001 10.6873 21.0077 10.7618 21.0143L11.2661 21.8641C11.3163 21.9486 11.4048 22 11.5 22C11.5953 22 11.6838 21.9486 11.7339 21.8641L12.2382 21.0143C12.3127 21.0077 12.387 21.0001 12.461 20.9915L13.1148 21.7214C13.1798 21.794 13.2762 21.8263 13.3696 21.8069C13.4629 21.7875 13.54 21.7191 13.5734 21.6261L13.9092 20.6911C13.9807 20.6694 14.0519 20.6468 14.1227 20.6233L14.9013 21.2073C14.9787 21.2653 15.0793 21.2774 15.1672 21.2394C15.2552 21.2013 15.3181 21.1185 15.3334 21.0204L15.4882 20.0304C15.5535 19.9949 15.6184 19.9586 15.6827 19.9214L16.5582 20.3378C16.6449 20.379 16.7459 20.3705 16.8252 20.3152C16.9044 20.2599 16.9506 20.1658 16.9472 20.0664L16.9131 19.0603C16.9692 19.0133 17.0248 18.9657 17.0798 18.9173L18.0196 19.1483C18.1124 19.1711 18.2099 19.1422 18.2773 19.0719C18.3446 19.0016 18.3724 18.8999 18.3505 18.8031L18.1291 17.8223C18.1754 17.765 18.2211 17.707 18.2662 17.6484L19.2303 17.684C19.3256 17.6875 19.4158 17.6394 19.4688 17.5567C19.5217 17.474 19.5299 17.3686 19.4904 17.2781L19.0914 16.3646C19.127 16.2974 19.1619 16.2298 19.1959 16.1616L20.1446 16.0001C20.2386 15.9841 20.3179 15.9185 20.3544 15.8267C20.3909 15.7349 20.3792 15.6299 20.3237 15.5492L19.764 14.7368C19.7866 14.6629 19.8082 14.5886 19.829 14.5139L20.725 14.1636C20.8142 14.1287 20.8797 14.0482 20.8983 13.9508C20.9169 13.8534 20.8859 13.7529 20.8164 13.685L20.117 13.0028C20.1252 12.9256 20.1325 12.8481 20.1388 12.7702L20.9531 12.2441C21.0341 12.1917 21.0834 12.0994 21.0834 12C21.0834 11.9006 21.0341 11.8083 20.9531 11.7559L20.1388 11.2298C20.1325 11.1519 20.1252 11.0744 20.117 10.9972L20.8164 10.315C20.8859 10.2471 20.9169 10.1466 20.8983 10.0492C20.8797 9.95176 20.8142 9.87129 20.725 9.83643L19.829 9.48614C19.8083 9.41142 19.7866 9.3371 19.764 9.26319L20.3237 8.45081C20.3792 8.37011 20.3909 8.26515 20.3544 8.17334C20.3179 8.08152 20.2386 8.01592 20.1446 7.99992L19.1959 7.83841C19.1619 7.77021 19.1271 7.70252 19.0914 7.63535L19.4904 6.72193C19.5299 6.63142 19.5217 6.52601 19.4688 6.44332C19.4158 6.36063 19.3256 6.31245 19.2303 6.31597L18.2662 6.35159C18.2212 6.29299 18.1755 6.23498 18.1291 6.17758L18.3505 5.19693C18.3724 5.10013 18.3446 4.99843 18.2773 4.9281C18.2099 4.85778 18.1124 4.82886 18.0196 4.85167L17.0798 5.0827C17.0248 5.03429 16.9692 4.98659 16.9131 4.9396L16.9472 3.9336C16.9506 3.8342 16.9044 3.74006 16.8252 3.68478C16.7459 3.6295 16.6449 3.62097 16.5582 3.66222L15.6828 4.07851C15.6184 4.04133 15.5536 4.00497 15.4882 3.96946L15.3334 2.97961C15.3181 2.88152 15.2552 2.79868 15.1672 2.76063C15.0793 2.72258 14.9787 2.73472 14.9013 2.79273L14.1228 3.37665C14.052 3.35311 13.9807 3.3305 13.9091 3.30883L13.5734 2.37392C13.54 2.28089 13.4629 2.2125 13.3696 2.19309C13.2762 2.17368 13.1798 2.20603 13.1148 2.2786L12.4611 3.00836C12.387 2.99979 12.3127 2.9922 12.2382 2.9856L11.7339 2.13594ZM11.4872 3.75689C11.6354 3.76089 11.7763 3.82537 11.8798 3.93656C11.9833 4.04775 12.0412 4.19687 12.0411 4.3521C12.0411 4.50996 11.981 4.66136 11.874 4.77298C11.7671 4.88461 11.622 4.94732 11.4707 4.94732C11.3194 4.94732 11.1743 4.88461 11.0673 4.77298C10.9604 4.66136 10.9003 4.50996 10.9003 4.3521C10.9002 4.27247 10.9155 4.19363 10.9452 4.12027C10.9749 4.04691 11.0184 3.98052 11.0731 3.92501C11.1279 3.86951 11.1927 3.82603 11.2638 3.79715C11.335 3.76828 11.4109 3.75458 11.4872 3.75689ZM12.7931 4.73679C13.7945 4.93251 14.743 5.35333 15.5728 5.97005C16.4027 6.58676 17.0939 7.38458 17.5985 8.30808L16.9254 9.89277C16.8098 10.1665 16.9291 10.488 17.1895 10.6105L18.4844 11.2095C18.5246 11.6319 18.5295 12.0571 18.4991 12.4803H17.7783C17.7067 12.4803 17.6774 12.5301 17.6774 12.6028V12.9473C17.6774 13.7588 17.239 13.9368 16.8539 13.9808C16.487 14.0248 16.0817 13.82 16.0303 13.5866C15.819 12.3474 15.4712 12.061 14.9255 11.6116L14.8858 11.5789C15.592 11.1119 16.3256 10.421 16.3256 9.49851C16.3256 8.50139 15.6709 7.87363 15.2252 7.5655C14.5979 7.13488 13.9046 7.04875 13.7175 7.04875H6.27093C7.30062 5.84845 8.68081 5.03585 10.1978 4.73679L11.0764 5.69756C11.2744 5.91383 11.6027 5.92339 11.81 5.71478L12.7931 4.73679ZM4.68624 9.14253C4.83465 9.14702 4.97553 9.2117 5.07896 9.32284C5.18239 9.43399 5.24021 9.58283 5.24015 9.73775C5.24015 9.89561 5.18005 10.047 5.07308 10.1586C4.96611 10.2703 4.82102 10.333 4.66974 10.333C4.51845 10.333 4.37337 10.2703 4.26639 10.1586C4.15942 10.047 4.09932 9.89561 4.09932 9.73775C4.09929 9.65811 4.11457 9.57928 4.14427 9.50592C4.17396 9.43256 4.21746 9.36616 4.27219 9.31066C4.32691 9.25516 4.39176 9.21168 4.46288 9.1828C4.534 9.15392 4.60996 9.14023 4.68624 9.14253ZM18.2863 9.16933C18.4347 9.17381 18.5756 9.23849 18.679 9.34964C18.7825 9.46078 18.8403 9.60962 18.8402 9.76454C18.8402 9.9224 18.7801 10.0738 18.6732 10.1854C18.5662 10.297 18.4211 10.3598 18.2698 10.3598C18.1185 10.3598 17.9734 10.297 17.8665 10.1854C17.7595 10.0738 17.6994 9.9224 17.6994 9.76454C17.6994 9.68491 17.7147 9.60607 17.7443 9.53271C17.774 9.45935 17.8175 9.39296 17.8723 9.33745C17.927 9.28195 17.9918 9.23847 18.063 9.20959C18.1341 9.18072 18.21 9.16702 18.2863 9.16933ZM5.76104 9.26502H6.75514V13.9425H4.7486C4.50079 13.0345 4.42356 12.085 4.52117 11.1464L5.75004 10.576C6.01232 10.4535 6.13154 10.1339 6.01415 9.86024L5.76104 9.26502ZM9.90985 9.31478H12.2777C12.4006 9.31478 13.1416 9.46215 13.1416 10.0421C13.1416 10.5224 12.573 10.6947 12.1053 10.6947H9.90801L9.90985 9.31478ZM9.90985 12.6755H11.7238C11.8889 12.6755 12.6097 12.7253 12.839 13.6861C12.8642 13.7901 12.9004 13.9772 12.9415 14.1892C13.0168 14.5778 13.1083 15.0504 13.1783 15.2497C13.2865 15.5942 13.7248 16.2832 14.1925 16.2832H17.1528C16.9544 16.5604 16.7375 16.8227 16.5035 17.0679L15.2985 16.798C15.0179 16.7349 14.7409 16.9224 14.6804 17.2153L14.3943 18.6086C13.4742 19.0435 12.475 19.2661 11.4649 19.2611C10.4549 19.2562 9.45771 19.0238 8.54159 18.5799L8.25546 17.1866C8.19494 16.8937 7.91982 16.7062 7.63919 16.7693L6.45985 17.0334C6.241 16.7979 6.03756 16.5472 5.85092 16.2832H11.5862C11.6504 16.2832 11.6945 16.2717 11.6945 16.2086V14.0918C11.6945 14.0306 11.6504 14.0172 11.5862 14.0172H9.90801L9.90985 12.6755ZM7.2632 17.5234C7.4116 17.5279 7.55248 17.5926 7.65591 17.7037C7.75934 17.8148 7.81717 17.9637 7.8171 18.1186C7.8171 18.2765 7.75701 18.4279 7.65003 18.5395C7.54306 18.6511 7.39797 18.7138 7.24669 18.7138C7.09541 18.7138 6.95032 18.6511 6.84335 18.5395C6.73637 18.4279 6.67628 18.2765 6.67628 18.1186C6.67624 18.039 6.69153 17.9601 6.72122 17.8868C6.75091 17.8134 6.79441 17.747 6.84914 17.6915C6.90387 17.636 6.96871 17.5925 7.03984 17.5637C7.11096 17.5348 7.18691 17.5211 7.2632 17.5234ZM15.7094 17.5502C15.8578 17.5547 15.9987 17.6194 16.1021 17.7305C16.2055 17.8416 16.2633 17.9905 16.2633 18.1454C16.2633 18.3033 16.2032 18.4547 16.0962 18.5663C15.9892 18.6779 15.8441 18.7406 15.6929 18.7406C15.5416 18.7406 15.3965 18.6779 15.2895 18.5663C15.1825 18.4547 15.1224 18.3033 15.1224 18.1454C15.1224 18.0658 15.1377 17.9869 15.1674 17.9136C15.1971 17.8402 15.2406 17.7738 15.2953 17.7183C15.35 17.6628 15.4149 17.6193 15.486 17.5905C15.5571 17.5616 15.6331 17.5479 15.7094 17.5502Z" fill="#EA580C"/>
</svg>
