<svg width="24" height="24" viewBox="0 0 24 24" fill="none" xmlns="http://www.w3.org/2000/svg">
<path d="M18.4162 12.7599C17.7461 12.7639 17.1658 12.9348 16.6791 13.1892C16.4994 12.8116 16.3197 12.4816 16.2897 12.2352C16.256 11.949 16.2148 11.774 16.256 11.4322C16.2972 11.0903 16.4844 10.6053 16.4844 10.5656C16.4807 10.5298 16.4432 10.3549 16.0576 10.3509C15.672 10.3469 15.3388 10.4304 15.3014 10.5377C15.2639 10.6451 15.189 10.8915 15.1404 11.1459C15.073 11.5196 14.3691 12.8434 13.9686 13.5391C13.8375 13.2687 13.7252 13.0302 13.7027 12.8394C13.6691 12.5532 13.6279 12.3783 13.6691 12.0364C13.7102 11.6945 13.8974 11.2095 13.8974 11.1698C13.8937 11.134 13.8562 10.9591 13.4706 10.9551C13.085 10.9512 12.7518 11.0346 12.7144 11.142C12.6769 11.2493 12.6358 11.5037 12.5534 11.7502C12.4748 11.9967 11.5388 14.2069 11.2955 14.7833C11.1719 15.0775 11.0634 15.312 10.9847 15.4711C10.9061 15.6301 10.981 15.483 10.9735 15.4989C10.9061 15.634 10.8687 15.7096 10.8687 15.7096V15.7135C10.8163 15.8129 10.7601 15.9083 10.7339 15.9083C10.7152 15.9083 10.6777 15.642 10.7414 15.2763C10.8799 14.509 11.2169 13.3125 11.2131 13.2687C11.2131 13.2489 11.2768 13.0382 10.996 12.9308C10.7227 12.8235 10.6253 13.0024 10.6029 13.0024C10.5804 13.0024 10.5617 13.066 10.5617 13.066C10.5617 13.066 10.8649 11.7184 9.98139 11.7184C9.42731 11.7184 8.66357 12.3584 8.28544 12.9428C8.04584 13.0819 7.53668 13.3761 6.99757 13.6901C6.79166 13.8094 6.57826 13.9366 6.3761 14.0519L6.33492 14.0042C5.26418 12.7917 3.28371 11.9331 3.36607 10.3032C3.39602 9.71087 3.5907 8.14858 7.16979 6.25635C10.1012 4.70599 12.4486 5.13134 12.8566 6.07746C13.4369 7.42906 11.6025 9.94143 8.555 10.3032C7.39442 10.4423 6.78417 9.96529 6.63068 9.7864C6.46969 9.59956 6.44723 9.59161 6.38733 9.62739C6.28999 9.68304 6.34989 9.85 6.38733 9.94938C6.47718 10.1998 6.85156 10.6451 7.48801 10.8677C8.04584 11.0625 9.40859 11.1698 11.0559 10.494C12.9016 9.73472 14.3429 7.62782 13.9199 5.86677C13.4893 4.07392 10.689 3.48557 8.0421 4.48337C6.46595 5.07966 4.75877 6.00988 3.5308 7.23029C2.07071 8.67729 1.83859 9.94143 1.93593 10.4662C2.27662 12.3385 4.70636 13.5589 5.67975 14.4613C5.63108 14.4892 5.58615 14.517 5.54497 14.5408C5.05827 14.7953 3.20509 15.8249 2.74085 16.9141C2.21672 18.1464 2.82322 19.0329 3.22755 19.1522C4.47798 19.5219 5.75837 18.858 6.45097 17.7648C7.13984 16.6716 7.05747 15.2524 6.73925 14.6044L6.72802 14.5806L7.10989 14.3421C7.35698 14.187 7.60033 14.0439 7.81372 13.9207C7.69392 14.2665 7.60781 14.676 7.56289 15.2723C7.51047 15.9719 7.78003 16.8783 8.13569 17.2361C8.29293 17.3911 8.48012 17.3951 8.59618 17.3951C9.008 17.3951 9.19519 17.0333 9.4011 16.6C9.65568 16.0713 9.88031 15.4591 9.88031 15.4591C9.88031 15.4591 9.59952 17.1168 10.367 17.1168C10.6478 17.1168 10.9286 16.7312 11.0559 16.5325V16.5364C11.0559 16.5364 11.0634 16.5245 11.0783 16.4967C11.1083 16.449 11.1233 16.4211 11.1233 16.4211V16.4132C11.2356 16.2065 11.4864 15.7334 11.8608 14.9503C12.3437 13.9406 12.808 12.6764 12.808 12.6764C12.808 12.6764 12.8529 12.9865 12.9914 13.4953C13.0738 13.7975 13.2535 14.1274 13.392 14.4494C13.2797 14.6164 13.2123 14.7118 13.2123 14.7118L13.2161 14.7157C13.1262 14.843 13.0251 14.9781 12.9203 15.1133C12.5384 15.5983 12.0817 16.1508 12.0218 16.3098C11.9506 16.4967 11.9656 16.6358 12.1041 16.7471C12.2052 16.8266 12.3849 16.8425 12.5759 16.8266C12.9203 16.8028 13.1599 16.7113 13.2797 16.6557C13.4669 16.5841 13.6803 16.4768 13.8862 16.3178C14.2606 16.0236 14.4889 15.6062 14.4665 15.0497C14.4553 14.7436 14.3617 14.4415 14.2456 14.1552C14.2793 14.1036 14.313 14.0519 14.3467 13.9962C14.9382 13.0779 15.395 12.0682 15.395 12.0682C15.395 12.0682 15.4399 12.3783 15.5784 12.8871C15.6495 13.1455 15.7918 13.4278 15.9191 13.706C15.365 14.187 15.0168 14.7436 14.897 15.1093C14.6761 15.7851 14.8484 16.0912 15.1741 16.1628C15.3201 16.1946 15.5297 16.123 15.687 16.0514C15.8816 15.9839 16.1175 15.8686 16.3347 15.6976C16.709 15.4035 17.0684 14.994 17.0497 14.4415C17.0385 14.187 16.9748 13.9366 16.8887 13.6981C17.3605 13.4914 17.9707 13.3721 18.7457 13.4715C20.4117 13.6782 20.7411 14.7833 20.6775 15.2445C20.6138 15.7056 20.2657 15.96 20.1496 16.0395C20.0335 16.1151 19.9961 16.1429 20.0073 16.1985C20.0223 16.282 20.0747 16.278 20.1758 16.2621C20.3143 16.2383 21.0519 15.8845 21.0818 15.0338C21.1267 13.9406 20.1496 12.748 18.4162 12.7599ZM5.56743 17.3593C5.01709 17.9993 4.24212 18.2418 3.91267 18.0351C3.557 17.8165 3.69553 16.8743 4.37316 16.1946C4.78498 15.7811 5.32034 15.3995 5.67226 15.165C5.75088 15.1133 5.87068 15.0377 6.01295 14.9463C6.03541 14.9304 6.05039 14.9225 6.05039 14.9225C6.07659 14.9066 6.10654 14.8867 6.13649 14.8668C6.38733 15.8368 6.14773 16.6875 5.56743 17.3593ZM9.59204 14.4534C9.4011 14.9503 8.99677 16.2264 8.75342 16.1548C8.54377 16.0952 8.41648 15.1292 8.71224 14.1751C8.86199 13.6941 9.18022 13.1217 9.36741 12.899C9.67066 12.5413 10.0001 12.422 10.0825 12.5691C10.1798 12.7599 9.71184 14.1433 9.59204 14.4534ZM12.9128 16.1389C12.8304 16.1826 12.7556 16.2144 12.7219 16.1906C12.6957 16.1747 12.7556 16.115 12.7556 16.115C12.7556 16.115 13.1711 15.642 13.3359 15.4234C13.4294 15.2961 13.5418 15.1491 13.6616 14.9821V15.0298C13.6616 15.6022 13.1449 15.9839 12.9128 16.1389ZM15.4736 15.5188C15.4137 15.4711 15.4212 15.324 15.6233 14.8628C15.7019 14.68 15.8816 14.3739 16.1924 14.0837C16.2298 14.2029 16.2523 14.3182 16.2485 14.4256C16.2448 15.1411 15.7656 15.4074 15.4736 15.5188Z" fill="#F472B6"/>
</svg>
