<svg width="24" height="24" viewBox="0 0 24 24" fill="none" xmlns="http://www.w3.org/2000/svg">
<path d="M16.2707 18.7082C16.3141 18.686 16.3554 18.6608 16.3944 18.633C16.7473 18.4985 17.1258 18.3972 17.4641 18.4183C17.7684 18.4373 18.098 18.549 18.3858 19.1175L18.3858 19.1175L18.39 19.1257C18.4403 19.2228 18.5925 19.4904 18.9275 19.6337C19.3704 19.8233 19.7758 19.6621 19.9996 19.4788C20.1823 19.3291 20.2743 19.1529 20.3142 19.0678C20.3627 18.9648 20.3946 18.8635 20.4164 18.7781C20.5002 18.4512 20.5208 18.0254 20.4791 17.5707C20.4016 16.7274 20.0941 15.6112 19.3228 14.4993C20.1744 10.7526 17.8291 6.6007 14.232 4.42658C13.8167 4.17562 13.2813 4.25892 12.9619 4.62416C12.6425 4.9894 12.6314 5.53119 12.9355 5.90922C13.582 6.71282 14.0399 7.65121 14.2757 8.65526C14.4472 9.38596 14.4978 10.1379 14.4274 10.8814C12.2832 9.39248 10.2827 7.70519 8.45253 5.84139C8.09347 5.47572 7.51607 5.44069 7.11543 5.76027C6.84031 5.97972 6.7097 6.31761 6.74446 6.64747C6.67125 6.59359 6.59711 6.53923 6.52203 6.48437C6.13912 6.20458 5.61234 6.23223 5.26082 6.55056C4.9093 6.86889 4.82971 7.39035 5.07027 7.79905C5.33182 8.24341 5.63326 8.66303 5.97084 9.05271C7.50159 11.0951 9.23676 12.974 11.1485 14.6608C9.86309 14.9627 8.29072 14.8139 6.64677 14.048L6.64679 14.048L6.63797 14.044C6.09626 13.7979 5.5862 13.4875 5.11886 13.1193C4.7364 12.818 4.19253 12.8359 3.83075 13.1617C3.46898 13.4876 3.39446 14.0266 3.65428 14.4384C4.8759 16.3745 6.65414 17.896 8.75552 18.8034C9.92672 19.3676 11.2125 19.6536 12.5127 19.6389C13.8206 19.6242 15.1071 19.3055 16.2707 18.7082Z" stroke="#EA580C" stroke-width="2" stroke-linejoin="round"/>
</svg>
