<svg width="24" height="24" viewBox="0 0 24 24" fill="none" xmlns="http://www.w3.org/2000/svg">
<path fill-rule="evenodd" clip-rule="evenodd" d="M11.5002 6C8.94443 6 7.34749 7.32542 6.70826 9.97625C7.66672 8.65083 8.78481 8.1539 10.0625 8.48506C10.7915 8.67396 11.3128 9.22262 11.8893 9.83007C12.829 10.8192 13.9167 11.964 16.2918 11.964C18.8472 11.964 20.4445 10.6386 21.0834 7.98813C20.1253 9.31354 19.0072 9.81048 17.7295 9.47892C17.0001 9.29003 16.4788 8.74136 15.9023 8.13431C14.9626 7.14436 13.8753 6 11.5002 6ZM6.70826 11.964C4.15285 11.964 2.55554 13.2894 1.91669 15.9402C2.87515 14.6148 3.99324 14.1179 5.27056 14.449C5.99993 14.6379 6.52122 15.1866 7.09773 15.7941C8.03742 16.7832 9.1247 17.928 11.5002 17.928C14.0556 17.928 15.6529 16.6029 16.2918 13.9521C15.3333 15.2775 14.2152 15.7745 12.9375 15.4433C12.2085 15.254 11.6872 14.7053 11.1107 14.0983C10.1711 13.1091 9.08339 11.964 6.70826 11.964Z" fill="#0EA5E9"/>
</svg>
