<svg width="24" height="24" viewBox="0 0 24 24" fill="none" xmlns="http://www.w3.org/2000/svg">
<path fill-rule="evenodd" clip-rule="evenodd" d="M6.02024 5H18.4928L18.513 9.17774H17.9162C17.7206 7.68738 17.1609 6.67918 16.237 6.15318C15.7177 5.86321 14.9422 5.70473 13.9104 5.67773V16.5824C13.9104 17.3444 14.0436 17.8502 14.31 18.0997C14.5764 18.3492 15.131 18.474 15.974 18.474V19H8.5896V18.474C9.39885 18.474 9.93666 18.3475 10.203 18.0946C10.4694 17.8418 10.6026 17.3377 10.6026 16.5824V5.67773C9.59104 5.70473 8.81553 5.86321 8.276 6.15318C7.28468 6.69268 6.72494 7.70087 6.59682 9.17774H6L6.02024 5Z" fill="#2563EB"/>
</svg>
