<svg width="25" height="24" viewBox="0 0 25 24" fill="none" xmlns="http://www.w3.org/2000/svg">
<path d="M17.509 8.05539L12.7277 15.1228C12.6771 15.1977 12.6037 15.2539 12.5189 15.2827C12.4341 15.3115 12.3424 15.3112 12.2578 15.2823C12.1731 15.2532 12.1002 15.1967 12.0499 15.1217C11.9997 15.0465 11.9749 14.9567 11.9794 14.8659L12.1707 10.964L9.0815 10.2942C9.01548 10.2799 8.95397 10.2493 8.90241 10.205C8.85085 10.1607 8.81083 10.1041 8.7859 10.0403C8.76097 9.97645 8.75191 9.90733 8.7595 9.83904C8.7671 9.77076 8.79111 9.70541 8.82943 9.64877L13.6108 2.58135C13.6615 2.50638 13.7348 2.45026 13.8196 2.42149C13.9044 2.39272 13.9961 2.39287 14.0807 2.42194C14.1654 2.45099 14.2383 2.50737 14.2886 2.58252C14.3388 2.65765 14.3636 2.74745 14.3591 2.83829L14.1678 6.74027L17.257 7.40998C17.323 7.42429 17.3845 7.45496 17.4361 7.49924C17.4877 7.54354 17.5277 7.6001 17.5525 7.66393C17.5775 7.72776 17.5866 7.79688 17.579 7.86516C17.5715 7.93345 17.5474 7.99875 17.509 8.05539Z" fill="#FBBF24"/>
<path d="M12.498 21.6C12.6252 21.6002 12.7511 21.575 12.8686 21.526C12.9862 21.4769 13.0928 21.4049 13.1826 21.3142L17.7004 16.7599C17.8812 16.5768 17.9825 16.3288 17.9821 16.0705C17.9818 15.8121 17.8798 15.5643 17.6986 15.3817C17.5174 15.199 17.2716 15.0961 17.0154 15.0957C16.759 15.0955 16.5131 15.1975 16.3314 15.3797L12.498 19.2438L4.14705 10.8253C3.96499 10.6447 3.71954 10.544 3.46416 10.5451C3.20877 10.5461 2.96413 10.6488 2.78355 10.8309C2.60296 11.013 2.50105 11.2595 2.50001 11.5171C2.49897 11.7745 2.59889 12.0219 2.778 12.2055L11.8136 21.3142C11.9034 21.405 12.0101 21.4769 12.1275 21.526C12.245 21.575 12.3709 21.6002 12.498 21.6Z" fill="#14B8A6"/>
<path d="M12.5019 21.6C12.3747 21.6002 12.2488 21.575 12.1313 21.526C12.0138 21.4769 11.9071 21.4049 11.8173 21.3142L7.2995 16.7599C7.11877 16.5768 7.01746 16.3288 7.0178 16.0705C7.01814 15.8121 7.12009 15.5643 7.30133 15.3817C7.48255 15.199 7.72825 15.0961 7.98455 15.0957C8.24085 15.0955 8.48684 15.1975 8.66857 15.3797L12.5019 19.2438L20.8529 10.8253C21.035 10.6447 21.2804 10.544 21.5358 10.5451C21.7912 10.5461 22.0358 10.6488 22.2163 10.8309C22.397 11.013 22.499 11.2595 22.5 11.5171C22.5009 11.7745 22.401 12.0219 22.2219 12.2055L13.1863 21.3142C13.0966 21.405 12.9898 21.4769 12.8724 21.526C12.755 21.575 12.629 21.6002 12.5019 21.6Z" fill="#14B8A6"/>
</svg>
