<svg width="24" height="24" viewBox="0 0 24 24" fill="none" xmlns="http://www.w3.org/2000/svg">
<path d="M20.0807 5.66759L11.9723 20.7875C11.8049 21.0997 11.3748 21.1015 11.2049 20.7909L2.93579 5.66905C2.75067 5.33052 3.02827 4.92046 3.39614 4.98903L11.5132 6.50202C11.5649 6.51167 11.618 6.51158 11.6697 6.50174L19.617 4.9912C19.9837 4.92151 20.2626 5.32839 20.0807 5.66759Z" fill="#A855F7"/>
<path d="M15.3797 3.0045L9.37931 4.2306C9.28069 4.25075 9.20767 4.3379 9.20172 4.4425L8.83261 10.9434C8.82393 11.0965 8.95878 11.2153 9.10208 11.1809L10.7727 10.7788C10.929 10.7412 11.0702 10.8848 11.0381 11.0487L10.5418 13.5832C10.5084 13.7538 10.6619 13.8997 10.8217 13.8491L11.8535 13.5221C12.0135 13.4715 12.1672 13.6178 12.1334 13.7885L11.3446 17.7696C11.2952 18.0187 11.6129 18.1545 11.7453 17.941L11.8338 17.7984L16.7233 7.6228C16.8052 7.45242 16.664 7.25815 16.4845 7.29426L14.7649 7.64035C14.6033 7.67284 14.4659 7.51591 14.5115 7.35104L15.6338 3.29367C15.6795 3.12852 15.5415 2.97145 15.3797 3.0045Z" fill="#FBBF24"/>
</svg>
