<svg width="24" height="24" viewBox="0 0 24 24" fill="none" xmlns="http://www.w3.org/2000/svg">
<path fill-rule="evenodd" clip-rule="evenodd" d="M11.8993 15.6212C11.8993 15.9419 12.232 16.1424 12.4982 15.982L15.1042 14.412C15.2277 14.3376 15.3038 14.2 15.3038 14.0512V10.9112C15.3038 10.5905 14.9711 10.39 14.7049 10.5504L12.0989 12.1204C11.9753 12.1948 11.8993 12.3323 11.8993 12.4812V15.6212ZM14.3055 9.82869C14.5718 9.66832 14.5718 9.26738 14.3055 9.107L11.6996 7.53702C11.576 7.46259 11.4238 7.46259 11.3003 7.53702L8.65125 9.13294C8.38505 9.29332 8.38505 9.69425 8.65125 9.85463L11.2573 11.4246C11.3808 11.499 11.533 11.499 11.6565 11.4246L14.3055 9.82869ZM8.295 10.6023C8.0288 10.4419 7.69604 10.6423 7.69604 10.9631V14.0512C7.69604 14.2 7.77216 14.3376 7.89569 14.412L10.5017 15.982C10.7678 16.1424 11.1007 15.9419 11.1007 15.6212V12.5331C11.1007 12.3842 11.0245 12.2467 10.901 12.1722L8.295 10.6023Z" fill="#2563EB"/>
<path d="M5.28175 7.77269L6.47341 8.49061C6.59695 8.56504 6.74917 8.56504 6.87271 8.49061L10.901 6.06371C11.0247 5.98928 11.1008 5.85173 11.1008 5.70287V4.26702C11.1008 3.94627 10.768 3.7458 10.5018 3.90617L5.28175 7.051C5.01554 7.21138 5.01554 7.61232 5.28175 7.77269Z" fill="#93C5FD"/>
<path d="M11.8994 4.26696V5.7028C11.8994 5.85166 11.9754 5.98921 12.099 6.06364L16.1274 8.49055C16.251 8.56498 16.4031 8.56498 16.5267 8.49055L17.7184 7.77263C17.9846 7.61226 17.9846 7.21132 17.7184 7.05094L12.4983 3.90611C12.2321 3.74574 11.8994 3.94621 11.8994 4.26696Z" fill="#93C5FD"/>
<path d="M16.7264 9.57308V14.4269C16.7264 14.5758 16.8025 14.7134 16.926 14.7878L18.1177 15.5057C18.3839 15.6661 18.7166 15.4656 18.7166 15.1449V8.85516C18.7166 8.53441 18.3839 8.33394 18.1177 8.49431L16.926 9.21224C16.8025 9.28667 16.7264 9.42422 16.7264 9.57308Z" fill="#93C5FD"/>
<path d="M16.1274 15.5095L12.099 17.9364C11.9754 18.0108 11.8994 18.1484 11.8994 18.2972V19.7331C11.8994 20.0538 12.2321 20.2543 12.4983 20.0939L17.7184 16.9491C17.9846 16.7887 17.9846 16.3878 17.7184 16.2274L16.5267 15.5095C16.4031 15.435 16.251 15.435 16.1274 15.5095Z" fill="#93C5FD"/>
<path d="M10.901 17.9363L6.87272 15.5094C6.74917 15.435 6.59696 15.435 6.47341 15.5094L5.28174 16.2274C5.01554 16.3877 5.01554 16.7887 5.28174 16.9491L10.5018 20.0939C10.768 20.2543 11.1008 20.0538 11.1008 19.733V18.2972C11.1008 18.1483 11.0247 18.0108 10.901 17.9363Z" fill="#93C5FD"/>
<path d="M6.27378 14.4269V9.57314C6.27378 9.42427 6.19767 9.28672 6.07414 9.21229L4.88247 8.49437C4.61626 8.33399 4.28351 8.53446 4.28351 8.85521V15.1448C4.28351 15.4656 4.61626 15.6661 4.88247 15.5057L6.07414 14.7878C6.19767 14.7133 6.27378 14.5758 6.27378 14.4269Z" fill="#93C5FD"/>
</svg>
