<svg width="24" height="24" viewBox="0 0 24 24" fill="none" xmlns="http://www.w3.org/2000/svg">
<path fill-rule="evenodd" clip-rule="evenodd" d="M5.48584 20.5941C5.31761 20.5735 5.14937 20.4857 4.98113 20.398C4.90602 20.3588 4.84192 20.3158 4.78881 20.2689C4.56995 20.0759 4.53789 19.8179 4.69266 19.4949C4.69266 19.4447 4.7167 19.3946 4.74073 19.3444C4.76477 19.2942 4.78881 19.2441 4.78881 19.1939C4.40419 19.1939 4.21187 18.9932 4.11571 18.6922C3.63493 17.3878 3.73108 16.3844 4.69266 15.3811C4.71842 15.3273 4.74419 15.2807 4.7681 15.2375C4.83344 15.1194 4.88497 15.0263 4.88497 14.8794C4.88497 13.575 5.07728 12.3709 5.9427 11.2672C6.23117 10.8659 6.6158 10.4645 7.09658 10.1635C7.2889 10.0632 7.2889 9.96281 7.19274 9.76214C6.80811 9.26045 6.6158 8.75876 6.51964 8.15673C6.44272 7.75538 6.61195 7.35403 6.78119 6.95268C6.8235 6.85234 6.86581 6.752 6.90427 6.65166C7.00043 6.55132 7.09659 6.45099 7.19274 6.45099C7.47495 6.37737 7.70539 6.19572 7.92205 6.02493C8.00068 5.96295 8.0775 5.9024 8.15431 5.84896C8.82741 5.1466 9.59667 4.84558 10.5582 4.84558C10.7448 4.84558 10.8409 4.75115 10.8465 4.6539C10.8466 4.65091 10.8467 4.64791 10.8467 4.64491C10.8559 4.60668 10.8659 4.56846 10.8768 4.53024C10.9279 4.35091 10.9983 4.17158 11.0878 3.99225C11.1576 3.85251 11.239 3.71277 11.3321 3.57302C11.3615 3.52897 11.392 3.48491 11.4237 3.44085L11.7121 3.13984C11.8594 2.98616 12.0631 2.95017 12.1936 3.07692C12.1959 3.07915 12.1981 3.08144 12.2004 3.08378C12.2373 3.12197 12.2678 3.17374 12.2891 3.24018C12.4862 3.58302 12.6384 3.92586 12.7764 4.23668C12.7802 4.24524 12.784 4.25378 12.7878 4.2623C12.8476 4.39697 12.9049 4.52539 12.9622 4.64491C12.963 4.64674 12.9639 4.64855 12.9648 4.65035C12.966 4.65275 12.9671 4.65512 12.9683 4.65746C13.0624 4.84554 13.1565 4.84344 13.2506 4.74524C13.592 4.59257 13.7603 4.51733 13.8683 4.5719C13.9732 4.62492 14.0213 4.80048 14.1161 5.1466C14.164 5.35686 14.2043 5.56613 14.2369 5.77439C14.2705 5.98902 14.2958 6.20258 14.3128 6.41508C14.4444 8.0628 14.0746 9.64673 13.1545 11.1669C13.1064 11.2672 13.0343 11.3675 12.9622 11.4679C12.89 11.5682 12.8179 11.6686 12.7699 11.7689C12.6737 11.9696 12.6737 12.0699 12.866 12.2706C13.7314 13.0733 14.3084 14.177 14.5007 15.3811C14.5225 15.5404 14.5394 15.7048 14.5513 15.8721C14.553 15.8964 14.5546 15.9207 14.5561 15.9451C14.5786 16.305 14.5784 16.6762 14.5554 17.0359C14.5533 17.0694 14.551 17.1027 14.5484 17.136C14.5367 17.29 14.5208 17.4414 14.5007 17.5885C14.4768 17.6884 14.4647 17.7634 14.4646 17.8182C14.4643 17.9836 14.5725 17.9649 14.7892 17.8895C14.9174 17.8513 15.0456 17.8094 15.1731 17.7639C15.2217 17.7466 15.2701 17.7288 15.3184 17.7104C15.5456 17.624 15.7699 17.5259 15.9874 17.4162C16.0027 17.4085 16.0179 17.4007 16.033 17.3929C16.1203 17.348 16.2065 17.3013 16.2913 17.2526C16.3513 17.2181 16.4107 17.1826 16.4693 17.1462C16.5519 17.0949 16.633 17.0416 16.7123 16.9865C16.7948 16.9373 16.8759 16.8881 16.956 16.8394C17.3654 16.591 17.7509 16.357 18.1834 16.2113C18.3571 16.1529 18.5383 16.1086 18.7316 16.0834C18.8316 16.0834 18.9201 16.0714 19.005 16.0598C19.0281 16.0566 19.051 16.0535 19.0737 16.0507C19.1297 16.0437 19.1851 16.0385 19.2423 16.0388C19.3227 16.0393 19.4066 16.0507 19.5009 16.0834C19.7893 16.1838 19.9816 16.4848 19.9816 16.7858C19.9816 17.0868 19.7893 17.2875 19.5009 17.3878C19.3468 17.42 19.1953 17.4598 19.0462 17.5066C18.9998 17.5212 18.9535 17.5364 18.9076 17.5523C18.8485 17.5727 18.7899 17.5942 18.7316 17.6166C18.6429 17.6509 18.5551 17.6874 18.4682 17.7261C18.1388 17.873 17.8225 18.0509 17.5193 18.2496C17.491 18.2682 17.4629 18.2869 17.4348 18.3058C17.2533 18.4281 17.0765 18.5577 16.9046 18.6922C16.4187 19.0472 15.8836 19.3509 15.3366 19.6033C15.3135 19.614 15.2903 19.6246 15.2671 19.6351C15.0154 19.7491 14.7616 19.8522 14.5092 19.9446C14.247 20.0405 13.9864 20.1247 13.7314 20.1973C13.6353 20.1973 13.443 20.2976 13.3468 20.398C13.046 20.6333 12.7453 20.6847 12.3985 20.7438C12.3018 20.7603 12.2016 20.7774 12.0968 20.7993C12.0149 20.8071 11.9336 20.8148 11.8528 20.8225C10.8896 20.9146 9.9956 21 9.01973 21C8.95169 21 8.88367 21 8.81437 20.9987C8.78774 21.0213 8.76166 21.0413 8.7367 21.0587L8.73123 21.0501C8.74086 21.0325 8.75033 21.0149 8.75963 20.9973C8.73857 20.9967 8.71737 20.9959 8.696 20.995C8.50558 20.9864 8.30104 20.963 8.05816 20.8996C7.98216 20.8732 7.90618 20.8398 7.8337 20.7995C7.77767 20.7683 7.72373 20.7329 7.67353 20.6934C7.60048 20.6359 7.53533 20.5695 7.48306 20.4944C7.44133 20.4344 7.40781 20.3688 7.38506 20.2976C7.31637 20.0109 7.34581 19.7754 7.47336 19.5912C7.4807 19.5805 7.48837 19.5701 7.49635 19.5599C7.5439 19.4988 7.60296 19.4437 7.67353 19.3946C7.77429 19.3946 7.84866 19.367 7.91046 19.3408C7.91775 19.3377 7.92487 19.3346 7.93183 19.3316C7.9785 19.3115 8.01833 19.2942 8.05816 19.2942C7.91737 19.2208 7.82812 19.1473 7.75267 19.0345C7.72506 18.9932 7.69929 18.9467 7.67353 18.8929C7.57737 18.7925 7.57737 18.7925 7.48121 18.8929C7.46139 18.9343 7.44565 18.9756 7.43231 19.017C7.43209 19.0177 7.43187 19.0184 7.43165 19.0191C7.41298 19.0774 7.39902 19.1356 7.38506 19.1939C7.36102 19.2942 7.33698 19.3946 7.2889 19.4949C7.15142 19.9731 6.97026 20.2918 6.71419 20.4726C6.68052 20.4964 6.64554 20.5178 6.60921 20.5369C6.57724 20.5537 6.54421 20.5686 6.51008 20.5818C6.3645 20.6381 6.19881 20.6621 6.00925 20.6565C5.87187 20.6525 5.72195 20.6328 5.55807 20.5986C5.53399 20.5986 5.50992 20.5971 5.48584 20.5941ZM5.31185 22.5852C4.73841 22.5236 4.27276 22.2682 4.14796 22.1998C4.13754 22.1941 4.1295 22.1897 4.12397 22.1868C3.6674 21.9486 3.06775 21.4853 2.80223 20.6541C2.74452 20.4735 2.70943 20.2969 2.6922 20.1262C2.51004 19.869 2.39171 19.6051 2.31416 19.3757C2.01192 18.5448 1.81536 17.6035 1.97154 16.6024C2.10505 15.7466 2.4698 15.012 2.97731 14.3772C3.0291 12.9928 3.32667 11.4627 4.43389 10.0333C4.56507 9.8532 4.71206 9.67035 4.87545 9.49009C4.76641 9.17197 4.68804 8.84644 4.63325 8.51151C4.49981 7.76628 4.66513 7.12984 4.79472 6.7435C4.86242 6.54164 4.9386 6.35736 4.99355 6.22629C5.00852 6.1906 5.02186 6.15893 5.03394 6.13026C5.07333 6.03676 5.09933 5.97505 5.12469 5.90888C5.22109 5.6574 5.36544 5.42897 5.54898 5.23745C5.55062 5.23574 5.55288 5.23335 5.55574 5.23033C5.59319 5.19079 5.73282 5.04336 5.8985 4.9137C6.00825 4.82781 6.26452 4.63837 6.63609 4.53041C6.67039 4.50497 6.7104 4.47349 6.78147 4.41749L6.78532 4.41446C6.82291 4.38484 6.8729 4.34545 6.93027 4.30201C7.67839 3.56901 8.52407 3.1363 9.44796 2.95161C9.57903 2.7038 9.72788 2.46686 9.89032 2.24085C9.94474 2.16514 10.0042 2.09355 10.0684 2.02664L10.3568 1.72562C10.7642 1.30058 11.4335 0.919638 12.2483 1.01411C13.083 1.11088 13.6968 1.66202 14.003 2.33666C14.047 2.41703 14.0905 2.49988 14.1331 2.58338C14.2948 2.61097 14.4664 2.66057 14.6421 2.74203C15.4022 3.09455 15.6855 3.78044 15.7636 3.97601C15.8468 4.18438 15.9125 4.42611 15.9493 4.56169C15.9528 4.5745 15.956 4.58636 15.959 4.59715C15.9668 4.62572 15.974 4.65446 15.9806 4.68335C16.5406 7.13781 16.2528 9.53938 15.035 11.7819C15.7015 12.6904 16.1567 13.7556 16.3627 14.8854C16.9023 14.572 17.6334 14.2111 18.4939 14.0989C18.5636 14.0898 18.6337 14.0847 18.704 14.0836C18.7047 14.0835 18.7055 14.0834 18.7064 14.0833C18.7192 14.0817 18.7294 14.0803 18.7485 14.0777C18.7568 14.0766 18.7668 14.0753 18.7793 14.0736C18.8132 14.069 18.8662 14.0619 18.9255 14.0557C19.2017 14.0269 19.617 14.0156 20.107 14.1861C21.2189 14.5728 21.8983 15.6697 21.8983 16.7858C21.8983 18.2369 20.8782 19.0169 20.107 19.2852C20.0316 19.3114 19.9547 19.3327 19.8767 19.349C19.2962 19.4701 18.6941 19.7918 18.0546 20.2922C18.0379 20.3053 18.0209 20.3181 18.0037 20.3307C16.8673 21.1608 15.5597 21.7341 14.3795 22.085C13.6359 22.6084 12.7415 22.7249 12.52 22.7537C12.4959 22.7569 12.4797 22.759 12.4726 22.7605C12.4058 22.7744 12.3382 22.7846 12.2703 22.7911C12.1857 22.7991 12.101 22.8072 12.016 22.8154C11.0658 22.9063 10.0874 23 9.01973 23L8.99745 23C8.69047 23.0001 8.20783 23.0002 7.5933 22.8399C7.5457 22.8275 7.49859 22.8132 7.45205 22.797C7.299 22.7438 7.10794 22.6634 6.90459 22.5475C6.32904 22.7062 5.76829 22.6686 5.31185 22.5852ZM8.67345 21.1759C8.67554 21.175 8.67511 21.1752 8.67263 21.1762L8.67345 21.1759ZM14.6662 3.72876C14.6699 3.73664 14.6733 3.74389 14.6765 3.75048L14.6764 3.75036C14.676 3.74931 14.6727 3.74175 14.6662 3.72876ZM6.58403 4.5667C6.58404 4.56667 6.58493 4.56612 6.58666 4.56512C6.58488 4.56623 6.58402 4.56673 6.58403 4.5667ZM6.22756 8.38088C6.23151 8.37878 6.23546 8.3767 6.23942 8.37464L6.23817 8.37529C6.23568 8.37659 6.23211 8.37845 6.22756 8.38088Z" fill="#60A5FA"/>
</svg>
