<svg width="24" height="24" viewBox="0 0 24 24" fill="none" xmlns="http://www.w3.org/2000/svg">
<path fill-rule="evenodd" clip-rule="evenodd" d="M5.91156 5.879C5 6.75725 5 8.17175 5 11V14C5 16.8282 5 18.2427 5.91156 19.121C6.82233 20 8.28922 20 11.2222 20H12.7778C15.7108 20 17.1777 20 18.0884 19.121C19 18.2427 19 16.8282 19 14V11C19 8.17175 19 6.75725 18.0884 5.879C17.1777 5 15.7108 5 12.7778 5H12V6.5H13.1667C13.533 6.5 13.7166 6.5 13.8309 6.6095C13.9444 6.71975 13.9444 6.89675 13.9444 7.25C13.9444 7.60325 13.9444 7.78025 13.8309 7.8905C13.7166 8 13.5322 8 13.1667 8H12V9.5H13.1667C13.533 9.5 13.7166 9.5 13.8309 9.6095C13.9444 9.71975 13.9444 9.89675 13.9444 10.25C13.9444 10.6033 13.9444 10.7803 13.8309 10.8905C13.7166 11 13.5322 11 13.1667 11H12.7778C12.4114 11 12.2279 11 12.1136 10.8905C12 10.7803 12 10.6025 12 10.25V9.5H10.8333C10.467 9.5 10.2834 9.5 10.1691 9.3905C10.0556 9.28025 10.0556 9.1025 10.0556 8.75C10.0556 8.3975 10.0556 8.21975 10.1691 8.1095C10.2834 8 10.4678 8 10.8333 8H12V6.5H10.8333C10.467 6.5 10.2834 6.5 10.1691 6.3905C10.0556 6.28025 10.0556 6.1025 10.0556 5.75V5.00225C7.88244 5.01725 6.69244 5.12525 5.91156 5.879ZM10.0556 13.1562V13.25C10.0556 13.7473 10.2604 14.2242 10.6251 14.5758C10.9897 14.9275 11.4843 15.125 12 15.125C12.5157 15.125 13.0103 14.9275 13.3749 14.5758C13.7396 14.2242 13.9444 13.7473 13.9444 13.25V13.1562C13.9444 12.9822 13.8727 12.8153 13.7451 12.6922C13.6175 12.5691 13.4444 12.5 13.2639 12.5H10.7361C10.5556 12.5 10.3825 12.5691 10.2549 12.6922C10.1273 12.8153 10.0556 12.9822 10.0556 13.1562Z" fill="#FBBF24"/>
</svg>
